<svg xmlns="http://www.w3.org/2000/svg" xmlns:xlink="http://www.w3.org/1999/xlink" width="512" zoomAndPan="magnify" viewBox="0 0 384 149.999998" height="200" preserveAspectRatio="xMidYMid meet" version="1.0"><defs><g/><clipPath id="e7f7cdad57"><path d="M 53 2.789062 L 114.441406 2.789062 L 114.441406 60 L 53 60 Z M 53 2.789062 " clip-rule="nonzero"/></clipPath><clipPath id="243a71675c"><path d="M 28.941406 27 L 114.441406 27 L 114.441406 125.789062 L 28.941406 125.789062 Z M 28.941406 27 " clip-rule="nonzero"/></clipPath><clipPath id="959cc65d64"><path d="M 92.238281 63.816406 L 28.941406 27.390625 L 28.941406 51.039062 L 97.226562 90.332031 L 71.691406 105.027344 L 28.941406 80.425781 L 28.941406 101.191406 L 71.691406 125.789062 L 114.441406 101.191406 L 114.441406 76.59375 Z M 92.238281 63.816406 " clip-rule="evenodd"/></clipPath><linearGradient x1="88.800288" gradientTransform="matrix(0.00799956, 0, 0, 0.00797332, 28.942481, 2.790697)" y1="3024.586758" x2="9252.087968" gradientUnits="userSpaceOnUse" y2="16409.352591" id="63658af307"><stop stop-opacity="1" stop-color="rgb(0%, 27.806091%, 56.504822%)" offset="0"/><stop stop-opacity="1" stop-color="rgb(0.0335693%, 27.954102%, 56.652832%)" offset="0.0078125"/><stop stop-opacity="1" stop-color="rgb(0.100708%, 28.250122%, 56.948853%)" offset="0.015625"/><stop stop-opacity="1" stop-color="rgb(0.167847%, 28.546143%, 57.244873%)" offset="0.0234375"/><stop stop-opacity="1" stop-color="rgb(0.234985%, 28.843689%, 57.540894%)" offset="0.03125"/><stop stop-opacity="1" stop-color="rgb(0.302124%, 29.139709%, 57.836914%)" offset="0.0390625"/><stop stop-opacity="1" stop-color="rgb(0.369263%, 29.437256%, 58.131409%)" offset="0.046875"/><stop stop-opacity="1" stop-color="rgb(0.436401%, 29.733276%, 58.427429%)" offset="0.0546875"/><stop stop-opacity="1" stop-color="rgb(0.50354%, 30.030823%, 58.72345%)" offset="0.0625"/><stop stop-opacity="1" stop-color="rgb(0.570679%, 30.326843%, 59.01947%)" offset="0.0703125"/><stop stop-opacity="1" stop-color="rgb(0.637817%, 30.62439%, 59.315491%)" offset="0.078125"/><stop stop-opacity="1" stop-color="rgb(0.704956%, 30.92041%, 59.611511%)" offset="0.0859375"/><stop stop-opacity="1" stop-color="rgb(0.772095%, 31.217957%, 59.907532%)" offset="0.09375"/><stop stop-opacity="1" stop-color="rgb(0.839233%, 31.513977%, 60.202026%)" offset="0.101563"/><stop stop-opacity="1" stop-color="rgb(0.906372%, 31.811523%, 60.498047%)" offset="0.109375"/><stop stop-opacity="1" stop-color="rgb(0.973511%, 32.107544%, 60.794067%)" offset="0.117188"/><stop stop-opacity="1" stop-color="rgb(1.040649%, 32.40509%, 61.090088%)" offset="0.125"/><stop stop-opacity="1" stop-color="rgb(1.107788%, 32.701111%, 61.386108%)" offset="0.132813"/><stop stop-opacity="1" stop-color="rgb(1.174927%, 32.998657%, 61.682129%)" offset="0.140625"/><stop stop-opacity="1" stop-color="rgb(1.242065%, 33.294678%, 61.978149%)" offset="0.148438"/><stop stop-opacity="1" stop-color="rgb(1.309204%, 33.590698%, 62.272644%)" offset="0.15625"/><stop stop-opacity="1" stop-color="rgb(1.376343%, 33.888245%, 62.568665%)" offset="0.164063"/><stop stop-opacity="1" stop-color="rgb(1.443481%, 34.184265%, 62.864685%)" offset="0.171875"/><stop stop-opacity="1" stop-color="rgb(1.51062%, 34.481812%, 63.160706%)" offset="0.179688"/><stop stop-opacity="1" stop-color="rgb(1.577759%, 34.777832%, 63.456726%)" offset="0.1875"/><stop stop-opacity="1" stop-color="rgb(1.644897%, 35.075378%, 63.752747%)" offset="0.195313"/><stop stop-opacity="1" stop-color="rgb(1.712036%, 35.371399%, 64.047241%)" offset="0.203125"/><stop stop-opacity="1" stop-color="rgb(1.779175%, 35.668945%, 64.343262%)" offset="0.210938"/><stop stop-opacity="1" stop-color="rgb(1.846313%, 35.964966%, 64.639282%)" offset="0.21875"/><stop stop-opacity="1" stop-color="rgb(1.913452%, 36.262512%, 64.935303%)" offset="0.226563"/><stop stop-opacity="1" stop-color="rgb(1.980591%, 36.558533%, 65.231323%)" offset="0.234375"/><stop stop-opacity="1" stop-color="rgb(2.047729%, 36.856079%, 65.527344%)" offset="0.242188"/><stop stop-opacity="1" stop-color="rgb(2.114868%, 37.1521%, 65.823364%)" offset="0.25"/><stop stop-opacity="1" stop-color="rgb(2.180481%, 37.449646%, 66.117859%)" offset="0.257813"/><stop stop-opacity="1" stop-color="rgb(2.24762%, 37.745667%, 66.413879%)" offset="0.265625"/><stop stop-opacity="1" stop-color="rgb(2.314758%, 38.041687%, 66.7099%)" offset="0.273438"/><stop stop-opacity="1" stop-color="rgb(2.381897%, 38.339233%, 67.00592%)" offset="0.28125"/><stop stop-opacity="1" stop-color="rgb(2.449036%, 38.635254%, 67.301941%)" offset="0.289063"/><stop stop-opacity="1" stop-color="rgb(2.516174%, 38.9328%, 67.597961%)" offset="0.296875"/><stop stop-opacity="1" stop-color="rgb(2.583313%, 39.228821%, 67.893982%)" offset="0.304688"/><stop stop-opacity="1" stop-color="rgb(2.650452%, 39.526367%, 68.188477%)" offset="0.3125"/><stop stop-opacity="1" stop-color="rgb(2.71759%, 39.822388%, 68.484497%)" offset="0.320313"/><stop stop-opacity="1" stop-color="rgb(2.784729%, 40.119934%, 68.780518%)" offset="0.328125"/><stop stop-opacity="1" stop-color="rgb(2.851868%, 40.415955%, 69.076538%)" offset="0.335938"/><stop stop-opacity="1" stop-color="rgb(2.919006%, 40.713501%, 69.372559%)" offset="0.34375"/><stop stop-opacity="1" stop-color="rgb(2.986145%, 41.009521%, 69.668579%)" offset="0.351563"/><stop stop-opacity="1" stop-color="rgb(3.053284%, 41.307068%, 69.963074%)" offset="0.359375"/><stop stop-opacity="1" stop-color="rgb(3.120422%, 41.603088%, 70.259094%)" offset="0.367188"/><stop stop-opacity="1" stop-color="rgb(3.187561%, 41.900635%, 70.555115%)" offset="0.372211"/><stop stop-opacity="1" stop-color="rgb(3.22113%, 42.048645%, 70.703125%)" offset="0.375"/><stop stop-opacity="1" stop-color="rgb(3.2547%, 42.196655%, 70.851135%)" offset="0.382813"/><stop stop-opacity="1" stop-color="rgb(3.321838%, 42.494202%, 71.147156%)" offset="0.390625"/><stop stop-opacity="1" stop-color="rgb(3.388977%, 42.790222%, 71.443176%)" offset="0.398438"/><stop stop-opacity="1" stop-color="rgb(3.456116%, 43.086243%, 71.739197%)" offset="0.40625"/><stop stop-opacity="1" stop-color="rgb(3.523254%, 43.383789%, 72.033691%)" offset="0.414062"/><stop stop-opacity="1" stop-color="rgb(3.590393%, 43.67981%, 72.329712%)" offset="0.421875"/><stop stop-opacity="1" stop-color="rgb(3.657532%, 43.977356%, 72.625732%)" offset="0.429687"/><stop stop-opacity="1" stop-color="rgb(3.72467%, 44.273376%, 72.921753%)" offset="0.4375"/><stop stop-opacity="1" stop-color="rgb(3.791809%, 44.570923%, 73.217773%)" offset="0.445313"/><stop stop-opacity="1" stop-color="rgb(3.858948%, 44.866943%, 73.513794%)" offset="0.453125"/><stop stop-opacity="1" stop-color="rgb(3.926086%, 45.16449%, 73.808289%)" offset="0.460938"/><stop stop-opacity="1" stop-color="rgb(3.993225%, 45.46051%, 74.104309%)" offset="0.46875"/><stop stop-opacity="1" stop-color="rgb(4.060364%, 45.758057%, 74.40033%)" offset="0.476562"/><stop stop-opacity="1" stop-color="rgb(4.127502%, 46.054077%, 74.69635%)" offset="0.484375"/><stop stop-opacity="1" stop-color="rgb(4.194641%, 46.351624%, 74.992371%)" offset="0.492187"/><stop stop-opacity="1" stop-color="rgb(4.26178%, 46.647644%, 75.288391%)" offset="0.5"/><stop stop-opacity="1" stop-color="rgb(4.328918%, 46.94519%, 75.584412%)" offset="0.507813"/><stop stop-opacity="1" stop-color="rgb(4.396057%, 47.241211%, 75.878906%)" offset="0.515625"/><stop stop-opacity="1" stop-color="rgb(4.463196%, 47.537231%, 76.174927%)" offset="0.523438"/><stop stop-opacity="1" stop-color="rgb(4.530334%, 47.834778%, 76.470947%)" offset="0.53125"/><stop stop-opacity="1" stop-color="rgb(4.597473%, 48.130798%, 76.766968%)" offset="0.539062"/><stop stop-opacity="1" stop-color="rgb(4.663086%, 48.428345%, 77.062988%)" offset="0.546875"/><stop stop-opacity="1" stop-color="rgb(4.730225%, 48.724365%, 77.359009%)" offset="0.554688"/><stop stop-opacity="1" stop-color="rgb(4.797363%, 49.021912%, 77.655029%)" offset="0.5625"/><stop stop-opacity="1" stop-color="rgb(4.864502%, 49.317932%, 77.949524%)" offset="0.570313"/><stop stop-opacity="1" stop-color="rgb(4.931641%, 49.615479%, 78.245544%)" offset="0.578125"/><stop stop-opacity="1" stop-color="rgb(4.998779%, 49.911499%, 78.541565%)" offset="0.585938"/><stop stop-opacity="1" stop-color="rgb(5.065918%, 50.209045%, 78.837585%)" offset="0.59375"/><stop stop-opacity="1" stop-color="rgb(5.133057%, 50.505066%, 79.133606%)" offset="0.601563"/><stop stop-opacity="1" stop-color="rgb(5.200195%, 50.802612%, 79.429626%)" offset="0.609375"/><stop stop-opacity="1" stop-color="rgb(5.267334%, 51.098633%, 79.724121%)" offset="0.617188"/><stop stop-opacity="1" stop-color="rgb(5.334473%, 51.396179%, 80.020142%)" offset="0.625"/><stop stop-opacity="1" stop-color="rgb(5.401611%, 51.6922%, 80.316162%)" offset="0.627789"/><stop stop-opacity="1" stop-color="rgb(5.435181%, 51.841736%, 80.464172%)" offset="0.632812"/><stop stop-opacity="1" stop-color="rgb(5.46875%, 51.989746%, 80.612183%)" offset="0.640625"/><stop stop-opacity="1" stop-color="rgb(5.535889%, 52.285767%, 80.908203%)" offset="0.648438"/><stop stop-opacity="1" stop-color="rgb(5.603027%, 52.581787%, 81.204224%)" offset="0.65625"/><stop stop-opacity="1" stop-color="rgb(5.670166%, 52.879333%, 81.500244%)" offset="0.664063"/><stop stop-opacity="1" stop-color="rgb(5.737305%, 53.175354%, 81.794739%)" offset="0.671875"/><stop stop-opacity="1" stop-color="rgb(5.804443%, 53.4729%, 82.090759%)" offset="0.679688"/><stop stop-opacity="1" stop-color="rgb(5.871582%, 53.768921%, 82.38678%)" offset="0.6875"/><stop stop-opacity="1" stop-color="rgb(5.938721%, 54.066467%, 82.6828%)" offset="0.695312"/><stop stop-opacity="1" stop-color="rgb(6.005859%, 54.362488%, 82.978821%)" offset="0.703125"/><stop stop-opacity="1" stop-color="rgb(6.072998%, 54.660034%, 83.274841%)" offset="0.710938"/><stop stop-opacity="1" stop-color="rgb(6.140137%, 54.956055%, 83.570862%)" offset="0.71875"/><stop stop-opacity="1" stop-color="rgb(6.207275%, 55.253601%, 83.865356%)" offset="0.726563"/><stop stop-opacity="1" stop-color="rgb(6.274414%, 55.549622%, 84.161377%)" offset="0.734375"/><stop stop-opacity="1" stop-color="rgb(6.341553%, 55.847168%, 84.457397%)" offset="0.742188"/><stop stop-opacity="1" stop-color="rgb(6.408691%, 56.143188%, 84.753418%)" offset="0.75"/><stop stop-opacity="1" stop-color="rgb(6.47583%, 56.440735%, 85.049438%)" offset="0.757812"/><stop stop-opacity="1" stop-color="rgb(6.542969%, 56.736755%, 85.345459%)" offset="0.765625"/><stop stop-opacity="1" stop-color="rgb(6.610107%, 57.032776%, 85.639954%)" offset="0.773438"/><stop stop-opacity="1" stop-color="rgb(6.677246%, 57.330322%, 85.935974%)" offset="0.78125"/><stop stop-opacity="1" stop-color="rgb(6.744385%, 57.626343%, 86.231995%)" offset="0.789063"/><stop stop-opacity="1" stop-color="rgb(6.811523%, 57.923889%, 86.528015%)" offset="0.796875"/><stop stop-opacity="1" stop-color="rgb(6.878662%, 58.21991%, 86.824036%)" offset="0.804688"/><stop stop-opacity="1" stop-color="rgb(6.945801%, 58.517456%, 87.120056%)" offset="0.8125"/><stop stop-opacity="1" stop-color="rgb(7.012939%, 58.813477%, 87.416077%)" offset="0.820312"/><stop stop-opacity="1" stop-color="rgb(7.072449%, 59.080505%, 87.68158%)" offset="0.828125"/><stop stop-opacity="1" stop-color="rgb(7.099915%, 59.199524%, 87.799072%)" offset="0.84375"/><stop stop-opacity="1" stop-color="rgb(7.099915%, 59.199524%, 87.799072%)" offset="0.875"/><stop stop-opacity="1" stop-color="rgb(7.099915%, 59.199524%, 87.799072%)" offset="1"/></linearGradient><clipPath id="3260c02f0b"><path d="M 91 27 L 114.441406 27 L 114.441406 38 L 91 38 Z M 91 27 " clip-rule="nonzero"/></clipPath></defs><g clip-path="url(#e7f7cdad57)"><path fill="#0067b0" d="M 79.726562 47.367188 L 100.269531 59.191406 L 114.441406 51.039062 L 114.441406 27.390625 L 71.691406 2.789062 L 53.960938 12.992188 L 96.710938 37.59375 Z M 79.726562 47.367188 " fill-opacity="1" fill-rule="evenodd"/></g><g clip-path="url(#243a71675c)"><g clip-path="url(#959cc65d64)"><path fill="url(#63658af307)" d="M 28.941406 27.390625 L 28.941406 125.789062 L 114.441406 125.789062 L 114.441406 27.390625 Z M 28.941406 27.390625 " fill-rule="nonzero"/></g></g><g clip-path="url(#3260c02f0b)"><path fill="#003780" d="M 96.710938 37.59375 L 114.441406 27.390625 L 91.273438 34.464844 Z M 96.710938 37.59375 " fill-opacity="1" fill-rule="evenodd"/></g><g fill="#ff00ff" fill-opacity="1"><g transform="translate(115.09775, 116.476793)"><g><path d="M 16.984375 -4.3125 L 7.15625 -4.3125 L 7.15625 -8.390625 L 15.421875 -8.390625 C 16.125 -8.390625 16.3125 -8.71875 16.3125 -9.28125 L 16.3125 -11.6875 C 16.3125 -12.234375 16.125 -12.578125 15.421875 -12.578125 L 7.15625 -12.578125 L 7.15625 -15.9375 L 16.46875 -15.9375 C 17.171875 -15.9375 17.359375 -16.28125 17.359375 -16.828125 L 17.359375 -19.390625 C 17.359375 -19.953125 17.171875 -20.28125 16.46875 -20.28125 L 3.171875 -20.28125 C 2.46875 -20.28125 2.28125 -19.953125 2.28125 -19.390625 L 2.28125 -0.890625 C 2.28125 -0.34375 2.46875 0 3.171875 0 L 16.984375 0 C 17.703125 0 17.875 -0.34375 17.875 -0.890625 L 17.875 -3.421875 C 17.875 -3.984375 17.703125 -4.3125 16.984375 -4.3125 Z M 16.984375 -4.3125 "/></g></g></g><g fill="#ff00ff" fill-opacity="1"><g transform="translate(134.427389, 116.476793)"><g><path d="M 16 -20.28125 L 1.703125 -20.28125 C 0.984375 -20.28125 0.796875 -19.953125 0.796875 -19.390625 L 0.796875 -16.828125 C 0.796875 -16.28125 0.984375 -15.9375 1.703125 -15.9375 L 6.4375 -15.9375 L 6.4375 -0.890625 C 6.4375 -0.1875 6.78125 0 7.34375 0 L 10.390625 0 C 10.9375 0 11.28125 -0.1875 11.28125 -0.890625 L 11.28125 -15.9375 L 16 -15.9375 C 16.703125 -15.9375 16.890625 -16.28125 16.890625 -16.828125 L 16.890625 -19.390625 C 16.890625 -19.953125 16.703125 -20.28125 16 -20.28125 Z M 16 -20.28125 "/></g></g></g><g fill="#ff00ff" fill-opacity="1"><g transform="translate(152.123106, 116.476793)"><g><path d="M 19.734375 -0.859375 L 12.921875 -19.328125 C 12.640625 -19.984375 12.328125 -20.28125 11.65625 -20.28125 L 8.6875 -20.28125 C 8.015625 -20.28125 7.671875 -19.984375 7.421875 -19.328125 L 0.578125 -0.859375 C 0.4375 -0.5 0.4375 0 1.109375 0 L 4.34375 0 C 5.03125 0 5.265625 -0.1875 5.515625 -0.921875 L 6.375 -3.359375 L 13.9375 -3.359375 L 14.796875 -0.921875 C 15.046875 -0.1875 15.296875 0 15.96875 0 L 19.203125 0 C 19.890625 0 19.890625 -0.5 19.734375 -0.859375 Z M 10.171875 -14.484375 L 12.484375 -7.671875 L 7.859375 -7.671875 Z M 10.171875 -14.484375 "/></g></g></g><g fill="#ff00ff" fill-opacity="1"><g transform="translate(172.315949, 116.476793)"><g/></g></g><g fill="#ff00ff" fill-opacity="1"><g transform="translate(180.670544, 116.476793)"><g><path d="M 16.734375 -10.515625 C 17.015625 -10.640625 18.984375 -11.625 18.984375 -14.734375 C 18.984375 -17.640625 16.828125 -20.3125 11.8125 -20.3125 L 3.171875 -20.3125 C 2.46875 -20.3125 2.28125 -19.984375 2.28125 -19.421875 L 2.28125 -0.890625 C 2.28125 -0.34375 2.46875 0 3.171875 0 L 12.234375 0 C 16.53125 0 19.578125 -2 19.578125 -5.921875 C 19.578125 -9.25 16.984375 -10.421875 16.734375 -10.515625 Z M 12.296875 -4.375 L 7.125 -4.375 L 7.125 -15.96875 L 11.8125 -15.96875 C 13.40625 -15.96875 14.359375 -15.625 14.359375 -14.25 C 14.359375 -13.046875 13.59375 -12.390625 11.8125 -12.390625 L 11.40625 -12.390625 C 10.703125 -12.390625 10.515625 -12.046875 10.515625 -11.5 L 10.515625 -9.15625 C 10.515625 -8.59375 10.703125 -8.265625 11.40625 -8.265625 L 12.109375 -8.265625 C 13.59375 -8.265625 14.671875 -7.828125 14.671875 -6.375 C 14.671875 -5 13.8125 -4.375 12.296875 -4.375 Z M 12.296875 -4.375 "/></g></g></g><g fill="#ff00ff" fill-opacity="1"><g transform="translate(201.849908, 116.476793)"><g><path d="M 18.21875 -6.5 L 18.21875 -13.78125 C 18.21875 -18.65625 13.59375 -20.75 9.921875 -20.75 C 6.265625 -20.75 1.703125 -18.65625 1.703125 -13.78125 L 1.703125 -6.5 C 1.703125 -1.640625 6.265625 0.46875 9.921875 0.46875 C 13.59375 0.46875 18.21875 -1.640625 18.21875 -6.5 Z M 13.375 -13.34375 L 13.375 -6.9375 C 13.375 -4.96875 11.96875 -3.828125 9.921875 -3.828125 C 7.921875 -3.828125 6.5 -4.96875 6.5 -6.9375 L 6.5 -13.34375 C 6.5 -15.328125 7.921875 -16.46875 9.921875 -16.46875 C 11.96875 -16.46875 13.375 -15.328125 13.375 -13.34375 Z M 13.375 -13.34375 "/></g></g></g><g fill="#ff00ff" fill-opacity="1"><g transform="translate(221.734462, 116.476793)"><g><path d="M 16 -20.28125 L 1.703125 -20.28125 C 0.984375 -20.28125 0.796875 -19.953125 0.796875 -19.390625 L 0.796875 -16.828125 C 0.796875 -16.28125 0.984375 -15.9375 1.703125 -15.9375 L 6.4375 -15.9375 L 6.4375 -0.890625 C 6.4375 -0.1875 6.78125 0 7.34375 0 L 10.390625 0 C 10.9375 0 11.28125 -0.1875 11.28125 -0.890625 L 11.28125 -15.9375 L 16 -15.9375 C 16.703125 -15.9375 16.890625 -16.28125 16.890625 -16.828125 L 16.890625 -19.390625 C 16.890625 -19.953125 16.703125 -20.28125 16 -20.28125 Z M 16 -20.28125 "/></g></g></g><g fill="#00ffff" fill-opacity="1"><g transform="translate(113.860828, 118.004259)"><g><path d="M 16.984375 -4.3125 L 7.15625 -4.3125 L 7.15625 -8.390625 L 15.421875 -8.390625 C 16.125 -8.390625 16.3125 -8.71875 16.3125 -9.28125 L 16.3125 -11.6875 C 16.3125 -12.234375 16.125 -12.578125 15.421875 -12.578125 L 7.15625 -12.578125 L 7.15625 -15.9375 L 16.46875 -15.9375 C 17.171875 -15.9375 17.359375 -16.28125 17.359375 -16.828125 L 17.359375 -19.390625 C 17.359375 -19.953125 17.171875 -20.28125 16.46875 -20.28125 L 3.171875 -20.28125 C 2.46875 -20.28125 2.28125 -19.953125 2.28125 -19.390625 L 2.28125 -0.890625 C 2.28125 -0.34375 2.46875 0 3.171875 0 L 16.984375 0 C 17.703125 0 17.875 -0.34375 17.875 -0.890625 L 17.875 -3.421875 C 17.875 -3.984375 17.703125 -4.3125 16.984375 -4.3125 Z M 16.984375 -4.3125 "/></g></g></g><g fill="#00ffff" fill-opacity="1"><g transform="translate(133.190467, 118.004259)"><g><path d="M 16 -20.28125 L 1.703125 -20.28125 C 0.984375 -20.28125 0.796875 -19.953125 0.796875 -19.390625 L 0.796875 -16.828125 C 0.796875 -16.28125 0.984375 -15.9375 1.703125 -15.9375 L 6.4375 -15.9375 L 6.4375 -0.890625 C 6.4375 -0.1875 6.78125 0 7.34375 0 L 10.390625 0 C 10.9375 0 11.28125 -0.1875 11.28125 -0.890625 L 11.28125 -15.9375 L 16 -15.9375 C 16.703125 -15.9375 16.890625 -16.28125 16.890625 -16.828125 L 16.890625 -19.390625 C 16.890625 -19.953125 16.703125 -20.28125 16 -20.28125 Z M 16 -20.28125 "/></g></g></g><g fill="#00ffff" fill-opacity="1"><g transform="translate(150.886185, 118.004259)"><g><path d="M 19.734375 -0.859375 L 12.921875 -19.328125 C 12.640625 -19.984375 12.328125 -20.28125 11.65625 -20.28125 L 8.6875 -20.28125 C 8.015625 -20.28125 7.671875 -19.984375 7.421875 -19.328125 L 0.578125 -0.859375 C 0.4375 -0.5 0.4375 0 1.109375 0 L 4.34375 0 C 5.03125 0 5.265625 -0.1875 5.515625 -0.921875 L 6.375 -3.359375 L 13.9375 -3.359375 L 14.796875 -0.921875 C 15.046875 -0.1875 15.296875 0 15.96875 0 L 19.203125 0 C 19.890625 0 19.890625 -0.5 19.734375 -0.859375 Z M 10.171875 -14.484375 L 12.484375 -7.671875 L 7.859375 -7.671875 Z M 10.171875 -14.484375 "/></g></g></g><g fill="#00ffff" fill-opacity="1"><g transform="translate(171.079028, 118.004259)"><g/></g></g><g fill="#00ffff" fill-opacity="1"><g transform="translate(179.433622, 118.004259)"><g><path d="M 16.734375 -10.515625 C 17.015625 -10.640625 18.984375 -11.625 18.984375 -14.734375 C 18.984375 -17.640625 16.828125 -20.3125 11.8125 -20.3125 L 3.171875 -20.3125 C 2.46875 -20.3125 2.28125 -19.984375 2.28125 -19.421875 L 2.28125 -0.890625 C 2.28125 -0.34375 2.46875 0 3.171875 0 L 12.234375 0 C 16.53125 0 19.578125 -2 19.578125 -5.921875 C 19.578125 -9.25 16.984375 -10.421875 16.734375 -10.515625 Z M 12.296875 -4.375 L 7.125 -4.375 L 7.125 -15.96875 L 11.8125 -15.96875 C 13.40625 -15.96875 14.359375 -15.625 14.359375 -14.25 C 14.359375 -13.046875 13.59375 -12.390625 11.8125 -12.390625 L 11.40625 -12.390625 C 10.703125 -12.390625 10.515625 -12.046875 10.515625 -11.5 L 10.515625 -9.15625 C 10.515625 -8.59375 10.703125 -8.265625 11.40625 -8.265625 L 12.109375 -8.265625 C 13.59375 -8.265625 14.671875 -7.828125 14.671875 -6.375 C 14.671875 -5 13.8125 -4.375 12.296875 -4.375 Z M 12.296875 -4.375 "/></g></g></g><g fill="#00ffff" fill-opacity="1"><g transform="translate(200.612986, 118.004259)"><g><path d="M 18.21875 -6.5 L 18.21875 -13.78125 C 18.21875 -18.65625 13.59375 -20.75 9.921875 -20.75 C 6.265625 -20.75 1.703125 -18.65625 1.703125 -13.78125 L 1.703125 -6.5 C 1.703125 -1.640625 6.265625 0.46875 9.921875 0.46875 C 13.59375 0.46875 18.21875 -1.640625 18.21875 -6.5 Z M 13.375 -13.34375 L 13.375 -6.9375 C 13.375 -4.96875 11.96875 -3.828125 9.921875 -3.828125 C 7.921875 -3.828125 6.5 -4.96875 6.5 -6.9375 L 6.5 -13.34375 C 6.5 -15.328125 7.921875 -16.46875 9.921875 -16.46875 C 11.96875 -16.46875 13.375 -15.328125 13.375 -13.34375 Z M 13.375 -13.34375 "/></g></g></g><g fill="#00ffff" fill-opacity="1"><g transform="translate(220.497541, 118.004259)"><g><path d="M 16 -20.28125 L 1.703125 -20.28125 C 0.984375 -20.28125 0.796875 -19.953125 0.796875 -19.390625 L 0.796875 -16.828125 C 0.796875 -16.28125 0.984375 -15.9375 1.703125 -15.9375 L 6.4375 -15.9375 L 6.4375 -0.890625 C 6.4375 -0.1875 6.78125 0 7.34375 0 L 10.390625 0 C 10.9375 0 11.28125 -0.1875 11.28125 -0.890625 L 11.28125 -15.9375 L 16 -15.9375 C 16.703125 -15.9375 16.890625 -16.28125 16.890625 -16.828125 L 16.890625 -19.390625 C 16.890625 -19.953125 16.703125 -20.28125 16 -20.28125 Z M 16 -20.28125 "/></g></g></g><g fill="#ffffff" fill-opacity="1"><g transform="translate(114.479289, 117.240526)"><g><path d="M 16.984375 -4.3125 L 7.15625 -4.3125 L 7.15625 -8.390625 L 15.421875 -8.390625 C 16.125 -8.390625 16.3125 -8.71875 16.3125 -9.28125 L 16.3125 -11.6875 C 16.3125 -12.234375 16.125 -12.578125 15.421875 -12.578125 L 7.15625 -12.578125 L 7.15625 -15.9375 L 16.46875 -15.9375 C 17.171875 -15.9375 17.359375 -16.28125 17.359375 -16.828125 L 17.359375 -19.390625 C 17.359375 -19.953125 17.171875 -20.28125 16.46875 -20.28125 L 3.171875 -20.28125 C 2.46875 -20.28125 2.28125 -19.953125 2.28125 -19.390625 L 2.28125 -0.890625 C 2.28125 -0.34375 2.46875 0 3.171875 0 L 16.984375 0 C 17.703125 0 17.875 -0.34375 17.875 -0.890625 L 17.875 -3.421875 C 17.875 -3.984375 17.703125 -4.3125 16.984375 -4.3125 Z M 16.984375 -4.3125 "/></g></g></g><g fill="#ffffff" fill-opacity="1"><g transform="translate(133.808928, 117.240526)"><g><path d="M 16 -20.28125 L 1.703125 -20.28125 C 0.984375 -20.28125 0.796875 -19.953125 0.796875 -19.390625 L 0.796875 -16.828125 C 0.796875 -16.28125 0.984375 -15.9375 1.703125 -15.9375 L 6.4375 -15.9375 L 6.4375 -0.890625 C 6.4375 -0.1875 6.78125 0 7.34375 0 L 10.390625 0 C 10.9375 0 11.28125 -0.1875 11.28125 -0.890625 L 11.28125 -15.9375 L 16 -15.9375 C 16.703125 -15.9375 16.890625 -16.28125 16.890625 -16.828125 L 16.890625 -19.390625 C 16.890625 -19.953125 16.703125 -20.28125 16 -20.28125 Z M 16 -20.28125 "/></g></g></g><g fill="#ffffff" fill-opacity="1"><g transform="translate(151.504646, 117.240526)"><g><path d="M 19.734375 -0.859375 L 12.921875 -19.328125 C 12.640625 -19.984375 12.328125 -20.28125 11.65625 -20.28125 L 8.6875 -20.28125 C 8.015625 -20.28125 7.671875 -19.984375 7.421875 -19.328125 L 0.578125 -0.859375 C 0.4375 -0.5 0.4375 0 1.109375 0 L 4.34375 0 C 5.03125 0 5.265625 -0.1875 5.515625 -0.921875 L 6.375 -3.359375 L 13.9375 -3.359375 L 14.796875 -0.921875 C 15.046875 -0.1875 15.296875 0 15.96875 0 L 19.203125 0 C 19.890625 0 19.890625 -0.5 19.734375 -0.859375 Z M 10.171875 -14.484375 L 12.484375 -7.671875 L 7.859375 -7.671875 Z M 10.171875 -14.484375 "/></g></g></g><g fill="#ffffff" fill-opacity="1"><g transform="translate(171.697489, 117.240526)"><g/></g></g><g fill="#ffffff" fill-opacity="1"><g transform="translate(180.052083, 117.240526)"><g><path d="M 16.734375 -10.515625 C 17.015625 -10.640625 18.984375 -11.625 18.984375 -14.734375 C 18.984375 -17.640625 16.828125 -20.3125 11.8125 -20.3125 L 3.171875 -20.3125 C 2.46875 -20.3125 2.28125 -19.984375 2.28125 -19.421875 L 2.28125 -0.890625 C 2.28125 -0.34375 2.46875 0 3.171875 0 L 12.234375 0 C 16.53125 0 19.578125 -2 19.578125 -5.921875 C 19.578125 -9.25 16.984375 -10.421875 16.734375 -10.515625 Z M 12.296875 -4.375 L 7.125 -4.375 L 7.125 -15.96875 L 11.8125 -15.96875 C 13.40625 -15.96875 14.359375 -15.625 14.359375 -14.25 C 14.359375 -13.046875 13.59375 -12.390625 11.8125 -12.390625 L 11.40625 -12.390625 C 10.703125 -12.390625 10.515625 -12.046875 10.515625 -11.5 L 10.515625 -9.15625 C 10.515625 -8.59375 10.703125 -8.265625 11.40625 -8.265625 L 12.109375 -8.265625 C 13.59375 -8.265625 14.671875 -7.828125 14.671875 -6.375 C 14.671875 -5 13.8125 -4.375 12.296875 -4.375 Z M 12.296875 -4.375 "/></g></g></g><g fill="#ffffff" fill-opacity="1"><g transform="translate(201.231447, 117.240526)"><g><path d="M 18.21875 -6.5 L 18.21875 -13.78125 C 18.21875 -18.65625 13.59375 -20.75 9.921875 -20.75 C 6.265625 -20.75 1.703125 -18.65625 1.703125 -13.78125 L 1.703125 -6.5 C 1.703125 -1.640625 6.265625 0.46875 9.921875 0.46875 C 13.59375 0.46875 18.21875 -1.640625 18.21875 -6.5 Z M 13.375 -13.34375 L 13.375 -6.9375 C 13.375 -4.96875 11.96875 -3.828125 9.921875 -3.828125 C 7.921875 -3.828125 6.5 -4.96875 6.5 -6.9375 L 6.5 -13.34375 C 6.5 -15.328125 7.921875 -16.46875 9.921875 -16.46875 C 11.96875 -16.46875 13.375 -15.328125 13.375 -13.34375 Z M 13.375 -13.34375 "/></g></g></g><g fill="#ffffff" fill-opacity="1"><g transform="translate(221.116002, 117.240526)"><g><path d="M 16 -20.28125 L 1.703125 -20.28125 C 0.984375 -20.28125 0.796875 -19.953125 0.796875 -19.390625 L 0.796875 -16.828125 C 0.796875 -16.28125 0.984375 -15.9375 1.703125 -15.9375 L 6.4375 -15.9375 L 6.4375 -0.890625 C 6.4375 -0.1875 6.78125 0 7.34375 0 L 10.390625 0 C 10.9375 0 11.28125 -0.1875 11.28125 -0.890625 L 11.28125 -15.9375 L 16 -15.9375 C 16.703125 -15.9375 16.890625 -16.28125 16.890625 -16.828125 L 16.890625 -19.390625 C 16.890625 -19.953125 16.703125 -20.28125 16 -20.28125 Z M 16 -20.28125 "/></g></g></g><g fill="#ff00ff" fill-opacity="1"><g transform="translate(185.385078, 94.60463)"><g><path d="M 6.5 -8.015625 L 1.25 -8.015625 C 0.96875 -8.015625 0.90625 -7.890625 0.90625 -7.671875 L 0.90625 -0.359375 C 0.90625 -0.140625 0.96875 0 1.25 0 L 2.46875 0 C 2.734375 0 2.8125 -0.046875 2.8125 -0.359375 L 2.8125 -3.21875 L 5.984375 -3.21875 C 6.265625 -3.21875 6.34375 -3.34375 6.34375 -3.578125 L 6.34375 -4.53125 C 6.34375 -4.75 6.265625 -4.890625 5.984375 -4.890625 L 2.8125 -4.890625 L 2.8125 -6.3125 L 6.5 -6.3125 C 6.78125 -6.3125 6.84375 -6.453125 6.84375 -6.671875 L 6.84375 -7.671875 C 6.84375 -7.890625 6.78125 -8.015625 6.5 -8.015625 Z M 6.5 -8.015625 "/></g></g></g><g fill="#ff00ff" fill-opacity="1"><g transform="translate(192.718425, 94.60463)"><g><path d="M 6.890625 -8.015625 L 5.6875 -8.015625 C 5.46875 -8.015625 5.34375 -7.953125 5.34375 -7.671875 L 5.34375 -2.71875 C 5.34375 -1.953125 4.828125 -1.515625 4.015625 -1.515625 C 3.21875 -1.515625 2.71875 -1.953125 2.71875 -2.71875 L 2.71875 -7.671875 C 2.71875 -7.953125 2.578125 -8.015625 2.359375 -8.015625 L 1.15625 -8.015625 C 0.9375 -8.015625 0.796875 -7.953125 0.796875 -7.671875 L 0.796875 -2.453125 C 0.796875 -0.53125 2.578125 0.1875 4.015625 0.1875 C 5.46875 0.1875 7.25 -0.53125 7.25 -2.453125 L 7.25 -7.671875 C 7.25 -7.953125 7.125 -8.015625 6.890625 -8.015625 Z M 6.890625 -8.015625 "/></g></g></g><g fill="#ff00ff" fill-opacity="1"><g transform="translate(200.770485, 94.60463)"><g><path d="M 6.328125 -8.015625 L 0.671875 -8.015625 C 0.390625 -8.015625 0.3125 -7.890625 0.3125 -7.671875 L 0.3125 -6.65625 C 0.3125 -6.4375 0.390625 -6.296875 0.671875 -6.296875 L 2.546875 -6.296875 L 2.546875 -0.359375 C 2.546875 -0.078125 2.6875 0 2.90625 0 L 4.109375 0 C 4.328125 0 4.453125 -0.078125 4.453125 -0.359375 L 4.453125 -6.296875 L 6.328125 -6.296875 C 6.609375 -6.296875 6.671875 -6.4375 6.671875 -6.65625 L 6.671875 -7.671875 C 6.671875 -7.890625 6.609375 -8.015625 6.328125 -8.015625 Z M 6.328125 -8.015625 "/></g></g></g><g fill="#ff00ff" fill-opacity="1"><g transform="translate(207.762748, 94.60463)"><g><path d="M 6.890625 -8.015625 L 5.6875 -8.015625 C 5.46875 -8.015625 5.34375 -7.953125 5.34375 -7.671875 L 5.34375 -2.71875 C 5.34375 -1.953125 4.828125 -1.515625 4.015625 -1.515625 C 3.21875 -1.515625 2.71875 -1.953125 2.71875 -2.71875 L 2.71875 -7.671875 C 2.71875 -7.953125 2.578125 -8.015625 2.359375 -8.015625 L 1.15625 -8.015625 C 0.9375 -8.015625 0.796875 -7.953125 0.796875 -7.671875 L 0.796875 -2.453125 C 0.796875 -0.53125 2.578125 0.1875 4.015625 0.1875 C 5.46875 0.1875 7.25 -0.53125 7.25 -2.453125 L 7.25 -7.671875 C 7.25 -7.953125 7.125 -8.015625 6.890625 -8.015625 Z M 6.890625 -8.015625 "/></g></g></g><g fill="#ff00ff" fill-opacity="1"><g transform="translate(215.814807, 94.60463)"><g><path d="M 7.46875 -0.390625 L 5.75 -2.890625 C 6.515625 -3.140625 7.453125 -4.03125 7.453125 -5.3125 C 7.453125 -6.09375 7.1875 -6.78125 6.734375 -7.234375 C 6.234375 -7.734375 5.640625 -8 4.3125 -8 L 1.25 -8 C 0.96875 -8 0.90625 -7.875 0.90625 -7.65625 L 0.90625 -0.359375 C 0.90625 -0.078125 1.03125 0 1.25 0 L 2.453125 0 C 2.671875 0 2.796875 -0.078125 2.796875 -0.359375 L 2.796875 -6.296875 L 4.421875 -6.296875 C 5.0625 -6.296875 5.546875 -5.90625 5.546875 -5.265625 C 5.546875 -4.6875 4.984375 -4.28125 4.390625 -4.28125 L 4.140625 -4.28125 C 3.859375 -4.28125 3.796875 -4.140625 3.796875 -3.921875 L 3.796875 -2.953125 C 3.796875 -2.609375 3.8125 -2.46875 3.921875 -2.328125 L 5.234375 -0.359375 C 5.40625 -0.109375 5.5625 0 5.84375 0 L 7.28125 0 C 7.515625 0 7.578125 -0.21875 7.46875 -0.390625 Z M 7.46875 -0.390625 "/></g></g></g><g fill="#ff00ff" fill-opacity="1"><g transform="translate(223.927779, 94.60463)"><g><path d="M 7.203125 -2.578125 L 7.203125 -5.453125 C 7.203125 -7.375 5.375 -8.203125 3.921875 -8.203125 C 2.46875 -8.203125 0.671875 -7.375 0.671875 -5.453125 L 0.671875 -2.578125 C 0.671875 -0.640625 2.46875 0.1875 3.921875 0.1875 C 5.375 0.1875 7.203125 -0.640625 7.203125 -2.578125 Z M 5.296875 -5.28125 L 5.296875 -2.734375 C 5.296875 -1.96875 4.734375 -1.515625 3.921875 -1.515625 C 3.125 -1.515625 2.578125 -1.96875 2.578125 -2.734375 L 2.578125 -5.28125 C 2.578125 -6.0625 3.125 -6.515625 3.921875 -6.515625 C 4.734375 -6.515625 5.296875 -6.0625 5.296875 -5.28125 Z M 5.296875 -5.28125 "/></g></g></g><g fill="#ff00ff" fill-opacity="1"><g transform="translate(231.784938, 94.60463)"><g><path d="M 4.6875 -4.65625 C 4.1875 -4.84375 2.40625 -5.125 2.40625 -5.859375 C 2.40625 -6.40625 3.078125 -6.5625 3.46875 -6.5625 C 3.84375 -6.5625 4.28125 -6.453125 4.515625 -6.234375 C 4.65625 -6.09375 4.71875 -6 4.765625 -5.875 C 4.828125 -5.71875 4.859375 -5.546875 5.09375 -5.546875 L 6.28125 -5.546875 C 6.5625 -5.546875 6.640625 -5.59375 6.640625 -5.890625 C 6.640625 -7.5 4.953125 -8.203125 3.40625 -8.203125 C 1.875 -8.140625 0.4375 -7.359375 0.4375 -5.78125 C 0.4375 -4.234375 1.578125 -3.734375 2.796875 -3.34375 C 3.84375 -3.015625 4.921875 -3.015625 4.921875 -2.328125 C 4.921875 -1.640625 4.390625 -1.5 3.734375 -1.5 C 3.28125 -1.5 2.78125 -1.609375 2.53125 -1.90625 C 2.375 -2.078125 2.3125 -2.25 2.296875 -2.40625 C 2.28125 -2.703125 2.140625 -2.734375 1.859375 -2.734375 L 0.6875 -2.734375 C 0.40625 -2.734375 0.328125 -2.6875 0.328125 -2.40625 C 0.328125 -0.6875 2.078125 0.1875 3.609375 0.1875 C 5.484375 0.1875 6.84375 -0.640625 6.84375 -2.375 C 6.84375 -4.03125 5.5625 -4.390625 4.6875 -4.65625 Z M 4.6875 -4.65625 "/></g></g></g><g fill="#00ffff" fill-opacity="1"><g transform="translate(184.896364, 95.208146)"><g><path d="M 6.5 -8.015625 L 1.25 -8.015625 C 0.96875 -8.015625 0.90625 -7.890625 0.90625 -7.671875 L 0.90625 -0.359375 C 0.90625 -0.140625 0.96875 0 1.25 0 L 2.46875 0 C 2.734375 0 2.8125 -0.046875 2.8125 -0.359375 L 2.8125 -3.21875 L 5.984375 -3.21875 C 6.265625 -3.21875 6.34375 -3.34375 6.34375 -3.578125 L 6.34375 -4.53125 C 6.34375 -4.75 6.265625 -4.890625 5.984375 -4.890625 L 2.8125 -4.890625 L 2.8125 -6.3125 L 6.5 -6.3125 C 6.78125 -6.3125 6.84375 -6.453125 6.84375 -6.671875 L 6.84375 -7.671875 C 6.84375 -7.890625 6.78125 -8.015625 6.5 -8.015625 Z M 6.5 -8.015625 "/></g></g></g><g fill="#00ffff" fill-opacity="1"><g transform="translate(192.229711, 95.208146)"><g><path d="M 6.890625 -8.015625 L 5.6875 -8.015625 C 5.46875 -8.015625 5.34375 -7.953125 5.34375 -7.671875 L 5.34375 -2.71875 C 5.34375 -1.953125 4.828125 -1.515625 4.015625 -1.515625 C 3.21875 -1.515625 2.71875 -1.953125 2.71875 -2.71875 L 2.71875 -7.671875 C 2.71875 -7.953125 2.578125 -8.015625 2.359375 -8.015625 L 1.15625 -8.015625 C 0.9375 -8.015625 0.796875 -7.953125 0.796875 -7.671875 L 0.796875 -2.453125 C 0.796875 -0.53125 2.578125 0.1875 4.015625 0.1875 C 5.46875 0.1875 7.25 -0.53125 7.25 -2.453125 L 7.25 -7.671875 C 7.25 -7.953125 7.125 -8.015625 6.890625 -8.015625 Z M 6.890625 -8.015625 "/></g></g></g><g fill="#00ffff" fill-opacity="1"><g transform="translate(200.281771, 95.208146)"><g><path d="M 6.328125 -8.015625 L 0.671875 -8.015625 C 0.390625 -8.015625 0.3125 -7.890625 0.3125 -7.671875 L 0.3125 -6.65625 C 0.3125 -6.4375 0.390625 -6.296875 0.671875 -6.296875 L 2.546875 -6.296875 L 2.546875 -0.359375 C 2.546875 -0.078125 2.6875 0 2.90625 0 L 4.109375 0 C 4.328125 0 4.453125 -0.078125 4.453125 -0.359375 L 4.453125 -6.296875 L 6.328125 -6.296875 C 6.609375 -6.296875 6.671875 -6.4375 6.671875 -6.65625 L 6.671875 -7.671875 C 6.671875 -7.890625 6.609375 -8.015625 6.328125 -8.015625 Z M 6.328125 -8.015625 "/></g></g></g><g fill="#00ffff" fill-opacity="1"><g transform="translate(207.274033, 95.208146)"><g><path d="M 6.890625 -8.015625 L 5.6875 -8.015625 C 5.46875 -8.015625 5.34375 -7.953125 5.34375 -7.671875 L 5.34375 -2.71875 C 5.34375 -1.953125 4.828125 -1.515625 4.015625 -1.515625 C 3.21875 -1.515625 2.71875 -1.953125 2.71875 -2.71875 L 2.71875 -7.671875 C 2.71875 -7.953125 2.578125 -8.015625 2.359375 -8.015625 L 1.15625 -8.015625 C 0.9375 -8.015625 0.796875 -7.953125 0.796875 -7.671875 L 0.796875 -2.453125 C 0.796875 -0.53125 2.578125 0.1875 4.015625 0.1875 C 5.46875 0.1875 7.25 -0.53125 7.25 -2.453125 L 7.25 -7.671875 C 7.25 -7.953125 7.125 -8.015625 6.890625 -8.015625 Z M 6.890625 -8.015625 "/></g></g></g><g fill="#00ffff" fill-opacity="1"><g transform="translate(215.326093, 95.208146)"><g><path d="M 7.46875 -0.390625 L 5.75 -2.890625 C 6.515625 -3.140625 7.453125 -4.03125 7.453125 -5.3125 C 7.453125 -6.09375 7.1875 -6.78125 6.734375 -7.234375 C 6.234375 -7.734375 5.640625 -8 4.3125 -8 L 1.25 -8 C 0.96875 -8 0.90625 -7.875 0.90625 -7.65625 L 0.90625 -0.359375 C 0.90625 -0.078125 1.03125 0 1.25 0 L 2.453125 0 C 2.671875 0 2.796875 -0.078125 2.796875 -0.359375 L 2.796875 -6.296875 L 4.421875 -6.296875 C 5.0625 -6.296875 5.546875 -5.90625 5.546875 -5.265625 C 5.546875 -4.6875 4.984375 -4.28125 4.390625 -4.28125 L 4.140625 -4.28125 C 3.859375 -4.28125 3.796875 -4.140625 3.796875 -3.921875 L 3.796875 -2.953125 C 3.796875 -2.609375 3.8125 -2.46875 3.921875 -2.328125 L 5.234375 -0.359375 C 5.40625 -0.109375 5.5625 0 5.84375 0 L 7.28125 0 C 7.515625 0 7.578125 -0.21875 7.46875 -0.390625 Z M 7.46875 -0.390625 "/></g></g></g><g fill="#00ffff" fill-opacity="1"><g transform="translate(223.439065, 95.208146)"><g><path d="M 7.203125 -2.578125 L 7.203125 -5.453125 C 7.203125 -7.375 5.375 -8.203125 3.921875 -8.203125 C 2.46875 -8.203125 0.671875 -7.375 0.671875 -5.453125 L 0.671875 -2.578125 C 0.671875 -0.640625 2.46875 0.1875 3.921875 0.1875 C 5.375 0.1875 7.203125 -0.640625 7.203125 -2.578125 Z M 5.296875 -5.28125 L 5.296875 -2.734375 C 5.296875 -1.96875 4.734375 -1.515625 3.921875 -1.515625 C 3.125 -1.515625 2.578125 -1.96875 2.578125 -2.734375 L 2.578125 -5.28125 C 2.578125 -6.0625 3.125 -6.515625 3.921875 -6.515625 C 4.734375 -6.515625 5.296875 -6.0625 5.296875 -5.28125 Z M 5.296875 -5.28125 "/></g></g></g><g fill="#00ffff" fill-opacity="1"><g transform="translate(231.296223, 95.208146)"><g><path d="M 4.6875 -4.65625 C 4.1875 -4.84375 2.40625 -5.125 2.40625 -5.859375 C 2.40625 -6.40625 3.078125 -6.5625 3.46875 -6.5625 C 3.84375 -6.5625 4.28125 -6.453125 4.515625 -6.234375 C 4.65625 -6.09375 4.71875 -6 4.765625 -5.875 C 4.828125 -5.71875 4.859375 -5.546875 5.09375 -5.546875 L 6.28125 -5.546875 C 6.5625 -5.546875 6.640625 -5.59375 6.640625 -5.890625 C 6.640625 -7.5 4.953125 -8.203125 3.40625 -8.203125 C 1.875 -8.140625 0.4375 -7.359375 0.4375 -5.78125 C 0.4375 -4.234375 1.578125 -3.734375 2.796875 -3.34375 C 3.84375 -3.015625 4.921875 -3.015625 4.921875 -2.328125 C 4.921875 -1.640625 4.390625 -1.5 3.734375 -1.5 C 3.28125 -1.5 2.78125 -1.609375 2.53125 -1.90625 C 2.375 -2.078125 2.3125 -2.25 2.296875 -2.40625 C 2.28125 -2.703125 2.140625 -2.734375 1.859375 -2.734375 L 0.6875 -2.734375 C 0.40625 -2.734375 0.328125 -2.6875 0.328125 -2.40625 C 0.328125 -0.6875 2.078125 0.1875 3.609375 0.1875 C 5.484375 0.1875 6.84375 -0.640625 6.84375 -2.375 C 6.84375 -4.03125 5.5625 -4.390625 4.6875 -4.65625 Z M 4.6875 -4.65625 "/></g></g></g><g fill="#ffffff" fill-opacity="1"><g transform="translate(185.140719, 94.906387)"><g><path d="M 6.5 -8.015625 L 1.25 -8.015625 C 0.96875 -8.015625 0.90625 -7.890625 0.90625 -7.671875 L 0.90625 -0.359375 C 0.90625 -0.140625 0.96875 0 1.25 0 L 2.46875 0 C 2.734375 0 2.8125 -0.046875 2.8125 -0.359375 L 2.8125 -3.21875 L 5.984375 -3.21875 C 6.265625 -3.21875 6.34375 -3.34375 6.34375 -3.578125 L 6.34375 -4.53125 C 6.34375 -4.75 6.265625 -4.890625 5.984375 -4.890625 L 2.8125 -4.890625 L 2.8125 -6.3125 L 6.5 -6.3125 C 6.78125 -6.3125 6.84375 -6.453125 6.84375 -6.671875 L 6.84375 -7.671875 C 6.84375 -7.890625 6.78125 -8.015625 6.5 -8.015625 Z M 6.5 -8.015625 "/></g></g></g><g fill="#ffffff" fill-opacity="1"><g transform="translate(192.474067, 94.906387)"><g><path d="M 6.890625 -8.015625 L 5.6875 -8.015625 C 5.46875 -8.015625 5.34375 -7.953125 5.34375 -7.671875 L 5.34375 -2.71875 C 5.34375 -1.953125 4.828125 -1.515625 4.015625 -1.515625 C 3.21875 -1.515625 2.71875 -1.953125 2.71875 -2.71875 L 2.71875 -7.671875 C 2.71875 -7.953125 2.578125 -8.015625 2.359375 -8.015625 L 1.15625 -8.015625 C 0.9375 -8.015625 0.796875 -7.953125 0.796875 -7.671875 L 0.796875 -2.453125 C 0.796875 -0.53125 2.578125 0.1875 4.015625 0.1875 C 5.46875 0.1875 7.25 -0.53125 7.25 -2.453125 L 7.25 -7.671875 C 7.25 -7.953125 7.125 -8.015625 6.890625 -8.015625 Z M 6.890625 -8.015625 "/></g></g></g><g fill="#ffffff" fill-opacity="1"><g transform="translate(200.526127, 94.906387)"><g><path d="M 6.328125 -8.015625 L 0.671875 -8.015625 C 0.390625 -8.015625 0.3125 -7.890625 0.3125 -7.671875 L 0.3125 -6.65625 C 0.3125 -6.4375 0.390625 -6.296875 0.671875 -6.296875 L 2.546875 -6.296875 L 2.546875 -0.359375 C 2.546875 -0.078125 2.6875 0 2.90625 0 L 4.109375 0 C 4.328125 0 4.453125 -0.078125 4.453125 -0.359375 L 4.453125 -6.296875 L 6.328125 -6.296875 C 6.609375 -6.296875 6.671875 -6.4375 6.671875 -6.65625 L 6.671875 -7.671875 C 6.671875 -7.890625 6.609375 -8.015625 6.328125 -8.015625 Z M 6.328125 -8.015625 "/></g></g></g><g fill="#ffffff" fill-opacity="1"><g transform="translate(207.518389, 94.906387)"><g><path d="M 6.890625 -8.015625 L 5.6875 -8.015625 C 5.46875 -8.015625 5.34375 -7.953125 5.34375 -7.671875 L 5.34375 -2.71875 C 5.34375 -1.953125 4.828125 -1.515625 4.015625 -1.515625 C 3.21875 -1.515625 2.71875 -1.953125 2.71875 -2.71875 L 2.71875 -7.671875 C 2.71875 -7.953125 2.578125 -8.015625 2.359375 -8.015625 L 1.15625 -8.015625 C 0.9375 -8.015625 0.796875 -7.953125 0.796875 -7.671875 L 0.796875 -2.453125 C 0.796875 -0.53125 2.578125 0.1875 4.015625 0.1875 C 5.46875 0.1875 7.25 -0.53125 7.25 -2.453125 L 7.25 -7.671875 C 7.25 -7.953125 7.125 -8.015625 6.890625 -8.015625 Z M 6.890625 -8.015625 "/></g></g></g><g fill="#ffffff" fill-opacity="1"><g transform="translate(215.570449, 94.906387)"><g><path d="M 7.46875 -0.390625 L 5.75 -2.890625 C 6.515625 -3.140625 7.453125 -4.03125 7.453125 -5.3125 C 7.453125 -6.09375 7.1875 -6.78125 6.734375 -7.234375 C 6.234375 -7.734375 5.640625 -8 4.3125 -8 L 1.25 -8 C 0.96875 -8 0.90625 -7.875 0.90625 -7.65625 L 0.90625 -0.359375 C 0.90625 -0.078125 1.03125 0 1.25 0 L 2.453125 0 C 2.671875 0 2.796875 -0.078125 2.796875 -0.359375 L 2.796875 -6.296875 L 4.421875 -6.296875 C 5.0625 -6.296875 5.546875 -5.90625 5.546875 -5.265625 C 5.546875 -4.6875 4.984375 -4.28125 4.390625 -4.28125 L 4.140625 -4.28125 C 3.859375 -4.28125 3.796875 -4.140625 3.796875 -3.921875 L 3.796875 -2.953125 C 3.796875 -2.609375 3.8125 -2.46875 3.921875 -2.328125 L 5.234375 -0.359375 C 5.40625 -0.109375 5.5625 0 5.84375 0 L 7.28125 0 C 7.515625 0 7.578125 -0.21875 7.46875 -0.390625 Z M 7.46875 -0.390625 "/></g></g></g><g fill="#ffffff" fill-opacity="1"><g transform="translate(223.683421, 94.906387)"><g><path d="M 7.203125 -2.578125 L 7.203125 -5.453125 C 7.203125 -7.375 5.375 -8.203125 3.921875 -8.203125 C 2.46875 -8.203125 0.671875 -7.375 0.671875 -5.453125 L 0.671875 -2.578125 C 0.671875 -0.640625 2.46875 0.1875 3.921875 0.1875 C 5.375 0.1875 7.203125 -0.640625 7.203125 -2.578125 Z M 5.296875 -5.28125 L 5.296875 -2.734375 C 5.296875 -1.96875 4.734375 -1.515625 3.921875 -1.515625 C 3.125 -1.515625 2.578125 -1.96875 2.578125 -2.734375 L 2.578125 -5.28125 C 2.578125 -6.0625 3.125 -6.515625 3.921875 -6.515625 C 4.734375 -6.515625 5.296875 -6.0625 5.296875 -5.28125 Z M 5.296875 -5.28125 "/></g></g></g><g fill="#ffffff" fill-opacity="1"><g transform="translate(231.540579, 94.906387)"><g><path d="M 4.6875 -4.65625 C 4.1875 -4.84375 2.40625 -5.125 2.40625 -5.859375 C 2.40625 -6.40625 3.078125 -6.5625 3.46875 -6.5625 C 3.84375 -6.5625 4.28125 -6.453125 4.515625 -6.234375 C 4.65625 -6.09375 4.71875 -6 4.765625 -5.875 C 4.828125 -5.71875 4.859375 -5.546875 5.09375 -5.546875 L 6.28125 -5.546875 C 6.5625 -5.546875 6.640625 -5.59375 6.640625 -5.890625 C 6.640625 -7.5 4.953125 -8.203125 3.40625 -8.203125 C 1.875 -8.140625 0.4375 -7.359375 0.4375 -5.78125 C 0.4375 -4.234375 1.578125 -3.734375 2.796875 -3.34375 C 3.84375 -3.015625 4.921875 -3.015625 4.921875 -2.328125 C 4.921875 -1.640625 4.390625 -1.5 3.734375 -1.5 C 3.28125 -1.5 2.78125 -1.609375 2.53125 -1.90625 C 2.375 -2.078125 2.3125 -2.25 2.296875 -2.40625 C 2.28125 -2.703125 2.140625 -2.734375 1.859375 -2.734375 L 0.6875 -2.734375 C 0.40625 -2.734375 0.328125 -2.6875 0.328125 -2.40625 C 0.328125 -0.6875 2.078125 0.1875 3.609375 0.1875 C 5.484375 0.1875 6.84375 -0.640625 6.84375 -2.375 C 6.84375 -4.03125 5.5625 -4.390625 4.6875 -4.65625 Z M 4.6875 -4.65625 "/></g></g></g></svg>