<svg xmlns="http://www.w3.org/2000/svg" xmlns:xlink="http://www.w3.org/1999/xlink" width="500" zoomAndPan="magnify" viewBox="0 0 375 374.999991" height="500" preserveAspectRatio="xMidYMid meet" version="1.0"><defs><g/><clipPath id="a723c6142d"><path d="M 49 62.828125 L 158.394531 62.828125 L 158.394531 166 L 49 166 Z M 49 62.828125 " clip-rule="nonzero"/></clipPath><clipPath id="5bfeef2456"><path d="M 3.894531 107 L 158.394531 107 L 158.394531 286.328125 L 3.894531 286.328125 Z M 3.894531 107 " clip-rule="nonzero"/></clipPath><clipPath id="a4a4fd6cfd"><path d="M 118.269531 173.714844 L 3.894531 107.527344 L 3.894531 150.496094 L 127.285156 221.898438 L 81.144531 248.597656 L 3.894531 203.898438 L 3.894531 241.628906 L 81.144531 286.328125 L 158.390625 241.628906 L 158.390625 196.929688 Z M 118.269531 173.714844 " clip-rule="evenodd"/></clipPath><linearGradient x1="88.799776" gradientTransform="matrix(0.0144552, 0, 0, 0.0144881, 3.895981, 62.827238)" y1="3024.586011" x2="9252.087606" gradientUnits="userSpaceOnUse" y2="16409.352062" id="ad38eed3b3"><stop stop-opacity="1" stop-color="rgb(0%, 27.806091%, 56.504822%)" offset="0"/><stop stop-opacity="1" stop-color="rgb(0.0335693%, 27.954102%, 56.652832%)" offset="0.0078125"/><stop stop-opacity="1" stop-color="rgb(0.100708%, 28.250122%, 56.948853%)" offset="0.015625"/><stop stop-opacity="1" stop-color="rgb(0.167847%, 28.546143%, 57.244873%)" offset="0.0234375"/><stop stop-opacity="1" stop-color="rgb(0.234985%, 28.843689%, 57.540894%)" offset="0.03125"/><stop stop-opacity="1" stop-color="rgb(0.302124%, 29.139709%, 57.836914%)" offset="0.0390625"/><stop stop-opacity="1" stop-color="rgb(0.369263%, 29.437256%, 58.131409%)" offset="0.046875"/><stop stop-opacity="1" stop-color="rgb(0.436401%, 29.733276%, 58.427429%)" offset="0.0546875"/><stop stop-opacity="1" stop-color="rgb(0.50354%, 30.030823%, 58.72345%)" offset="0.0625"/><stop stop-opacity="1" stop-color="rgb(0.570679%, 30.326843%, 59.01947%)" offset="0.0703125"/><stop stop-opacity="1" stop-color="rgb(0.637817%, 30.62439%, 59.315491%)" offset="0.078125"/><stop stop-opacity="1" stop-color="rgb(0.704956%, 30.92041%, 59.611511%)" offset="0.0859375"/><stop stop-opacity="1" stop-color="rgb(0.772095%, 31.217957%, 59.907532%)" offset="0.09375"/><stop stop-opacity="1" stop-color="rgb(0.839233%, 31.513977%, 60.202026%)" offset="0.101563"/><stop stop-opacity="1" stop-color="rgb(0.906372%, 31.811523%, 60.498047%)" offset="0.109375"/><stop stop-opacity="1" stop-color="rgb(0.973511%, 32.107544%, 60.794067%)" offset="0.117188"/><stop stop-opacity="1" stop-color="rgb(1.040649%, 32.40509%, 61.090088%)" offset="0.125"/><stop stop-opacity="1" stop-color="rgb(1.107788%, 32.701111%, 61.386108%)" offset="0.132813"/><stop stop-opacity="1" stop-color="rgb(1.174927%, 32.998657%, 61.682129%)" offset="0.140625"/><stop stop-opacity="1" stop-color="rgb(1.242065%, 33.294678%, 61.978149%)" offset="0.148438"/><stop stop-opacity="1" stop-color="rgb(1.309204%, 33.590698%, 62.272644%)" offset="0.15625"/><stop stop-opacity="1" stop-color="rgb(1.376343%, 33.888245%, 62.568665%)" offset="0.164063"/><stop stop-opacity="1" stop-color="rgb(1.443481%, 34.184265%, 62.864685%)" offset="0.171875"/><stop stop-opacity="1" stop-color="rgb(1.51062%, 34.481812%, 63.160706%)" offset="0.179688"/><stop stop-opacity="1" stop-color="rgb(1.577759%, 34.777832%, 63.456726%)" offset="0.1875"/><stop stop-opacity="1" stop-color="rgb(1.644897%, 35.075378%, 63.752747%)" offset="0.195313"/><stop stop-opacity="1" stop-color="rgb(1.712036%, 35.371399%, 64.047241%)" offset="0.203125"/><stop stop-opacity="1" stop-color="rgb(1.779175%, 35.668945%, 64.343262%)" offset="0.210938"/><stop stop-opacity="1" stop-color="rgb(1.846313%, 35.964966%, 64.639282%)" offset="0.21875"/><stop stop-opacity="1" stop-color="rgb(1.913452%, 36.262512%, 64.935303%)" offset="0.226562"/><stop stop-opacity="1" stop-color="rgb(1.980591%, 36.558533%, 65.231323%)" offset="0.234375"/><stop stop-opacity="1" stop-color="rgb(2.047729%, 36.856079%, 65.527344%)" offset="0.242188"/><stop stop-opacity="1" stop-color="rgb(2.114868%, 37.1521%, 65.823364%)" offset="0.25"/><stop stop-opacity="1" stop-color="rgb(2.180481%, 37.449646%, 66.117859%)" offset="0.257812"/><stop stop-opacity="1" stop-color="rgb(2.24762%, 37.745667%, 66.413879%)" offset="0.265625"/><stop stop-opacity="1" stop-color="rgb(2.314758%, 38.041687%, 66.7099%)" offset="0.273438"/><stop stop-opacity="1" stop-color="rgb(2.381897%, 38.339233%, 67.00592%)" offset="0.28125"/><stop stop-opacity="1" stop-color="rgb(2.449036%, 38.635254%, 67.301941%)" offset="0.289063"/><stop stop-opacity="1" stop-color="rgb(2.516174%, 38.9328%, 67.597961%)" offset="0.296875"/><stop stop-opacity="1" stop-color="rgb(2.583313%, 39.228821%, 67.893982%)" offset="0.304688"/><stop stop-opacity="1" stop-color="rgb(2.650452%, 39.526367%, 68.188477%)" offset="0.3125"/><stop stop-opacity="1" stop-color="rgb(2.71759%, 39.822388%, 68.484497%)" offset="0.320313"/><stop stop-opacity="1" stop-color="rgb(2.784729%, 40.119934%, 68.780518%)" offset="0.328125"/><stop stop-opacity="1" stop-color="rgb(2.851868%, 40.415955%, 69.076538%)" offset="0.335938"/><stop stop-opacity="1" stop-color="rgb(2.919006%, 40.713501%, 69.372559%)" offset="0.34375"/><stop stop-opacity="1" stop-color="rgb(2.986145%, 41.009521%, 69.668579%)" offset="0.351563"/><stop stop-opacity="1" stop-color="rgb(3.053284%, 41.307068%, 69.963074%)" offset="0.359375"/><stop stop-opacity="1" stop-color="rgb(3.120422%, 41.603088%, 70.259094%)" offset="0.367188"/><stop stop-opacity="1" stop-color="rgb(3.187561%, 41.900635%, 70.555115%)" offset="0.372211"/><stop stop-opacity="1" stop-color="rgb(3.22113%, 42.048645%, 70.703125%)" offset="0.375"/><stop stop-opacity="1" stop-color="rgb(3.2547%, 42.196655%, 70.851135%)" offset="0.382813"/><stop stop-opacity="1" stop-color="rgb(3.321838%, 42.494202%, 71.147156%)" offset="0.390625"/><stop stop-opacity="1" stop-color="rgb(3.388977%, 42.790222%, 71.443176%)" offset="0.398438"/><stop stop-opacity="1" stop-color="rgb(3.456116%, 43.086243%, 71.739197%)" offset="0.40625"/><stop stop-opacity="1" stop-color="rgb(3.523254%, 43.383789%, 72.033691%)" offset="0.414063"/><stop stop-opacity="1" stop-color="rgb(3.590393%, 43.67981%, 72.329712%)" offset="0.421875"/><stop stop-opacity="1" stop-color="rgb(3.657532%, 43.977356%, 72.625732%)" offset="0.429688"/><stop stop-opacity="1" stop-color="rgb(3.72467%, 44.273376%, 72.921753%)" offset="0.4375"/><stop stop-opacity="1" stop-color="rgb(3.791809%, 44.570923%, 73.217773%)" offset="0.445313"/><stop stop-opacity="1" stop-color="rgb(3.858948%, 44.866943%, 73.513794%)" offset="0.453125"/><stop stop-opacity="1" stop-color="rgb(3.926086%, 45.16449%, 73.808289%)" offset="0.460938"/><stop stop-opacity="1" stop-color="rgb(3.993225%, 45.46051%, 74.104309%)" offset="0.46875"/><stop stop-opacity="1" stop-color="rgb(4.060364%, 45.758057%, 74.40033%)" offset="0.476563"/><stop stop-opacity="1" stop-color="rgb(4.127502%, 46.054077%, 74.69635%)" offset="0.484375"/><stop stop-opacity="1" stop-color="rgb(4.194641%, 46.351624%, 74.992371%)" offset="0.492188"/><stop stop-opacity="1" stop-color="rgb(4.26178%, 46.647644%, 75.288391%)" offset="0.5"/><stop stop-opacity="1" stop-color="rgb(4.328918%, 46.94519%, 75.584412%)" offset="0.507812"/><stop stop-opacity="1" stop-color="rgb(4.396057%, 47.241211%, 75.878906%)" offset="0.515625"/><stop stop-opacity="1" stop-color="rgb(4.463196%, 47.537231%, 76.174927%)" offset="0.523438"/><stop stop-opacity="1" stop-color="rgb(4.530334%, 47.834778%, 76.470947%)" offset="0.53125"/><stop stop-opacity="1" stop-color="rgb(4.597473%, 48.130798%, 76.766968%)" offset="0.539062"/><stop stop-opacity="1" stop-color="rgb(4.663086%, 48.428345%, 77.062988%)" offset="0.546875"/><stop stop-opacity="1" stop-color="rgb(4.730225%, 48.724365%, 77.359009%)" offset="0.554688"/><stop stop-opacity="1" stop-color="rgb(4.797363%, 49.021912%, 77.655029%)" offset="0.5625"/><stop stop-opacity="1" stop-color="rgb(4.864502%, 49.317932%, 77.949524%)" offset="0.570312"/><stop stop-opacity="1" stop-color="rgb(4.931641%, 49.615479%, 78.245544%)" offset="0.578125"/><stop stop-opacity="1" stop-color="rgb(4.998779%, 49.911499%, 78.541565%)" offset="0.585938"/><stop stop-opacity="1" stop-color="rgb(5.065918%, 50.209045%, 78.837585%)" offset="0.59375"/><stop stop-opacity="1" stop-color="rgb(5.133057%, 50.505066%, 79.133606%)" offset="0.601562"/><stop stop-opacity="1" stop-color="rgb(5.200195%, 50.802612%, 79.429626%)" offset="0.609375"/><stop stop-opacity="1" stop-color="rgb(5.267334%, 51.098633%, 79.724121%)" offset="0.617188"/><stop stop-opacity="1" stop-color="rgb(5.334473%, 51.396179%, 80.020142%)" offset="0.625"/><stop stop-opacity="1" stop-color="rgb(5.401611%, 51.6922%, 80.316162%)" offset="0.627789"/><stop stop-opacity="1" stop-color="rgb(5.435181%, 51.841736%, 80.464172%)" offset="0.632812"/><stop stop-opacity="1" stop-color="rgb(5.46875%, 51.989746%, 80.612183%)" offset="0.640625"/><stop stop-opacity="1" stop-color="rgb(5.535889%, 52.285767%, 80.908203%)" offset="0.648438"/><stop stop-opacity="1" stop-color="rgb(5.603027%, 52.581787%, 81.204224%)" offset="0.65625"/><stop stop-opacity="1" stop-color="rgb(5.670166%, 52.879333%, 81.500244%)" offset="0.664062"/><stop stop-opacity="1" stop-color="rgb(5.737305%, 53.175354%, 81.794739%)" offset="0.671875"/><stop stop-opacity="1" stop-color="rgb(5.804443%, 53.4729%, 82.090759%)" offset="0.679688"/><stop stop-opacity="1" stop-color="rgb(5.871582%, 53.768921%, 82.38678%)" offset="0.6875"/><stop stop-opacity="1" stop-color="rgb(5.938721%, 54.066467%, 82.6828%)" offset="0.695312"/><stop stop-opacity="1" stop-color="rgb(6.005859%, 54.362488%, 82.978821%)" offset="0.703125"/><stop stop-opacity="1" stop-color="rgb(6.072998%, 54.660034%, 83.274841%)" offset="0.710938"/><stop stop-opacity="1" stop-color="rgb(6.140137%, 54.956055%, 83.570862%)" offset="0.71875"/><stop stop-opacity="1" stop-color="rgb(6.207275%, 55.253601%, 83.865356%)" offset="0.726562"/><stop stop-opacity="1" stop-color="rgb(6.274414%, 55.549622%, 84.161377%)" offset="0.734375"/><stop stop-opacity="1" stop-color="rgb(6.341553%, 55.847168%, 84.457397%)" offset="0.742188"/><stop stop-opacity="1" stop-color="rgb(6.408691%, 56.143188%, 84.753418%)" offset="0.75"/><stop stop-opacity="1" stop-color="rgb(6.47583%, 56.440735%, 85.049438%)" offset="0.757812"/><stop stop-opacity="1" stop-color="rgb(6.542969%, 56.736755%, 85.345459%)" offset="0.765625"/><stop stop-opacity="1" stop-color="rgb(6.610107%, 57.032776%, 85.639954%)" offset="0.773438"/><stop stop-opacity="1" stop-color="rgb(6.677246%, 57.330322%, 85.935974%)" offset="0.78125"/><stop stop-opacity="1" stop-color="rgb(6.744385%, 57.626343%, 86.231995%)" offset="0.789062"/><stop stop-opacity="1" stop-color="rgb(6.811523%, 57.923889%, 86.528015%)" offset="0.796875"/><stop stop-opacity="1" stop-color="rgb(6.878662%, 58.21991%, 86.824036%)" offset="0.804688"/><stop stop-opacity="1" stop-color="rgb(6.945801%, 58.517456%, 87.120056%)" offset="0.8125"/><stop stop-opacity="1" stop-color="rgb(7.012939%, 58.813477%, 87.416077%)" offset="0.820313"/><stop stop-opacity="1" stop-color="rgb(7.072449%, 59.080505%, 87.68158%)" offset="0.828125"/><stop stop-opacity="1" stop-color="rgb(7.099915%, 59.199524%, 87.799072%)" offset="0.84375"/><stop stop-opacity="1" stop-color="rgb(7.099915%, 59.199524%, 87.799072%)" offset="0.875"/><stop stop-opacity="1" stop-color="rgb(7.099915%, 59.199524%, 87.799072%)" offset="1"/></linearGradient><clipPath id="5678b9d4a3"><path d="M 116 107 L 158.394531 107 L 158.394531 127 L 116 127 Z M 116 107 " clip-rule="nonzero"/></clipPath></defs><g clip-path="url(#a723c6142d)"><path fill="#0067b0" d="M 95.660156 143.828125 L 132.785156 165.3125 L 158.390625 150.496094 L 158.390625 107.527344 L 81.144531 62.828125 L 49.105469 81.363281 L 126.355469 126.066406 Z M 95.660156 143.828125 " fill-opacity="1" fill-rule="evenodd"/></g><g clip-path="url(#5bfeef2456)"><g clip-path="url(#a4a4fd6cfd)"><path fill="url(#ad38eed3b3)" d="M 3.894531 107.527344 L 3.894531 286.328125 L 158.390625 286.328125 L 158.390625 107.527344 Z M 3.894531 107.527344 " fill-rule="nonzero"/></g></g><g clip-path="url(#5678b9d4a3)"><path fill="#003780" d="M 126.355469 126.066406 L 158.390625 107.527344 L 116.53125 120.382812 Z M 126.355469 126.066406 " fill-opacity="1" fill-rule="evenodd"/></g><g fill="#ff00ff" fill-opacity="1"><g transform="translate(245.464533, 255.338315)"><g><path d="M 8.605469 0.289062 C 10.664062 0.289062 12.574219 -0.375 14.074219 -1.871094 L 12.472656 -3.472656 C 11.453125 -2.453125 9.957031 -1.890625 8.605469 -1.890625 C 4.863281 -1.890625 3.242188 -4.53125 3.242188 -7.191406 C 3.242188 -9.875 4.886719 -12.597656 8.605469 -12.597656 C 9.957031 -12.597656 11.308594 -12.117188 12.367188 -11.101562 L 13.925781 -12.597656 C 12.429688 -14.09375 10.582031 -14.800781 8.605469 -14.800781 C 3.386719 -14.800781 0.933594 -10.996094 0.933594 -7.171875 C 0.933594 -3.347656 3.347656 0.289062 8.605469 0.289062 Z M 8.605469 0.289062 "/></g></g></g><g fill="#ff00ff" fill-opacity="1"><g transform="translate(269.410949, 255.338315)"><g><path d="M 1.828125 0 L 4.15625 0 L 4.15625 -5.03125 L 7.234375 -5.03125 L 11.660156 0 L 14.382812 0 L 14.136719 -0.414062 L 9.789062 -5.257812 C 12.660156 -5.652344 13.738281 -7.734375 13.738281 -9.789062 C 13.738281 -12.242188 11.972656 -14.550781 8.605469 -14.550781 L 1.828125 -14.550781 Z M 4.15625 -7.152344 L 4.15625 -12.410156 L 8.605469 -12.410156 C 10.519531 -12.410156 11.371094 -11.058594 11.371094 -9.75 C 11.371094 -8.355469 10.496094 -7.152344 8.585938 -7.152344 Z M 4.15625 -7.152344 "/></g></g></g><g fill="#ff00ff" fill-opacity="1"><g transform="translate(293.731504, 255.338315)"><g><path d="M 1.828125 0 L 4.136719 0 L 4.136719 -14.550781 L 1.828125 -14.550781 Z M 1.828125 0 "/></g></g></g><g fill="#ff00ff" fill-opacity="1"><g transform="translate(309.030584, 255.338315)"><g><path d="M 1.828125 0 L 4.15625 0 L 4.15625 -4.46875 L 8.5625 -4.46875 C 12.035156 -4.46875 13.78125 -6.984375 13.78125 -9.519531 C 13.78125 -12.035156 12.035156 -14.550781 8.5625 -14.550781 L 1.828125 -14.550781 Z M 4.15625 -6.609375 L 4.15625 -12.410156 L 8.5625 -12.410156 C 10.476562 -12.410156 11.433594 -10.953125 11.433594 -9.5 C 11.433594 -8.066406 10.476562 -6.609375 8.5625 -6.609375 Z M 4.15625 -6.609375 "/></g></g></g><g fill="#ff00ff" fill-opacity="1"><g transform="translate(332.727536, 255.338315)"><g><path d="M 5.132812 0 L 7.484375 0 L 7.484375 -12.453125 L 12.242188 -12.453125 L 12.242188 -14.550781 L 0.351562 -14.550781 L 0.351562 -12.453125 L 5.132812 -12.453125 Z M 5.132812 0 "/></g></g></g><g fill="#ff00ff" fill-opacity="1"><g transform="translate(354.657611, 255.338315)"><g><path d="M 8.378906 0.289062 C 13.429688 0.289062 15.820312 -3.304688 15.820312 -7.214844 C 15.820312 -11.121094 13.386719 -14.800781 8.417969 -14.800781 C 4.03125 -14.800781 0.933594 -11.597656 0.933594 -7.191406 C 0.933594 -3.386719 3.324219 0.289062 8.378906 0.289062 Z M 8.378906 -1.851562 C 4.761719 -1.851562 3.242188 -4.59375 3.242188 -7.171875 C 3.242188 -10.332031 5.03125 -12.679688 8.417969 -12.679688 C 11.992188 -12.679688 13.511719 -9.851562 13.511719 -7.171875 C 13.511719 -4.425781 11.992188 -1.851562 8.378906 -1.851562 Z M 8.378906 -1.851562 "/></g></g></g><g fill="#00ffff" fill-opacity="1"><g transform="translate(244.630596, 256.368159)"><g><path d="M 8.605469 0.289062 C 10.664062 0.289062 12.574219 -0.375 14.074219 -1.871094 L 12.472656 -3.472656 C 11.453125 -2.453125 9.957031 -1.890625 8.605469 -1.890625 C 4.863281 -1.890625 3.242188 -4.53125 3.242188 -7.191406 C 3.242188 -9.875 4.886719 -12.597656 8.605469 -12.597656 C 9.957031 -12.597656 11.308594 -12.117188 12.367188 -11.101562 L 13.925781 -12.597656 C 12.429688 -14.09375 10.582031 -14.800781 8.605469 -14.800781 C 3.386719 -14.800781 0.933594 -10.996094 0.933594 -7.171875 C 0.933594 -3.347656 3.347656 0.289062 8.605469 0.289062 Z M 8.605469 0.289062 "/></g></g></g><g fill="#00ffff" fill-opacity="1"><g transform="translate(268.577011, 256.368159)"><g><path d="M 1.828125 0 L 4.15625 0 L 4.15625 -5.03125 L 7.234375 -5.03125 L 11.660156 0 L 14.382812 0 L 14.136719 -0.414062 L 9.789062 -5.257812 C 12.660156 -5.652344 13.738281 -7.734375 13.738281 -9.789062 C 13.738281 -12.242188 11.972656 -14.550781 8.605469 -14.550781 L 1.828125 -14.550781 Z M 4.15625 -7.152344 L 4.15625 -12.410156 L 8.605469 -12.410156 C 10.519531 -12.410156 11.371094 -11.058594 11.371094 -9.75 C 11.371094 -8.355469 10.496094 -7.152344 8.585938 -7.152344 Z M 4.15625 -7.152344 "/></g></g></g><g fill="#00ffff" fill-opacity="1"><g transform="translate(292.897567, 256.368159)"><g><path d="M 1.828125 0 L 4.136719 0 L 4.136719 -14.550781 L 1.828125 -14.550781 Z M 1.828125 0 "/></g></g></g><g fill="#00ffff" fill-opacity="1"><g transform="translate(308.196646, 256.368159)"><g><path d="M 1.828125 0 L 4.15625 0 L 4.15625 -4.46875 L 8.5625 -4.46875 C 12.035156 -4.46875 13.78125 -6.984375 13.78125 -9.519531 C 13.78125 -12.035156 12.035156 -14.550781 8.5625 -14.550781 L 1.828125 -14.550781 Z M 4.15625 -6.609375 L 4.15625 -12.410156 L 8.5625 -12.410156 C 10.476562 -12.410156 11.433594 -10.953125 11.433594 -9.5 C 11.433594 -8.066406 10.476562 -6.609375 8.5625 -6.609375 Z M 4.15625 -6.609375 "/></g></g></g><g fill="#00ffff" fill-opacity="1"><g transform="translate(331.893599, 256.368159)"><g><path d="M 5.132812 0 L 7.484375 0 L 7.484375 -12.453125 L 12.242188 -12.453125 L 12.242188 -14.550781 L 0.351562 -14.550781 L 0.351562 -12.453125 L 5.132812 -12.453125 Z M 5.132812 0 "/></g></g></g><g fill="#00ffff" fill-opacity="1"><g transform="translate(353.823673, 256.368159)"><g><path d="M 8.378906 0.289062 C 13.429688 0.289062 15.820312 -3.304688 15.820312 -7.214844 C 15.820312 -11.121094 13.386719 -14.800781 8.417969 -14.800781 C 4.03125 -14.800781 0.933594 -11.597656 0.933594 -7.191406 C 0.933594 -3.386719 3.324219 0.289062 8.378906 0.289062 Z M 8.378906 -1.851562 C 4.761719 -1.851562 3.242188 -4.59375 3.242188 -7.171875 C 3.242188 -10.332031 5.03125 -12.679688 8.417969 -12.679688 C 11.992188 -12.679688 13.511719 -9.851562 13.511719 -7.171875 C 13.511719 -4.425781 11.992188 -1.851562 8.378906 -1.851562 Z M 8.378906 -1.851562 "/></g></g></g><g fill="#ffffff" fill-opacity="1"><g transform="translate(245.047565, 255.853237)"><g><path d="M 8.605469 0.289062 C 10.664062 0.289062 12.574219 -0.375 14.074219 -1.871094 L 12.472656 -3.472656 C 11.453125 -2.453125 9.957031 -1.890625 8.605469 -1.890625 C 4.863281 -1.890625 3.242188 -4.53125 3.242188 -7.191406 C 3.242188 -9.875 4.886719 -12.597656 8.605469 -12.597656 C 9.957031 -12.597656 11.308594 -12.117188 12.367188 -11.101562 L 13.925781 -12.597656 C 12.429688 -14.09375 10.582031 -14.800781 8.605469 -14.800781 C 3.386719 -14.800781 0.933594 -10.996094 0.933594 -7.171875 C 0.933594 -3.347656 3.347656 0.289062 8.605469 0.289062 Z M 8.605469 0.289062 "/></g></g></g><g fill="#ffffff" fill-opacity="1"><g transform="translate(268.99398, 255.853237)"><g><path d="M 1.828125 0 L 4.15625 0 L 4.15625 -5.03125 L 7.234375 -5.03125 L 11.660156 0 L 14.382812 0 L 14.136719 -0.414062 L 9.789062 -5.257812 C 12.660156 -5.652344 13.738281 -7.734375 13.738281 -9.789062 C 13.738281 -12.242188 11.972656 -14.550781 8.605469 -14.550781 L 1.828125 -14.550781 Z M 4.15625 -7.152344 L 4.15625 -12.410156 L 8.605469 -12.410156 C 10.519531 -12.410156 11.371094 -11.058594 11.371094 -9.75 C 11.371094 -8.355469 10.496094 -7.152344 8.585938 -7.152344 Z M 4.15625 -7.152344 "/></g></g></g><g fill="#ffffff" fill-opacity="1"><g transform="translate(293.314535, 255.853237)"><g><path d="M 1.828125 0 L 4.136719 0 L 4.136719 -14.550781 L 1.828125 -14.550781 Z M 1.828125 0 "/></g></g></g><g fill="#ffffff" fill-opacity="1"><g transform="translate(308.613615, 255.853237)"><g><path d="M 1.828125 0 L 4.15625 0 L 4.15625 -4.46875 L 8.5625 -4.46875 C 12.035156 -4.46875 13.78125 -6.984375 13.78125 -9.519531 C 13.78125 -12.035156 12.035156 -14.550781 8.5625 -14.550781 L 1.828125 -14.550781 Z M 4.15625 -6.609375 L 4.15625 -12.410156 L 8.5625 -12.410156 C 10.476562 -12.410156 11.433594 -10.953125 11.433594 -9.5 C 11.433594 -8.066406 10.476562 -6.609375 8.5625 -6.609375 Z M 4.15625 -6.609375 "/></g></g></g><g fill="#ffffff" fill-opacity="1"><g transform="translate(332.310568, 255.853237)"><g><path d="M 5.132812 0 L 7.484375 0 L 7.484375 -12.453125 L 12.242188 -12.453125 L 12.242188 -14.550781 L 0.351562 -14.550781 L 0.351562 -12.453125 L 5.132812 -12.453125 Z M 5.132812 0 "/></g></g></g><g fill="#ffffff" fill-opacity="1"><g transform="translate(354.240642, 255.853237)"><g><path d="M 8.378906 0.289062 C 13.429688 0.289062 15.820312 -3.304688 15.820312 -7.214844 C 15.820312 -11.121094 13.386719 -14.800781 8.417969 -14.800781 C 4.03125 -14.800781 0.933594 -11.597656 0.933594 -7.191406 C 0.933594 -3.386719 3.324219 0.289062 8.378906 0.289062 Z M 8.378906 -1.851562 C 4.761719 -1.851562 3.242188 -4.59375 3.242188 -7.171875 C 3.242188 -10.332031 5.03125 -12.679688 8.417969 -12.679688 C 11.992188 -12.679688 13.511719 -9.851562 13.511719 -7.171875 C 13.511719 -4.425781 11.992188 -1.851562 8.378906 -1.851562 Z M 8.378906 -1.851562 "/></g></g></g><g fill="#ff00ff" fill-opacity="1"><g transform="translate(160.953748, 234.447673)"><g><path d="M 24.839844 -6.3125 L 10.460938 -6.3125 L 10.460938 -12.261719 L 22.542969 -12.261719 C 23.578125 -12.261719 23.847656 -12.757812 23.847656 -13.570312 L 23.847656 -17.085938 C 23.847656 -17.898438 23.578125 -18.394531 22.542969 -18.394531 L 10.460938 -18.394531 L 10.460938 -23.308594 L 24.074219 -23.308594 C 25.109375 -23.308594 25.382812 -23.804688 25.382812 -24.613281 L 25.382812 -28.355469 C 25.382812 -29.167969 25.109375 -29.664062 24.074219 -29.664062 L 4.644531 -29.664062 C 3.605469 -29.664062 3.335938 -29.167969 3.335938 -28.355469 L 3.335938 -1.308594 C 3.335938 -0.496094 3.605469 0 4.644531 0 L 24.839844 0 C 25.878906 0 26.148438 -0.496094 26.148438 -1.308594 L 26.148438 -5.003906 C 26.148438 -5.816406 25.878906 -6.3125 24.839844 -6.3125 Z M 24.839844 -6.3125 "/></g></g></g><g fill="#ff00ff" fill-opacity="1"><g transform="translate(189.216971, 234.447673)"><g><path d="M 23.398438 -29.664062 L 2.480469 -29.664062 C 1.441406 -29.664062 1.171875 -29.167969 1.171875 -28.355469 L 1.171875 -24.613281 C 1.171875 -23.804688 1.441406 -23.308594 2.480469 -23.308594 L 9.421875 -23.308594 L 9.421875 -1.308594 C 9.421875 -0.269531 9.917969 0 10.730469 0 L 15.191406 0 C 16.003906 0 16.5 -0.269531 16.5 -1.308594 L 16.5 -23.308594 L 23.398438 -23.308594 C 24.433594 -23.308594 24.707031 -23.804688 24.707031 -24.613281 L 24.707031 -28.355469 C 24.707031 -29.167969 24.433594 -29.664062 23.398438 -29.664062 Z M 23.398438 -29.664062 "/></g></g></g><g fill="#ff00ff" fill-opacity="1"><g transform="translate(215.091106, 234.447673)"><g><path d="M 28.851562 -1.261719 L 18.890625 -28.265625 C 18.484375 -29.214844 18.03125 -29.664062 17.042969 -29.664062 L 12.714844 -29.664062 C 11.722656 -29.664062 11.226562 -29.214844 10.863281 -28.265625 L 0.855469 -1.261719 C 0.632812 -0.722656 0.632812 0 1.621094 0 L 6.355469 0 C 7.347656 0 7.710938 -0.269531 8.070312 -1.351562 L 9.332031 -4.914062 L 20.378906 -4.914062 L 21.640625 -1.351562 C 22 -0.269531 22.359375 0 23.351562 0 L 28.085938 0 C 29.078125 0 29.078125 -0.722656 28.851562 -1.261719 Z M 14.878906 -21.1875 L 18.257812 -11.226562 L 11.496094 -11.226562 Z M 14.878906 -21.1875 "/></g></g></g><g fill="#ff00ff" fill-opacity="1"><g transform="translate(244.61648, 234.447673)"><g/></g></g><g fill="#ff00ff" fill-opacity="1"><g transform="translate(256.832324, 234.447673)"><g><path d="M 24.480469 -15.375 C 24.886719 -15.554688 27.769531 -16.996094 27.769531 -21.550781 C 27.769531 -25.789062 24.613281 -29.710938 17.265625 -29.710938 L 4.644531 -29.710938 C 3.605469 -29.710938 3.335938 -29.214844 3.335938 -28.402344 L 3.335938 -1.308594 C 3.335938 -0.496094 3.605469 0 4.644531 0 L 17.898438 0 C 24.164062 0 28.628906 -2.929688 28.628906 -8.65625 C 28.628906 -13.523438 24.839844 -15.238281 24.480469 -15.375 Z M 17.988281 -6.402344 L 10.414062 -6.402344 L 10.414062 -23.351562 L 17.265625 -23.351562 C 19.609375 -23.351562 21.007812 -22.855469 21.007812 -20.828125 C 21.007812 -19.070312 19.882812 -18.125 17.265625 -18.125 L 16.679688 -18.125 C 15.644531 -18.125 15.375 -17.628906 15.375 -16.816406 L 15.375 -13.390625 C 15.375 -12.578125 15.644531 -12.082031 16.679688 -12.082031 L 17.71875 -12.082031 C 19.882812 -12.082031 21.460938 -11.449219 21.460938 -9.332031 C 21.460938 -7.304688 20.195312 -6.402344 17.988281 -6.402344 Z M 17.988281 -6.402344 "/></g></g></g><g fill="#ff00ff" fill-opacity="1"><g transform="translate(287.800147, 234.447673)"><g><path d="M 26.644531 -9.511719 L 26.644531 -20.152344 C 26.644531 -27.273438 19.882812 -30.339844 14.515625 -30.339844 C 9.152344 -30.339844 2.480469 -27.273438 2.480469 -20.152344 L 2.480469 -9.511719 C 2.480469 -2.390625 9.152344 0.675781 14.515625 0.675781 C 19.882812 0.675781 26.644531 -2.390625 26.644531 -9.511719 Z M 19.566406 -19.519531 L 19.566406 -10.144531 C 19.566406 -7.257812 17.492188 -5.589844 14.515625 -5.589844 C 11.585938 -5.589844 9.511719 -7.257812 9.511719 -10.144531 L 9.511719 -19.519531 C 9.511719 -22.40625 11.585938 -24.074219 14.515625 -24.074219 C 17.492188 -24.074219 19.566406 -22.40625 19.566406 -19.519531 Z M 19.566406 -19.519531 "/></g></g></g><g fill="#ff00ff" fill-opacity="1"><g transform="translate(316.874742, 234.447673)"><g><path d="M 23.398438 -29.664062 L 2.480469 -29.664062 C 1.441406 -29.664062 1.171875 -29.167969 1.171875 -28.355469 L 1.171875 -24.613281 C 1.171875 -23.804688 1.441406 -23.308594 2.480469 -23.308594 L 9.421875 -23.308594 L 9.421875 -1.308594 C 9.421875 -0.269531 9.917969 0 10.730469 0 L 15.191406 0 C 16.003906 0 16.5 -0.269531 16.5 -1.308594 L 16.5 -23.308594 L 23.398438 -23.308594 C 24.433594 -23.308594 24.707031 -23.804688 24.707031 -24.613281 L 24.707031 -28.355469 C 24.707031 -29.167969 24.433594 -29.664062 23.398438 -29.664062 Z M 23.398438 -29.664062 "/></g></g></g><g fill="#00ffff" fill-opacity="1"><g transform="translate(159.144726, 236.681648)"><g><path d="M 24.839844 -6.3125 L 10.460938 -6.3125 L 10.460938 -12.261719 L 22.542969 -12.261719 C 23.578125 -12.261719 23.847656 -12.757812 23.847656 -13.570312 L 23.847656 -17.085938 C 23.847656 -17.898438 23.578125 -18.394531 22.542969 -18.394531 L 10.460938 -18.394531 L 10.460938 -23.308594 L 24.074219 -23.308594 C 25.109375 -23.308594 25.382812 -23.804688 25.382812 -24.613281 L 25.382812 -28.355469 C 25.382812 -29.167969 25.109375 -29.664062 24.074219 -29.664062 L 4.644531 -29.664062 C 3.605469 -29.664062 3.335938 -29.167969 3.335938 -28.355469 L 3.335938 -1.308594 C 3.335938 -0.496094 3.605469 0 4.644531 0 L 24.839844 0 C 25.878906 0 26.148438 -0.496094 26.148438 -1.308594 L 26.148438 -5.003906 C 26.148438 -5.816406 25.878906 -6.3125 24.839844 -6.3125 Z M 24.839844 -6.3125 "/></g></g></g><g fill="#00ffff" fill-opacity="1"><g transform="translate(187.407949, 236.681648)"><g><path d="M 23.398438 -29.664062 L 2.480469 -29.664062 C 1.441406 -29.664062 1.171875 -29.167969 1.171875 -28.355469 L 1.171875 -24.613281 C 1.171875 -23.804688 1.441406 -23.308594 2.480469 -23.308594 L 9.421875 -23.308594 L 9.421875 -1.308594 C 9.421875 -0.269531 9.917969 0 10.730469 0 L 15.191406 0 C 16.003906 0 16.5 -0.269531 16.5 -1.308594 L 16.5 -23.308594 L 23.398438 -23.308594 C 24.433594 -23.308594 24.707031 -23.804688 24.707031 -24.613281 L 24.707031 -28.355469 C 24.707031 -29.167969 24.433594 -29.664062 23.398438 -29.664062 Z M 23.398438 -29.664062 "/></g></g></g><g fill="#00ffff" fill-opacity="1"><g transform="translate(213.282084, 236.681648)"><g><path d="M 28.851562 -1.261719 L 18.890625 -28.265625 C 18.484375 -29.214844 18.03125 -29.664062 17.042969 -29.664062 L 12.714844 -29.664062 C 11.722656 -29.664062 11.226562 -29.214844 10.863281 -28.265625 L 0.855469 -1.261719 C 0.632812 -0.722656 0.632812 0 1.621094 0 L 6.355469 0 C 7.347656 0 7.710938 -0.269531 8.070312 -1.351562 L 9.332031 -4.914062 L 20.378906 -4.914062 L 21.640625 -1.351562 C 22 -0.269531 22.359375 0 23.351562 0 L 28.085938 0 C 29.078125 0 29.078125 -0.722656 28.851562 -1.261719 Z M 14.878906 -21.1875 L 18.257812 -11.226562 L 11.496094 -11.226562 Z M 14.878906 -21.1875 "/></g></g></g><g fill="#00ffff" fill-opacity="1"><g transform="translate(242.807459, 236.681648)"><g/></g></g><g fill="#00ffff" fill-opacity="1"><g transform="translate(255.023303, 236.681648)"><g><path d="M 24.480469 -15.375 C 24.886719 -15.554688 27.769531 -16.996094 27.769531 -21.550781 C 27.769531 -25.789062 24.613281 -29.710938 17.265625 -29.710938 L 4.644531 -29.710938 C 3.605469 -29.710938 3.335938 -29.214844 3.335938 -28.402344 L 3.335938 -1.308594 C 3.335938 -0.496094 3.605469 0 4.644531 0 L 17.898438 0 C 24.164062 0 28.628906 -2.929688 28.628906 -8.65625 C 28.628906 -13.523438 24.839844 -15.238281 24.480469 -15.375 Z M 17.988281 -6.402344 L 10.414062 -6.402344 L 10.414062 -23.351562 L 17.265625 -23.351562 C 19.609375 -23.351562 21.007812 -22.855469 21.007812 -20.828125 C 21.007812 -19.070312 19.882812 -18.125 17.265625 -18.125 L 16.679688 -18.125 C 15.644531 -18.125 15.375 -17.628906 15.375 -16.816406 L 15.375 -13.390625 C 15.375 -12.578125 15.644531 -12.082031 16.679688 -12.082031 L 17.71875 -12.082031 C 19.882812 -12.082031 21.460938 -11.449219 21.460938 -9.332031 C 21.460938 -7.304688 20.195312 -6.402344 17.988281 -6.402344 Z M 17.988281 -6.402344 "/></g></g></g><g fill="#00ffff" fill-opacity="1"><g transform="translate(285.991126, 236.681648)"><g><path d="M 26.644531 -9.511719 L 26.644531 -20.152344 C 26.644531 -27.273438 19.882812 -30.339844 14.515625 -30.339844 C 9.152344 -30.339844 2.480469 -27.273438 2.480469 -20.152344 L 2.480469 -9.511719 C 2.480469 -2.390625 9.152344 0.675781 14.515625 0.675781 C 19.882812 0.675781 26.644531 -2.390625 26.644531 -9.511719 Z M 19.566406 -19.519531 L 19.566406 -10.144531 C 19.566406 -7.257812 17.492188 -5.589844 14.515625 -5.589844 C 11.585938 -5.589844 9.511719 -7.257812 9.511719 -10.144531 L 9.511719 -19.519531 C 9.511719 -22.40625 11.585938 -24.074219 14.515625 -24.074219 C 17.492188 -24.074219 19.566406 -22.40625 19.566406 -19.519531 Z M 19.566406 -19.519531 "/></g></g></g><g fill="#00ffff" fill-opacity="1"><g transform="translate(315.06572, 236.681648)"><g><path d="M 23.398438 -29.664062 L 2.480469 -29.664062 C 1.441406 -29.664062 1.171875 -29.167969 1.171875 -28.355469 L 1.171875 -24.613281 C 1.171875 -23.804688 1.441406 -23.308594 2.480469 -23.308594 L 9.421875 -23.308594 L 9.421875 -1.308594 C 9.421875 -0.269531 9.917969 0 10.730469 0 L 15.191406 0 C 16.003906 0 16.5 -0.269531 16.5 -1.308594 L 16.5 -23.308594 L 23.398438 -23.308594 C 24.433594 -23.308594 24.707031 -23.804688 24.707031 -24.613281 L 24.707031 -28.355469 C 24.707031 -29.167969 24.433594 -29.664062 23.398438 -29.664062 Z M 23.398438 -29.664062 "/></g></g></g><g fill="#ffffff" fill-opacity="1"><g transform="translate(160.049238, 235.564662)"><g><path d="M 24.839844 -6.3125 L 10.460938 -6.3125 L 10.460938 -12.261719 L 22.542969 -12.261719 C 23.578125 -12.261719 23.847656 -12.757812 23.847656 -13.570312 L 23.847656 -17.085938 C 23.847656 -17.898438 23.578125 -18.394531 22.542969 -18.394531 L 10.460938 -18.394531 L 10.460938 -23.308594 L 24.074219 -23.308594 C 25.109375 -23.308594 25.382812 -23.804688 25.382812 -24.613281 L 25.382812 -28.355469 C 25.382812 -29.167969 25.109375 -29.664062 24.074219 -29.664062 L 4.644531 -29.664062 C 3.605469 -29.664062 3.335938 -29.167969 3.335938 -28.355469 L 3.335938 -1.308594 C 3.335938 -0.496094 3.605469 0 4.644531 0 L 24.839844 0 C 25.878906 0 26.148438 -0.496094 26.148438 -1.308594 L 26.148438 -5.003906 C 26.148438 -5.816406 25.878906 -6.3125 24.839844 -6.3125 Z M 24.839844 -6.3125 "/></g></g></g><g fill="#ffffff" fill-opacity="1"><g transform="translate(188.312461, 235.564662)"><g><path d="M 23.398438 -29.664062 L 2.480469 -29.664062 C 1.441406 -29.664062 1.171875 -29.167969 1.171875 -28.355469 L 1.171875 -24.613281 C 1.171875 -23.804688 1.441406 -23.308594 2.480469 -23.308594 L 9.421875 -23.308594 L 9.421875 -1.308594 C 9.421875 -0.269531 9.917969 0 10.730469 0 L 15.191406 0 C 16.003906 0 16.5 -0.269531 16.5 -1.308594 L 16.5 -23.308594 L 23.398438 -23.308594 C 24.433594 -23.308594 24.707031 -23.804688 24.707031 -24.613281 L 24.707031 -28.355469 C 24.707031 -29.167969 24.433594 -29.664062 23.398438 -29.664062 Z M 23.398438 -29.664062 "/></g></g></g><g fill="#ffffff" fill-opacity="1"><g transform="translate(214.186596, 235.564662)"><g><path d="M 28.851562 -1.261719 L 18.890625 -28.265625 C 18.484375 -29.214844 18.03125 -29.664062 17.042969 -29.664062 L 12.714844 -29.664062 C 11.722656 -29.664062 11.226562 -29.214844 10.863281 -28.265625 L 0.855469 -1.261719 C 0.632812 -0.722656 0.632812 0 1.621094 0 L 6.355469 0 C 7.347656 0 7.710938 -0.269531 8.070312 -1.351562 L 9.332031 -4.914062 L 20.378906 -4.914062 L 21.640625 -1.351562 C 22 -0.269531 22.359375 0 23.351562 0 L 28.085938 0 C 29.078125 0 29.078125 -0.722656 28.851562 -1.261719 Z M 14.878906 -21.1875 L 18.257812 -11.226562 L 11.496094 -11.226562 Z M 14.878906 -21.1875 "/></g></g></g><g fill="#ffffff" fill-opacity="1"><g transform="translate(243.711971, 235.564662)"><g/></g></g><g fill="#ffffff" fill-opacity="1"><g transform="translate(255.927815, 235.564662)"><g><path d="M 24.480469 -15.375 C 24.886719 -15.554688 27.769531 -16.996094 27.769531 -21.550781 C 27.769531 -25.789062 24.613281 -29.710938 17.265625 -29.710938 L 4.644531 -29.710938 C 3.605469 -29.710938 3.335938 -29.214844 3.335938 -28.402344 L 3.335938 -1.308594 C 3.335938 -0.496094 3.605469 0 4.644531 0 L 17.898438 0 C 24.164062 0 28.628906 -2.929688 28.628906 -8.65625 C 28.628906 -13.523438 24.839844 -15.238281 24.480469 -15.375 Z M 17.988281 -6.402344 L 10.414062 -6.402344 L 10.414062 -23.351562 L 17.265625 -23.351562 C 19.609375 -23.351562 21.007812 -22.855469 21.007812 -20.828125 C 21.007812 -19.070312 19.882812 -18.125 17.265625 -18.125 L 16.679688 -18.125 C 15.644531 -18.125 15.375 -17.628906 15.375 -16.816406 L 15.375 -13.390625 C 15.375 -12.578125 15.644531 -12.082031 16.679688 -12.082031 L 17.71875 -12.082031 C 19.882812 -12.082031 21.460938 -11.449219 21.460938 -9.332031 C 21.460938 -7.304688 20.195312 -6.402344 17.988281 -6.402344 Z M 17.988281 -6.402344 "/></g></g></g><g fill="#ffffff" fill-opacity="1"><g transform="translate(286.895638, 235.564662)"><g><path d="M 26.644531 -9.511719 L 26.644531 -20.152344 C 26.644531 -27.273438 19.882812 -30.339844 14.515625 -30.339844 C 9.152344 -30.339844 2.480469 -27.273438 2.480469 -20.152344 L 2.480469 -9.511719 C 2.480469 -2.390625 9.152344 0.675781 14.515625 0.675781 C 19.882812 0.675781 26.644531 -2.390625 26.644531 -9.511719 Z M 19.566406 -19.519531 L 19.566406 -10.144531 C 19.566406 -7.257812 17.492188 -5.589844 14.515625 -5.589844 C 11.585938 -5.589844 9.511719 -7.257812 9.511719 -10.144531 L 9.511719 -19.519531 C 9.511719 -22.40625 11.585938 -24.074219 14.515625 -24.074219 C 17.492188 -24.074219 19.566406 -22.40625 19.566406 -19.519531 Z M 19.566406 -19.519531 "/></g></g></g><g fill="#ffffff" fill-opacity="1"><g transform="translate(315.970232, 235.564662)"><g><path d="M 23.398438 -29.664062 L 2.480469 -29.664062 C 1.441406 -29.664062 1.171875 -29.167969 1.171875 -28.355469 L 1.171875 -24.613281 C 1.171875 -23.804688 1.441406 -23.308594 2.480469 -23.308594 L 9.421875 -23.308594 L 9.421875 -1.308594 C 9.421875 -0.269531 9.917969 0 10.730469 0 L 15.191406 0 C 16.003906 0 16.5 -0.269531 16.5 -1.308594 L 16.5 -23.308594 L 23.398438 -23.308594 C 24.433594 -23.308594 24.707031 -23.804688 24.707031 -24.613281 L 24.707031 -28.355469 C 24.707031 -29.167969 24.433594 -29.664062 23.398438 -29.664062 Z M 23.398438 -29.664062 "/></g></g></g><g fill="#ff00ff" fill-opacity="1"><g transform="translate(342.764483, 234.447673)"><g/></g></g><g fill="#00ffff" fill-opacity="1"><g transform="translate(340.955461, 236.681648)"><g/></g></g><g fill="#ffffff" fill-opacity="1"><g transform="translate(341.859973, 235.564662)"><g/></g></g></svg>