<?xml version="1.0" encoding="UTF-8"?>
<!DOCTYPE svg PUBLIC "-//W3C//DTD SVG 1.1//EN" "http://www.w3.org/Graphics/SVG/1.1/DTD/svg11.dtd">
<svg xmlns="http://www.w3.org/2000/svg" version="1.1" width="829px" height="365px" style="shape-rendering:geometricPrecision; text-rendering:geometricPrecision; image-rendering:optimizeQuality; fill-rule:evenodd; clip-rule:evenodd" xmlns:xlink="http://www.w3.org/1999/xlink">
<g><path style="opacity:0.981" fill="#270075" d="M 404.5,-0.5 C 409.833,-0.5 415.167,-0.5 420.5,-0.5C 439.034,6.44587 444.034,18.7792 435.5,36.5C 429.979,40.8448 423.645,43.3448 416.5,44C 410.205,46.4252 408.038,50.9252 410,57.5C 410.891,60.0302 412.058,62.3635 413.5,64.5C 399.363,66.6196 387.53,62.2862 378,51.5C 375.562,46.517 373.728,41.3503 372.5,36C 366.135,34.8254 359.801,33.4921 353.5,32C 348.637,31.1915 343.97,31.8582 339.5,34C 332.197,40.3016 325.197,46.9683 318.5,54C 305.171,61.2064 293.004,59.7064 282,49.5C 276.499,41.5066 275.165,32.8399 278,23.5C 288.354,30.9673 299.187,31.4673 310.5,25C 319.239,19.2684 328.239,13.935 337.5,9C 346.692,5.34967 355.692,5.683 364.5,10C 368.356,13.357 372.356,16.5237 376.5,19.5C 383.347,9.31481 392.68,2.64814 404.5,-0.5 Z"/></g>
<g><path style="opacity:0.986" fill="#ed5769" d="M 435.5,36.5 C 435.303,51.6062 427.97,60.9396 413.5,64.5C 412.058,62.3635 410.891,60.0302 410,57.5C 408.038,50.9252 410.205,46.4252 416.5,44C 423.645,43.3448 429.979,40.8448 435.5,36.5 Z"/></g>
<g><path style="opacity:0.989" fill="#e73395" d="M 440.5,91.5 C 437.89,94.6324 436.223,98.299 435.5,102.5C 434.883,102.611 434.383,102.944 434,103.5C 432.338,110.481 430.838,117.481 429.5,124.5C 429.033,127.297 427.367,128.631 424.5,128.5C 426.699,141.625 429.366,154.625 432.5,167.5C 432.426,170.349 432.092,173.349 431.5,176.5C 421.966,184.688 411.299,186.521 399.5,182C 390.846,178.182 383.512,172.682 377.5,165.5C 382.262,154.86 384.929,143.694 385.5,132C 384.646,122.065 383.146,112.232 381,102.5C 379.132,89.8264 382.299,78.6598 390.5,69C 399.58,71.0228 408.58,73.6895 417.5,77C 423.55,80.8533 430.217,83.1866 437.5,84C 440.039,85.805 441.039,88.305 440.5,91.5 Z"/></g>
<g><path style="opacity:0.991" fill="#d408d0" d="M 440.5,91.5 C 461.606,99.5376 482.94,107.204 504.5,114.5C 503.167,115.5 501.833,116.5 500.5,117.5C 478.607,112.941 456.94,107.941 435.5,102.5C 436.223,98.299 437.89,94.6324 440.5,91.5 Z"/></g>
<g><path style="opacity:0.994" fill="#ec5669" d="M 435.5,102.5 C 456.94,107.941 478.607,112.941 500.5,117.5C 506.608,120.299 512.775,120.632 519,118.5C 528.44,120.049 531.773,125.383 529,134.5C 527.961,135.71 526.794,136.71 525.5,137.5C 524.882,131.382 521.548,128.882 515.5,130C 513.561,131.432 512.228,133.265 511.5,135.5C 505.188,134.646 498.855,133.979 492.5,133.5C 471.449,130.778 450.449,127.778 429.5,124.5C 430.838,117.481 432.338,110.481 434,103.5C 434.383,102.944 434.883,102.611 435.5,102.5 Z"/></g>
<g><path style="opacity:0.989" fill="#3700a5" d="M 271.5,246.5 C 280.792,236.665 280.792,226.832 271.5,217C 267.815,214.988 264.149,214.155 260.5,214.5C 266.181,204.323 274.515,197.157 285.5,193C 290.311,191.552 294.977,190.052 299.5,188.5C 301.129,186.142 302.295,183.476 303,180.5C 306.42,176.247 310.587,175.413 315.5,178C 319.344,181.743 323.344,185.243 327.5,188.5C 331.605,192.102 335.605,195.935 339.5,200C 358.52,200.231 377.52,200.731 396.5,201.5C 399.825,203.497 403.159,205.497 406.5,207.5C 411.519,213.208 414.686,219.875 416,227.5C 416.749,238.018 416.583,248.518 415.5,259C 416.605,274.918 424.605,285.418 439.5,290.5C 439.5,295.833 439.5,301.167 439.5,306.5C 452.5,306.5 465.5,306.5 478.5,306.5C 478.5,305.5 478.5,304.5 478.5,303.5C 480.833,303.5 483.167,303.5 485.5,303.5C 485.862,298.901 484.529,294.901 481.5,291.5C 494.205,288.481 505.539,282.814 515.5,274.5C 541.512,250.807 550.012,221.807 541,187.5C 539.39,182.669 537.39,178.003 535,173.5C 534.501,167.843 534.334,162.176 534.5,156.5C 524.691,159.436 515.024,162.77 505.5,166.5C 500.609,155.847 496.276,144.847 492.5,133.5C 498.855,133.979 505.188,134.646 511.5,135.5C 512.351,142.103 516.018,144.27 522.5,142C 523.883,140.729 524.883,139.229 525.5,137.5C 526.794,136.71 527.961,135.71 529,134.5C 531.773,125.383 528.44,120.049 519,118.5C 512.775,120.632 506.608,120.299 500.5,117.5C 501.833,116.5 503.167,115.5 504.5,114.5C 515.253,110.959 525.92,107.126 536.5,103C 554.941,100.277 565.608,108.11 568.5,126.5C 567.751,136.004 563.418,143.337 555.5,148.5C 565.806,155.083 573.306,164.083 578,175.5C 583.574,191.352 586.408,207.685 586.5,224.5C 609.102,217.644 626.935,223.977 640,243.5C 641.958,248.329 643.124,253.329 643.5,258.5C 639.154,258.334 634.821,258.501 630.5,259C 652.961,275.041 660.794,296.541 654,323.5C 643.207,351.653 622.707,364.82 592.5,363C 562.827,357.328 546.327,339.495 543,309.5C 529.406,324.213 512.572,332.38 492.5,334C 467.804,334.919 443.138,334.585 418.5,333C 403.916,330.04 390.916,323.873 379.5,314.5C 364.502,354.335 336.169,369.502 294.5,360C 260.948,345.405 246.781,319.905 252,283.5C 255.432,268.42 263.266,256.253 275.5,247C 274.207,246.51 272.873,246.343 271.5,246.5 Z M 405.5,204.5 C 422.711,209.76 439.878,215.093 457,220.5C 457.274,223.649 456.608,226.649 455,229.5C 447.754,244.824 440.921,260.324 434.5,276C 435.578,280.046 438.244,281.546 442.5,280.5C 442.5,283.833 442.5,287.167 442.5,290.5C 441.5,290.5 440.5,290.5 439.5,290.5C 424.605,285.418 416.605,274.918 415.5,259C 416.583,248.518 416.749,238.018 416,227.5C 414.686,219.875 411.519,213.208 406.5,207.5C 406.443,206.391 406.11,205.391 405.5,204.5 Z M 355.5,246.5 C 360.155,245.834 364.988,245.501 370,245.5C 375.913,245.404 381.746,245.904 387.5,247C 395.74,254.121 395.407,260.788 386.5,267C 382.334,268.125 378.001,268.125 373.5,267C 368.694,259.033 362.694,252.199 355.5,246.5 Z"/></g>
<g><path style="opacity:1" fill="#e63295" d="M 538.5,103.5 C 550.666,101.998 559.499,106.665 565,117.5C 568.858,128.41 566.358,137.41 557.5,144.5C 539.066,136.558 532.733,122.892 538.5,103.5 Z"/></g>
<g><path style="opacity:1" fill="#e220ad" d="M 370.5,123.5 C 343.5,123.5 316.5,123.5 289.5,123.5C 289.334,119.154 289.501,114.821 290,110.5C 290.5,109.333 291.333,108.5 292.5,108C 304.933,106.862 317.433,106.362 330,106.5C 342.567,106.362 355.067,106.862 367.5,108C 368.701,108.903 369.535,110.069 370,111.5C 370.499,115.486 370.666,119.486 370.5,123.5 Z"/></g>
<g><path style="opacity:0.996" fill="#fdc369" d="M 105.5,111.5 C 78.1823,162.59 68.0157,216.924 75,274.5C 83.0754,307.481 101.909,332.314 131.5,349C 143.149,355.262 155.149,360.429 167.5,364.5C 145.167,364.5 122.833,364.5 100.5,364.5C 45.6788,345.811 14.8455,307.478 8,249.5C 2.71197,209.589 11.0453,172.922 33,139.5C 51.7017,115.723 75.8683,106.39 105.5,111.5 Z"/></g>
<g><path style="opacity:1" fill="#ffb410" d="M 105.5,111.5 C 106.167,111.5 106.833,111.5 107.5,111.5C 101.054,127.329 94.8874,143.329 89,159.5C 77.8494,193.703 73.8494,228.703 77,264.5C 84.1242,305.893 106.958,335.06 145.5,352C 157.978,357.104 170.644,361.271 183.5,364.5C 178.167,364.5 172.833,364.5 167.5,364.5C 155.149,360.429 143.149,355.262 131.5,349C 101.909,332.314 83.0754,307.481 75,274.5C 68.0157,216.924 78.1823,162.59 105.5,111.5 Z"/></g>
<g><path style="opacity:0.997" fill="#fdc369" d="M 107.5,111.5 C 138.479,120.408 152.312,141.075 149,173.5C 146.938,190.416 143.605,207.083 139,223.5C 135.214,238.791 134.88,254.124 138,269.5C 139.946,276.058 142.946,282.058 147,287.5C 143.664,264.014 151.831,245.848 171.5,233C 182.898,227.473 194.565,226.306 206.5,229.5C 205.504,229.414 204.671,229.748 204,230.5C 183.034,261.936 178.701,295.603 191,331.5C 195.986,343.484 202.486,354.484 210.5,364.5C 201.5,364.5 192.5,364.5 183.5,364.5C 170.644,361.271 157.978,357.104 145.5,352C 106.958,335.06 84.1242,305.893 77,264.5C 73.8494,228.703 77.8494,193.703 89,159.5C 94.8874,143.329 101.054,127.329 107.5,111.5 Z"/></g>
<g><path style="opacity:0.992" fill="#ec556a" d="M 289.5,123.5 C 316.5,123.5 343.5,123.5 370.5,123.5C 370.5,142.167 370.5,160.833 370.5,179.5C 370.276,183.562 368.276,186.395 364.5,188C 352.171,188.5 339.838,188.667 327.5,188.5C 323.344,185.243 319.344,181.743 315.5,178C 310.587,175.413 306.42,176.247 303,180.5C 302.295,183.476 301.129,186.142 299.5,188.5C 295.808,189.029 292.642,188.029 290,185.5C 289.5,164.836 289.333,144.169 289.5,123.5 Z"/></g>
<g><path style="opacity:1" fill="#e63295" d="M 525.5,137.5 C 524.883,139.229 523.883,140.729 522.5,142C 516.018,144.27 512.351,142.103 511.5,135.5C 512.228,133.265 513.561,131.432 515.5,130C 521.548,128.882 524.882,131.382 525.5,137.5 Z"/></g>
<g><path style="opacity:1" fill="#4400ad" d="M 340.5,130.5 C 344.909,129.618 348.409,130.952 351,134.5C 352.421,139.604 353.588,144.771 354.5,150C 353.937,154.229 351.604,156.895 347.5,158C 336.612,159.911 325.779,162.078 315,164.5C 311.744,163.578 309.411,161.578 308,158.5C 306.282,152.589 305.616,146.589 306,140.5C 307.214,138.951 308.714,137.785 310.5,137C 320.655,134.925 330.655,132.758 340.5,130.5 Z"/></g>
<g><path style="opacity:1" fill="#fdaa30" d="M 338.5,139.5 C 339.833,139.5 341.167,139.5 342.5,139.5C 342.5,140.5 342.5,141.5 342.5,142.5C 333.832,144.333 325.165,145.833 316.5,147C 315.655,145.442 316.321,144.442 318.5,144C 325.367,142.797 332.033,141.297 338.5,139.5 Z"/></g>
<g><path style="opacity:1" fill="#fda92e" d="M 334.5,146.5 C 335.552,146.351 336.552,146.517 337.5,147C 338.833,147.667 338.833,148.333 337.5,149C 332.596,151.019 327.596,151.519 322.5,150.5C 322.709,149.914 323.043,149.414 323.5,149C 327.347,148.367 331.014,147.533 334.5,146.5 Z"/></g>
<g><path style="opacity:0.989" fill="#e63295" d="M 515.5,274.5 C 519.65,237.782 516.317,201.782 505.5,166.5C 515.024,162.77 524.691,159.436 534.5,156.5C 534.334,162.176 534.501,167.843 535,173.5C 537.39,178.003 539.39,182.669 541,187.5C 550.012,221.807 541.512,250.807 515.5,274.5 Z"/></g>
<g><path style="opacity:0.984" fill="#280076" d="M 377.5,165.5 C 383.512,172.682 390.846,178.182 399.5,182C 411.299,186.521 421.966,184.688 431.5,176.5C 432.092,173.349 432.426,170.349 432.5,167.5C 449.938,176.387 467.271,185.553 484.5,195C 493.924,201.608 496.757,210.442 493,221.5C 484.774,240.286 476.274,258.952 467.5,277.5C 466.675,278.386 465.675,278.719 464.5,278.5C 462.319,278.284 460.653,279.117 459.5,281C 453.751,281.785 448.084,281.618 442.5,280.5C 438.244,281.546 435.578,280.046 434.5,276C 440.921,260.324 447.754,244.824 455,229.5C 456.608,226.649 457.274,223.649 457,220.5C 439.878,215.093 422.711,209.76 405.5,204.5C 402.785,202.928 399.785,201.928 396.5,201.5C 388.982,198.815 382.482,194.482 377,188.5C 375.336,185.673 374.17,182.673 373.5,179.5C 373.392,175.753 373.892,172.086 375,168.5C 375.377,167.058 376.21,166.058 377.5,165.5 Z"/></g>
<g><path style="opacity:0.998" fill="#e63295" d="M 370.5,179.5 C 371.5,179.5 372.5,179.5 373.5,179.5C 374.17,182.673 375.336,185.673 377,188.5C 382.482,194.482 388.982,198.815 396.5,201.5C 377.52,200.731 358.52,200.231 339.5,200C 335.605,195.935 331.605,192.102 327.5,188.5C 339.838,188.667 352.171,188.5 364.5,188C 368.276,186.395 370.276,183.562 370.5,179.5 Z"/></g>
<g><path style="opacity:0.96" fill="#e429a4" d="M 396.5,201.5 C 399.785,201.928 402.785,202.928 405.5,204.5C 406.11,205.391 406.443,206.391 406.5,207.5C 403.159,205.497 399.825,203.497 396.5,201.5 Z"/></g>
<g><path style="opacity:0.986" fill="#e63295" d="M 260.5,214.5 C 264.149,214.155 267.815,214.988 271.5,217C 280.792,226.832 280.792,236.665 271.5,246.5C 263.226,250.609 256.726,248.609 252,240.5C 247.684,229.265 250.517,220.598 260.5,214.5 Z"/></g>
<g><path style="opacity:1" fill="#ffb30d" d="M 206.5,229.5 C 207.167,229.5 207.833,229.5 208.5,229.5C 182.29,268.507 180.79,308.507 204,349.5C 207.666,354.661 211.499,359.661 215.5,364.5C 213.833,364.5 212.167,364.5 210.5,364.5C 202.486,354.484 195.986,343.484 191,331.5C 178.701,295.603 183.034,261.936 204,230.5C 204.671,229.748 205.504,229.414 206.5,229.5 Z"/></g>
<g><path style="opacity:0.995" fill="#fdc369" d="M 208.5,229.5 C 228.188,236.36 240.355,250.027 245,270.5C 249.45,294.261 246.117,316.928 235,338.5C 230.742,347.351 226.242,356.017 221.5,364.5C 219.5,364.5 217.5,364.5 215.5,364.5C 211.499,359.661 207.666,354.661 204,349.5C 180.79,308.507 182.29,268.507 208.5,229.5 Z"/></g>
<g><path style="opacity:0.983" fill="#ed5669" d="M 464.5,278.5 C 464.037,281.482 463.704,284.482 463.5,287.5C 460.833,287.5 458.167,287.5 455.5,287.5C 455.5,288.5 455.5,289.5 455.5,290.5C 451.167,290.5 446.833,290.5 442.5,290.5C 442.5,287.167 442.5,283.833 442.5,280.5C 448.084,281.618 453.751,281.785 459.5,281C 460.653,279.117 462.319,278.284 464.5,278.5 Z"/></g>
<g><path style="opacity:1" fill="#feb10c" d="M 311.5,282.5 C 324.827,281.995 331.327,288.328 331,301.5C 326.358,313.276 318.191,316.442 306.5,311C 298.919,302.946 298.586,294.613 305.5,286C 307.727,285.059 309.727,283.892 311.5,282.5 Z"/></g>
<g><path style="opacity:0.994" fill="#270076" d="M 463.5,287.5 C 467.846,287.334 472.179,287.501 476.5,288C 478.346,289.03 480.013,290.196 481.5,291.5C 484.529,294.901 485.862,298.901 485.5,303.5C 483.167,303.5 480.833,303.5 478.5,303.5C 478.5,304.5 478.5,305.5 478.5,306.5C 465.5,306.5 452.5,306.5 439.5,306.5C 439.5,301.167 439.5,295.833 439.5,290.5C 440.5,290.5 441.5,290.5 442.5,290.5C 446.833,290.5 451.167,290.5 455.5,290.5C 455.5,289.5 455.5,288.5 455.5,287.5C 458.167,287.5 460.833,287.5 463.5,287.5 Z"/></g>
<g><path style="opacity:1" fill="#feb010" d="M 594.5,293.5 C 608.992,292.152 614.826,298.485 612,312.5C 606.341,321.028 599.174,322.528 590.5,317C 584.242,307.796 585.575,299.962 594.5,293.5 Z"/></g>
<g><path style="opacity:0.99" fill="#fdc267" d="M 723.5,364.5 C 711.833,364.5 700.167,364.5 688.5,364.5C 684.685,358.556 682.351,352.056 681.5,345C 682.418,332.055 689.085,326.722 701.5,329C 706.149,331.455 708.983,335.288 710,340.5C 710.5,338.5 711,336.5 711.5,334.5C 710.101,327.34 708.768,320.174 707.5,313C 707.547,302.452 712.88,296.952 723.5,296.5C 734.197,298.027 741.031,304.027 744,314.5C 749.146,332.375 744.979,347.542 731.5,360C 728.609,361.274 725.942,362.774 723.5,364.5 Z"/></g>
</svg>
