<?xml version="1.0" encoding="UTF-8"?>
<!DOCTYPE svg PUBLIC "-//W3C//DTD SVG 1.1//EN" "http://www.w3.org/Graphics/SVG/1.1/DTD/svg11.dtd">
<svg xmlns="http://www.w3.org/2000/svg" version="1.1" width="612px" height="408px" style="shape-rendering:geometricPrecision; text-rendering:geometricPrecision; image-rendering:optimizeQuality; fill-rule:evenodd; clip-rule:evenodd" xmlns:xlink="http://www.w3.org/1999/xlink">
<g><path style="opacity:1" fill="#5a8cba" d="M 322.5,-0.5 C 323.833,-0.5 325.167,-0.5 326.5,-0.5C 328.5,0.833333 330.5,2.16667 332.5,3.5C 327.469,2.40906 322.469,2.40906 317.5,3.5C 318.984,1.92635 320.651,0.593015 322.5,-0.5 Z"/></g>
<g><path style="opacity:0.808" fill="#87b2d2" d="M 315.5,4.5 C 315.027,5.90632 314.027,6.57298 312.5,6.5C 312.973,5.09368 313.973,4.42702 315.5,4.5 Z"/></g>
<g><path style="opacity:1" fill="#0667b0" d="M 332.5,3.5 C 333.167,3.83333 333.833,4.16667 334.5,4.5C 335.252,6.10026 336.252,7.60026 337.5,9C 340.279,9.56104 342.946,10.3944 345.5,11.5C 345.369,12.2389 345.536,12.9056 346,13.5C 348.49,13.9893 350.324,15.3227 351.5,17.5C 353.969,18.0361 356.136,19.0361 358,20.5C 358.383,19.944 358.883,19.6107 359.5,19.5C 359.833,19.5 360.167,19.5 360.5,19.5C 360.821,21.0481 361.821,21.7148 363.5,21.5C 363.196,22.1499 362.863,22.8165 362.5,23.5C 366.192,25.019 369.859,26.3523 373.5,27.5C 373.833,27.5 374.167,27.5 374.5,27.5C 376.105,30.3755 378.105,33.0421 380.5,35.5C 382.409,36.3482 384.409,36.6816 386.5,36.5C 389.878,38.3481 393.545,40.0147 397.5,41.5C 397.833,41.5 398.167,41.5 398.5,41.5C 399.446,44.3126 401.446,45.646 404.5,45.5C 404.833,45.5 405.167,45.5 405.5,45.5C 407.271,49.8125 410.605,51.8125 415.5,51.5C 416.167,51.5 416.5,51.8333 416.5,52.5C 415.475,52.8966 415.308,53.5632 416,54.5C 416.333,54.1667 416.667,53.8333 417,53.5C 418.993,54.914 421.16,55.914 423.5,56.5C 423.987,57.4734 424.487,58.4734 425,59.5C 425.986,58.8288 427.153,58.8288 428.5,59.5C 428.833,59.5 429.167,59.5 429.5,59.5C 430.066,61.0783 431.066,62.4116 432.5,63.5C 436.696,66.5978 441.362,68.5978 446.5,69.5C 447.087,72.806 448.753,73.806 451.5,72.5C 454.004,73.5839 456.337,74.9172 458.5,76.5C 458.5,78.1667 458.5,79.8333 458.5,81.5C 459.5,81.5 460.5,81.5 461.5,81.5C 440.659,89.2234 419.326,96.0567 397.5,102C 395.5,102.833 393.5,103.667 391.5,104.5C 391.863,105.183 392.196,105.85 392.5,106.5C 391.508,106.672 390.842,106.338 390.5,105.5C 390.027,104.094 389.027,103.427 387.5,103.5C 383.345,102.258 379.678,100.258 376.5,97.5C 376.027,96.0937 375.027,95.427 373.5,95.5C 370.24,94.2262 367.24,92.5595 364.5,90.5C 364.027,89.0937 363.027,88.427 361.5,88.5C 356.976,86.9565 352.976,84.6232 349.5,81.5C 349.179,79.9519 348.179,79.2852 346.5,79.5C 346.5,78.5 346.5,77.5 346.5,76.5C 342.959,75.241 339.292,74.241 335.5,73.5C 334.264,70.3787 331.931,69.0454 328.5,69.5C 326.847,69.3404 325.514,68.6737 324.5,67.5C 324.027,66.0937 323.027,65.427 321.5,65.5C 320.508,65.6716 319.842,65.3382 319.5,64.5C 319.027,63.0937 318.027,62.427 316.5,62.5C 314.847,62.3404 313.514,61.6737 312.5,60.5C 312.027,59.0937 311.027,58.427 309.5,58.5C 306.008,57.5903 303.008,55.9236 300.5,53.5C 300.027,52.0937 299.027,51.427 297.5,51.5C 295.847,51.3404 294.514,50.6737 293.5,49.5C 293.027,48.0937 292.027,47.427 290.5,47.5C 290.762,46.0222 290.429,44.6888 289.5,43.5C 287.465,42.9588 285.465,42.2922 283.5,41.5C 283.5,39.5 283.5,37.5 283.5,35.5C 282.293,37.2702 280.626,38.2702 278.5,38.5C 276.402,36.9453 274.069,35.6119 271.5,34.5C 271.291,33.914 270.957,33.414 270.5,33C 271.823,32.1841 272.489,31.0174 272.5,29.5C 285.499,21.3312 298.832,13.6646 312.5,6.5C 314.027,6.57298 315.027,5.90632 315.5,4.5C 315.842,3.66175 316.508,3.32842 317.5,3.5C 322.469,2.40906 327.469,2.40906 332.5,3.5 Z"/></g>
<g><path style="opacity:1" fill="#6c9ac3" d="M 334.5,4.5 C 338.372,6.59743 342.039,8.93076 345.5,11.5C 342.946,10.3944 340.279,9.56104 337.5,9C 336.252,7.60026 335.252,6.10026 334.5,4.5 Z"/></g>
<g><path style="opacity:1" fill="#5285b7" d="M 345.5,11.5 C 350.5,13.6643 355.167,16.331 359.5,19.5C 358.883,19.6107 358.383,19.944 358,20.5C 356.136,19.0361 353.969,18.0361 351.5,17.5C 350.324,15.3227 348.49,13.9893 346,13.5C 345.536,12.9056 345.369,12.2389 345.5,11.5 Z"/></g>
<g><path style="opacity:0.929" fill="#8bb3d5" d="M 360.5,19.5 C 361.71,19.9321 362.71,20.5987 363.5,21.5C 361.821,21.7148 360.821,21.0481 360.5,19.5 Z"/></g>
<g><path style="opacity:1" fill="#5289b9" d="M 363.5,21.5 C 367.201,23.0116 370.534,25.0116 373.5,27.5C 369.859,26.3523 366.192,25.019 362.5,23.5C 362.863,22.8165 363.196,22.1499 363.5,21.5 Z"/></g>
<g><path style="opacity:0.455" fill="#aac7da" d="M 267.5,32.5 C 267.5,33.1667 267.5,33.8333 267.5,34.5C 264.833,33.8333 264.833,33.1667 267.5,32.5 Z"/></g>
<g><path style="opacity:1" fill="#3172aa" d="M 374.5,27.5 C 377.833,29.5 381.167,31.5 384.5,33.5C 384.782,34.7777 385.449,35.7777 386.5,36.5C 384.409,36.6816 382.409,36.3482 380.5,35.5C 378.105,33.0421 376.105,30.3755 374.5,27.5 Z"/></g>
<g><path style="opacity:1" fill="#3977af" d="M 272.5,29.5 C 272.489,31.0174 271.823,32.1841 270.5,33C 270.957,33.414 271.291,33.914 271.5,34.5C 274.069,35.6119 276.402,36.9453 278.5,38.5C 280.626,38.2702 282.293,37.2702 283.5,35.5C 283.5,37.5 283.5,39.5 283.5,41.5C 285.465,42.2922 287.465,42.9588 289.5,43.5C 290.429,44.6888 290.762,46.0222 290.5,47.5C 284.835,45.0031 279.502,42.0031 274.5,38.5C 274.027,37.0937 273.027,36.427 271.5,36.5C 269.847,36.3404 268.514,35.6737 267.5,34.5C 267.5,33.8333 267.5,33.1667 267.5,32.5C 268.659,30.7497 270.326,29.7497 272.5,29.5 Z"/></g>
<g><path style="opacity:0.439" fill="#93c0de" d="M 271.5,36.5 C 273.027,36.427 274.027,37.0937 274.5,38.5C 272.973,38.573 271.973,37.9063 271.5,36.5 Z"/></g>
<g><path style="opacity:1" fill="#6198c2" d="M 384.5,33.5 C 389.037,35.9301 393.37,38.5968 397.5,41.5C 393.545,40.0147 389.878,38.3481 386.5,36.5C 385.449,35.7777 384.782,34.7777 384.5,33.5 Z"/></g>
<g><path style="opacity:1" fill="#739ec4" d="M 398.5,41.5 C 400.882,42.3507 402.882,43.684 404.5,45.5C 401.446,45.646 399.446,44.3126 398.5,41.5 Z"/></g>
<g><path style="opacity:0.408" fill="#92c4e3" d="M 290.5,47.5 C 292.027,47.427 293.027,48.0937 293.5,49.5C 291.973,49.573 290.973,48.9063 290.5,47.5 Z"/></g>
<g><path style="opacity:1" fill="#6196bf" d="M 405.5,45.5 C 408.869,47.5146 412.202,49.5146 415.5,51.5C 410.605,51.8125 407.271,49.8125 405.5,45.5 Z"/></g>
<g><path style="opacity:0.451" fill="#9cc6e2" d="M 297.5,51.5 C 299.027,51.427 300.027,52.0937 300.5,53.5C 298.973,53.573 297.973,52.9063 297.5,51.5 Z"/></g>
<g><path style="opacity:1" fill="#76a4cd" d="M 416.5,52.5 C 419.331,53.0787 421.664,54.412 423.5,56.5C 421.16,55.914 418.993,54.914 417,53.5C 416.667,53.8333 416.333,54.1667 416,54.5C 415.308,53.5632 415.475,52.8966 416.5,52.5 Z"/></g>
<g><path style="opacity:1" fill="#679dcc" d="M 423.5,56.5 C 425.674,56.7497 427.341,57.7497 428.5,59.5C 427.153,58.8288 425.986,58.8288 425,59.5C 424.487,58.4734 423.987,57.4734 423.5,56.5 Z"/></g>
<g><path style="opacity:0.384" fill="#a5c6e2" d="M 309.5,58.5 C 311.027,58.427 312.027,59.0937 312.5,60.5C 310.973,60.573 309.973,59.9063 309.5,58.5 Z"/></g>
<g><path style="opacity:1" fill="#6494bc" d="M 429.5,59.5 C 435.367,62.5961 441.033,65.9294 446.5,69.5C 441.362,68.5978 436.696,66.5978 432.5,63.5C 431.066,62.4116 430.066,61.0783 429.5,59.5 Z"/></g>
<g><path style="opacity:0.427" fill="#9ec3de" d="M 316.5,62.5 C 318.027,62.427 319.027,63.0937 319.5,64.5C 317.973,64.573 316.973,63.9063 316.5,62.5 Z"/></g>
<g><path style="opacity:0.345" fill="#a8cfec" d="M 321.5,65.5 C 323.027,65.427 324.027,66.0937 324.5,67.5C 322.973,67.573 321.973,66.9063 321.5,65.5 Z"/></g>
<g><path style="opacity:1" fill="#6192c1" d="M 328.5,69.5 C 331.931,69.0454 334.264,70.3787 335.5,73.5C 332.669,72.9213 330.336,71.588 328.5,69.5 Z"/></g>
<g><path style="opacity:1" fill="#6095c0" d="M 446.5,69.5 C 448.434,70.1103 450.101,71.1103 451.5,72.5C 448.753,73.806 447.087,72.806 446.5,69.5 Z"/></g>
<g><path style="opacity:1" fill="#5087bb" d="M 335.5,73.5 C 339.292,74.241 342.959,75.241 346.5,76.5C 346.5,77.5 346.5,78.5 346.5,79.5C 348.179,79.2852 349.179,79.9519 349.5,81.5C 344.5,79.3357 339.833,76.669 335.5,73.5 Z"/></g>
<g><path style="opacity:0.073" fill="#e3f1fe" d="M 184.5,81.5 C 183.502,107.328 183.169,133.328 183.5,159.5C 182.171,133.33 182.171,106.997 183.5,80.5C 184.107,80.6236 184.44,80.9569 184.5,81.5 Z"/></g>
<g><path style="opacity:1" fill="#0467b0" d="M 463.5,83.5 C 464.49,108.759 464.823,134.092 464.5,159.5C 464.5,159.833 464.5,160.167 464.5,160.5C 462.473,160.338 460.473,160.505 458.5,161C 460.619,161.342 460.953,162.175 459.5,163.5C 458.101,164.89 456.434,165.89 454.5,166.5C 452.5,166.5 450.5,166.5 448.5,166.5C 448.5,167.5 448.5,168.5 448.5,169.5C 444.8,169.536 442.133,171.203 440.5,174.5C 438.19,170.214 437.19,170.548 437.5,175.5C 434.711,177.014 431.711,178.014 428.5,178.5C 428.5,179.5 428.5,180.5 428.5,181.5C 428.158,182.338 427.492,182.672 426.5,182.5C 423.749,184.025 420.083,184.692 415.5,184.5C 413.847,184.34 412.514,183.674 411.5,182.5C 411.027,181.094 410.027,180.427 408.5,180.5C 406.847,180.34 405.514,179.674 404.5,178.5C 404.027,177.094 403.027,176.427 401.5,176.5C 400.821,173.293 399.654,170.293 398,167.5C 396.603,170.307 394.769,170.807 392.5,169C 392.957,168.586 393.291,168.086 393.5,167.5C 389.112,166.59 384.778,165.59 380.5,164.5C 379.508,164.672 378.842,164.338 378.5,163.5C 378.027,162.094 377.027,161.427 375.5,161.5C 370.5,159.336 365.833,156.669 361.5,153.5C 359.58,151.534 357.58,149.534 355.5,147.5C 356.953,145.815 358.286,144.149 359.5,142.5C 363.586,141.57 367.586,140.403 371.5,139C 373.867,136.494 376.201,133.994 378.5,131.5C 380.027,131.573 381.027,130.906 381.5,129.5C 385.558,129.428 389.058,128.095 392,125.5C 394.217,126.047 396.217,127.047 398,128.5C 401.984,126.01 405.817,123.344 409.5,120.5C 408.833,120.167 408.167,119.833 407.5,119.5C 403.887,121.13 400.553,123.13 397.5,125.5C 396.833,125.167 396.167,124.833 395.5,124.5C 397.207,123.127 398.54,121.461 399.5,119.5C 401.027,119.573 402.027,118.906 402.5,117.5C 403.429,116.685 404.429,115.852 405.5,115C 404.944,114.617 404.611,114.117 404.5,113.5C 405.847,114.028 407.181,114.195 408.5,114C 426.212,102.809 444.545,92.6419 463.5,83.5 Z"/></g>
<g><path style="opacity:1" fill="#7397bb" d="M 194.5,87.5 C 197.331,88.0787 199.664,89.412 201.5,91.5C 198.594,90.892 196.26,89.5587 194.5,87.5 Z"/></g>
<g><path style="opacity:1" fill="#043982" d="M 461.5,81.5 C 462.833,81.5 463.5,82.1667 463.5,83.5C 444.545,92.6419 426.212,102.809 408.5,114C 407.181,114.195 405.847,114.028 404.5,113.5C 403.508,113.672 402.842,113.338 402.5,112.5C 402.027,111.094 401.027,110.427 399.5,110.5C 397.847,110.34 396.514,109.674 395.5,108.5C 395.027,107.094 394.027,106.427 392.5,106.5C 392.196,105.85 391.863,105.183 391.5,104.5C 393.5,103.667 395.5,102.833 397.5,102C 419.326,96.0567 440.659,89.2234 461.5,81.5 Z"/></g>
<g><path style="opacity:0.42" fill="#97c5e1" d="M 361.5,88.5 C 363.027,88.427 364.027,89.0937 364.5,90.5C 362.973,90.573 361.973,89.9063 361.5,88.5 Z"/></g>
<g><path style="opacity:0.957" fill="#7b9ec1" d="M 202.5,91.5 C 203.71,91.9321 204.71,92.5987 205.5,93.5C 203.821,93.7148 202.821,93.0481 202.5,91.5 Z"/></g>
<g><path style="opacity:1" fill="#075098" d="M 187.5,83.5 C 190.331,84.0787 192.664,85.412 194.5,87.5C 196.26,89.5587 198.594,90.892 201.5,91.5C 201.833,91.5 202.167,91.5 202.5,91.5C 202.821,93.0481 203.821,93.7148 205.5,93.5C 209.3,95.2336 212.966,97.2336 216.5,99.5C 217.421,101.269 218.588,102.935 220,104.5C 220.333,104.167 220.667,103.833 221,103.5C 223.139,105.035 225.139,106.701 227,108.5C 228.107,107.288 228.607,107.621 228.5,109.5C 227.748,111.1 226.748,112.6 225.5,114C 226.337,115.011 226.67,116.178 226.5,117.5C 223.459,117.406 221.793,118.906 221.5,122C 218.289,122.732 216.289,124.566 215.5,127.5C 212.094,129.445 208.428,130.945 204.5,132C 203.5,133.667 202.5,135.333 201.5,137C 193.65,137.535 189.483,141.701 189,149.5C 188.952,146.671 187.952,144.337 186,142.5C 185.827,148.016 185.327,153.349 184.5,158.5C 184.333,133.831 184.5,109.164 185,84.5C 185.671,83.7476 186.504,83.4142 187.5,83.5 Z"/></g>
<g><path style="opacity:1" fill="#1a649d" d="M 458.5,76.5 C 461.004,77.5839 463.337,78.9172 465.5,80.5C 465.831,107.005 465.498,133.339 464.5,159.5C 464.823,134.092 464.49,108.759 463.5,83.5C 463.5,82.1667 462.833,81.5 461.5,81.5C 460.5,81.5 459.5,81.5 458.5,81.5C 458.5,79.8333 458.5,78.1667 458.5,76.5 Z"/></g>
<g><path style="opacity:0.369" fill="#a5cce9" d="M 373.5,95.5 C 375.027,95.427 376.027,96.0937 376.5,97.5C 374.973,97.573 373.973,96.9063 373.5,95.5 Z"/></g>
<g><path style="opacity:0.533" fill="#8cb4d1" d="M 387.5,103.5 C 389.027,103.427 390.027,104.094 390.5,105.5C 388.973,105.573 387.973,104.906 387.5,103.5 Z"/></g>
<g><path style="opacity:0.4" fill="#95b5cd" d="M 392.5,106.5 C 394.027,106.427 395.027,107.094 395.5,108.5C 393.973,108.573 392.973,107.906 392.5,106.5 Z"/></g>
<g><path style="opacity:1" fill="#678db8" d="M 216.5,99.5 C 224.369,103.93 232.036,108.597 239.5,113.5C 235.942,111.888 232.275,110.555 228.5,109.5C 228.607,107.621 228.107,107.288 227,108.5C 225.139,106.701 223.139,105.035 221,103.5C 220.667,103.833 220.333,104.167 220,104.5C 218.588,102.935 217.421,101.269 216.5,99.5 Z"/></g>
<g><path style="opacity:0.459" fill="#93aacd" d="M 399.5,110.5 C 401.027,110.427 402.027,111.094 402.5,112.5C 400.973,112.573 399.973,111.906 399.5,110.5 Z"/></g>
<g><path style="opacity:0.954" fill="#306497" d="M 184.5,81.5 C 186.027,81.427 187.027,82.0937 187.5,83.5C 186.504,83.4142 185.671,83.7476 185,84.5C 184.5,109.164 184.333,133.831 184.5,158.5C 185.167,159.5 185.833,160.5 186.5,161.5C 184.973,161.573 183.973,160.906 183.5,159.5C 183.169,133.328 183.502,107.328 184.5,81.5 Z"/></g>
<g><path style="opacity:0.345" fill="#a8cde8" d="M 465.5,80.5 C 466.167,93.6624 466.5,106.996 466.5,120.5C 466.499,134.184 465.833,147.517 464.5,160.5C 464.5,160.167 464.5,159.833 464.5,159.5C 465.498,133.339 465.831,107.005 465.5,80.5 Z"/></g>
<g><path style="opacity:1" fill="#04559e" d="M 228.5,109.5 C 232.275,110.555 235.942,111.888 239.5,113.5C 239.833,113.5 240.167,113.5 240.5,113.5C 241.406,115.417 242.739,117.083 244.5,118.5C 244.291,119.086 243.957,119.586 243.5,120C 245.134,120.494 246.801,120.66 248.5,120.5C 247.929,121.973 247.929,123.64 248.5,125.5C 247.022,125.238 245.689,125.571 244.5,126.5C 246.478,127.803 246.478,129.469 244.5,131.5C 243.158,133.005 241.492,133.672 239.5,133.5C 239.5,134.833 239.5,136.167 239.5,137.5C 234.167,137.5 228.833,137.5 223.5,137.5C 223.5,138.833 223.5,140.167 223.5,141.5C 220.351,141.211 217.351,141.711 214.5,143C 215.624,143.249 216.624,143.749 217.5,144.5C 216.248,146.001 215.248,147.668 214.5,149.5C 212.5,150.833 210.5,152.167 208.5,153.5C 207.867,156.495 206.867,159.328 205.5,162C 202.672,162.969 200.338,162.303 198.5,160C 198.833,159.667 199.167,159.333 199.5,159C 197.421,158.192 195.421,158.359 193.5,159.5C 194.09,160.799 195.09,161.632 196.5,162C 194.527,162.495 192.527,162.662 190.5,162.5C 189.432,161.566 188.099,161.232 186.5,161.5C 185.833,160.5 185.167,159.5 184.5,158.5C 185.327,153.349 185.827,148.016 186,142.5C 187.952,144.337 188.952,146.671 189,149.5C 189.483,141.701 193.65,137.535 201.5,137C 202.5,135.333 203.5,133.667 204.5,132C 208.428,130.945 212.094,129.445 215.5,127.5C 216.289,124.566 218.289,122.732 221.5,122C 221.793,118.906 223.459,117.406 226.5,117.5C 226.67,116.178 226.337,115.011 225.5,114C 226.748,112.6 227.748,111.1 228.5,109.5 Z"/></g>
<g><path style="opacity:0.859" fill="#7aaec9" d="M 402.5,117.5 C 402.027,118.906 401.027,119.573 399.5,119.5C 399.973,118.094 400.973,117.427 402.5,117.5 Z"/></g>
<g><path style="opacity:1" fill="#4571a8" d="M 240.5,113.5 C 247.534,117.012 254.201,121.012 260.5,125.5C 257.473,125.139 254.306,125.139 251,125.5C 250.812,123.657 249.979,121.99 248.5,120.5C 246.801,120.66 245.134,120.494 243.5,120C 243.957,119.586 244.291,119.086 244.5,118.5C 242.739,117.083 241.406,115.417 240.5,113.5 Z"/></g>
<g><path style="opacity:1" fill="#2a70af" d="M 399.5,119.5 C 398.54,121.461 397.207,123.127 395.5,124.5C 396.167,124.833 396.833,125.167 397.5,125.5C 400.553,123.13 403.887,121.13 407.5,119.5C 408.167,119.833 408.833,120.167 409.5,120.5C 405.817,123.344 401.984,126.01 398,128.5C 396.217,127.047 394.217,126.047 392,125.5C 389.058,128.095 385.558,129.428 381.5,129.5C 387.17,125.663 393.17,122.33 399.5,119.5 Z"/></g>
<g><path style="opacity:1" fill="#055aa3" d="M 248.5,120.5 C 249.979,121.99 250.812,123.657 251,125.5C 254.306,125.139 257.473,125.139 260.5,125.5C 264.558,130.535 269.891,133.535 276.5,134.5C 276.799,136.455 277.799,137.789 279.5,138.5C 275.813,139.106 272.146,140.272 268.5,142C 267.87,143.892 266.87,145.559 265.5,147C 260.392,147.364 257.059,149.864 255.5,154.5C 252.833,155.167 250.167,155.833 247.5,156.5C 247.5,157.5 247.5,158.5 247.5,159.5C 243.459,161.661 239.459,164.161 235.5,167C 234.207,167.49 232.873,167.657 231.5,167.5C 231.5,168.5 231.5,169.5 231.5,170.5C 229.213,170.724 227.047,171.391 225,172.5C 224.228,172.355 223.561,172.022 223,171.5C 219.092,175.869 220.259,177.702 226.5,177C 225.167,177.333 223.833,177.667 222.5,178C 225.121,178.906 224.954,179.406 222,179.5C 218.121,177.033 213.955,175.033 209.5,173.5C 208.833,173.5 208.167,173.5 207.5,173.5C 206.402,172.603 206.402,171.77 207.5,171C 204.487,170.091 201.487,169.258 198.5,168.5C 197.508,168.672 196.842,168.338 196.5,167.5C 195.656,165.241 193.989,164.241 191.5,164.5C 191.167,163.833 190.833,163.167 190.5,162.5C 192.527,162.662 194.527,162.495 196.5,162C 195.09,161.632 194.09,160.799 193.5,159.5C 195.421,158.359 197.421,158.192 199.5,159C 199.167,159.333 198.833,159.667 198.5,160C 200.338,162.303 202.672,162.969 205.5,162C 206.867,159.328 207.867,156.495 208.5,153.5C 210.5,152.167 212.5,150.833 214.5,149.5C 215.248,147.668 216.248,146.001 217.5,144.5C 216.624,143.749 215.624,143.249 214.5,143C 217.351,141.711 220.351,141.211 223.5,141.5C 223.5,140.167 223.5,138.833 223.5,137.5C 228.833,137.5 234.167,137.5 239.5,137.5C 239.5,136.167 239.5,134.833 239.5,133.5C 241.492,133.672 243.158,133.005 244.5,131.5C 246.478,129.469 246.478,127.803 244.5,126.5C 245.689,125.571 247.022,125.238 248.5,125.5C 247.929,123.64 247.929,121.973 248.5,120.5 Z"/></g>
<g><path style="opacity:1" fill="#6187b4" d="M 260.5,125.5 C 266.165,127.997 271.498,130.997 276.5,134.5C 269.891,133.535 264.558,130.535 260.5,125.5 Z"/></g>
<g><path style="opacity:0.749" fill="#90b8d8" d="M 381.5,129.5 C 381.027,130.906 380.027,131.573 378.5,131.5C 378.973,130.094 379.973,129.427 381.5,129.5 Z"/></g>
<g><path style="opacity:1" fill="#4079b0" d="M 378.5,131.5 C 376.201,133.994 373.867,136.494 371.5,139C 367.586,140.403 363.586,141.57 359.5,142.5C 365.334,138.079 371.668,134.412 378.5,131.5 Z"/></g>
<g><path style="opacity:1" fill="#5a87b8" d="M 276.5,134.5 C 280.173,136 283.506,138 286.5,140.5C 285.504,140.414 284.671,140.748 284,141.5C 283.092,139.561 281.592,138.561 279.5,138.5C 277.799,137.789 276.799,136.455 276.5,134.5 Z"/></g>
<g><path style="opacity:1" fill="#739abc" d="M 286.5,140.5 C 288.674,140.75 290.341,141.75 291.5,143.5C 289.011,143.759 287.344,142.759 286.5,140.5 Z"/></g>
<g><path style="opacity:1" fill="#0760a9" d="M 279.5,138.5 C 281.592,138.561 283.092,139.561 284,141.5C 284.671,140.748 285.504,140.414 286.5,140.5C 287.344,142.759 289.011,143.759 291.5,143.5C 291.833,143.5 292.167,143.5 292.5,143.5C 293.929,146.599 296.262,148.599 299.5,149.5C 298.957,149.56 298.624,149.893 298.5,150.5C 303.507,152.618 303.173,154.618 297.5,156.5C 298.833,157.167 300.167,157.833 301.5,158.5C 301.291,159.086 300.957,159.586 300.5,160C 297.487,159.55 294.487,158.717 291.5,157.5C 290.167,157.667 288.833,157.833 287.5,158C 289.923,158.732 291.09,160.232 291,162.5C 285.598,166.966 279.431,169.466 272.5,170C 270.32,172.54 268.486,175.373 267,178.5C 264.444,179.219 263.277,180.886 263.5,183.5C 257.197,182.933 252.53,185.433 249.5,191C 246.544,192.663 243.544,192.829 240.5,191.5C 240.5,190.167 240.5,188.833 240.5,187.5C 239.07,187.421 237.736,187.754 236.5,188.5C 234.49,186.829 232.157,186.162 229.5,186.5C 228.223,183.448 225.89,182.115 222.5,182.5C 220.566,181.89 218.899,180.89 217.5,179.5C 217.027,178.094 216.027,177.427 214.5,177.5C 212.847,177.34 211.514,176.674 210.5,175.5C 210.167,174.833 209.833,174.167 209.5,173.5C 213.955,175.033 218.121,177.033 222,179.5C 224.954,179.406 225.121,178.906 222.5,178C 223.833,177.667 225.167,177.333 226.5,177C 220.259,177.702 219.092,175.869 223,171.5C 223.561,172.022 224.228,172.355 225,172.5C 227.047,171.391 229.213,170.724 231.5,170.5C 231.5,169.5 231.5,168.5 231.5,167.5C 232.873,167.657 234.207,167.49 235.5,167C 239.459,164.161 243.459,161.661 247.5,159.5C 247.5,158.5 247.5,157.5 247.5,156.5C 250.167,155.833 252.833,155.167 255.5,154.5C 257.059,149.864 260.392,147.364 265.5,147C 266.87,145.559 267.87,143.892 268.5,142C 272.146,140.272 275.813,139.106 279.5,138.5 Z"/></g>
<g><path style="opacity:1" fill="#6b94bc" d="M 292.5,143.5 C 296.118,145.137 299.451,147.137 302.5,149.5C 301.5,149.5 300.5,149.5 299.5,149.5C 296.262,148.599 293.929,146.599 292.5,143.5 Z"/></g>
<g><path style="opacity:1" fill="#588ab7" d="M 359.5,142.5 C 358.286,144.149 356.953,145.815 355.5,147.5C 357.58,149.534 359.58,151.534 361.5,153.5C 358.24,152.226 355.24,150.56 352.5,148.5C 352.5,147.833 352.5,147.167 352.5,146.5C 354.336,144.412 356.669,143.079 359.5,142.5 Z"/></g>
<g><path style="opacity:0.388" fill="#b6d1e2" d="M 352.5,146.5 C 352.5,147.167 352.5,147.833 352.5,148.5C 349.833,147.833 349.833,147.167 352.5,146.5 Z"/></g>
<g><path style="opacity:1" fill="#5c8dba" d="M 303.5,150.5 C 307.655,151.742 311.322,153.742 314.5,156.5C 312.801,156.66 311.134,156.494 309.5,156C 308.33,154.245 306.663,153.245 304.5,153C 303.748,152.329 303.414,151.496 303.5,150.5 Z"/></g>
<g><path style="opacity:1" fill="#0866b0" d="M 299.5,149.5 C 300.5,149.5 301.5,149.5 302.5,149.5C 303.167,149.5 303.5,149.833 303.5,150.5C 303.414,151.496 303.748,152.329 304.5,153C 306.663,153.245 308.33,154.245 309.5,156C 311.134,156.494 312.801,156.66 314.5,156.5C 314.389,157.117 314.056,157.617 313.5,158C 314.9,159.438 316.567,160.271 318.5,160.5C 318.986,162.807 318.986,164.973 318.5,167C 320.531,167.632 322.198,168.799 323.5,170.5C 322.289,171.72 322.289,172.887 323.5,174C 322.464,175.617 321.297,175.784 320,174.5C 319.506,176.134 319.34,177.801 319.5,179.5C 315.275,179.772 312.275,181.772 310.5,185.5C 301.862,191.59 292.862,197.256 283.5,202.5C 282.395,203.892 281.061,205.059 279.5,206C 281.074,206.336 282.408,207.169 283.5,208.5C 282.167,209.5 280.833,210.5 279.5,211.5C 275.433,209.839 271.433,208.006 267.5,206C 269.002,205.417 270.335,204.584 271.5,203.5C 271,203.167 270.5,202.833 270,202.5C 268.211,203.409 266.377,203.576 264.5,203C 267.106,202.55 268.439,201.05 268.5,198.5C 267.448,198.351 266.448,198.517 265.5,199C 262.538,203.514 259.538,203.514 256.5,199C 253.883,198.178 251.216,197.678 248.5,197.5C 248.027,196.094 247.027,195.427 245.5,195.5C 243.847,195.34 242.514,194.674 241.5,193.5C 241.167,192.833 240.833,192.167 240.5,191.5C 243.544,192.829 246.544,192.663 249.5,191C 252.53,185.433 257.197,182.933 263.5,183.5C 263.277,180.886 264.444,179.219 267,178.5C 268.486,175.373 270.32,172.54 272.5,170C 279.431,169.466 285.598,166.966 291,162.5C 291.09,160.232 289.923,158.732 287.5,158C 288.833,157.833 290.167,157.667 291.5,157.5C 294.487,158.717 297.487,159.55 300.5,160C 300.957,159.586 301.291,159.086 301.5,158.5C 300.167,157.833 298.833,157.167 297.5,156.5C 303.173,154.618 303.507,152.618 298.5,150.5C 298.624,149.893 298.957,149.56 299.5,149.5 Z"/></g>
<g><path style="opacity:1" fill="#6095c2" d="M 464.5,160.5 C 463.101,161.89 461.434,162.89 459.5,163.5C 460.953,162.175 460.619,161.342 458.5,161C 460.473,160.505 462.473,160.338 464.5,160.5 Z"/></g>
<g><path style="opacity:1" fill="#5d86b2" d="M 186.5,161.5 C 188.099,161.232 189.432,161.566 190.5,162.5C 190.833,163.167 191.167,163.833 191.5,164.5C 189.566,163.89 187.899,162.89 186.5,161.5 Z"/></g>
<g><path style="opacity:0.384" fill="#a5c9e5" d="M 375.5,161.5 C 377.027,161.427 378.027,162.094 378.5,163.5C 376.973,163.573 375.973,162.906 375.5,161.5 Z"/></g>
<g><path style="opacity:0.925" fill="#85b4d8" d="M 325.5,162.5 C 327.23,163.026 328.564,164.026 329.5,165.5C 327.368,165.446 326.035,164.446 325.5,162.5 Z"/></g>
<g><path style="opacity:1" fill="#6a90bb" d="M 191.5,164.5 C 193.989,164.241 195.656,165.241 196.5,167.5C 194.566,166.89 192.899,165.89 191.5,164.5 Z"/></g>
<g><path style="opacity:1" fill="#3776b3" d="M 380.5,164.5 C 384.778,165.59 389.112,166.59 393.5,167.5C 393.291,168.086 392.957,168.586 392.5,169C 394.769,170.807 396.603,170.307 398,167.5C 399.654,170.293 400.821,173.293 401.5,176.5C 398.24,175.226 395.24,173.56 392.5,171.5C 392.027,170.094 391.027,169.427 389.5,169.5C 386.008,168.59 383.008,166.924 380.5,164.5 Z"/></g>
<g><path style="opacity:1" fill="#699bc4" d="M 330.5,165.5 C 332.882,166.351 334.882,167.684 336.5,169.5C 333.446,169.646 331.446,168.313 330.5,165.5 Z"/></g>
<g><path style="opacity:1" fill="#5481b2" d="M 198.5,168.5 C 201.487,169.258 204.487,170.091 207.5,171C 206.402,171.77 206.402,172.603 207.5,173.5C 204.008,172.59 201.008,170.924 198.5,168.5 Z"/></g>
<g><path style="opacity:0.447" fill="#98c3e5" d="M 389.5,169.5 C 391.027,169.427 392.027,170.094 392.5,171.5C 390.973,171.573 389.973,170.906 389.5,169.5 Z"/></g>
<g><path style="opacity:0.988" fill="#5c8eb9" d="M 454.5,166.5 C 450.167,169.669 445.5,172.336 440.5,174.5C 442.133,171.203 444.8,169.536 448.5,169.5C 448.5,168.5 448.5,167.5 448.5,166.5C 450.5,166.5 452.5,166.5 454.5,166.5 Z"/></g>
<g><path style="opacity:1" fill="#146cb2" d="M 314.5,156.5 C 318.3,158.234 321.966,160.234 325.5,162.5C 326.035,164.446 327.368,165.446 329.5,165.5C 329.833,165.5 330.167,165.5 330.5,165.5C 331.446,168.313 333.446,169.646 336.5,169.5C 337.609,169.557 338.609,169.89 339.5,170.5C 340.167,171.833 340.833,173.167 341.5,174.5C 339.9,173.488 338.566,173.988 337.5,176C 339.436,176.813 341.436,177.313 343.5,177.5C 343.5,179.167 343.5,180.833 343.5,182.5C 340.873,181.908 338.206,181.575 335.5,181.5C 335.5,182.833 335.5,184.167 335.5,185.5C 336.833,185.5 338.167,185.5 339.5,185.5C 338.46,190.394 336.46,190.727 333.5,186.5C 328.767,188.211 324.1,189.877 319.5,191.5C 319.759,194.48 318.426,196.313 315.5,197C 311.514,197.499 307.514,197.666 303.5,197.5C 303.768,200.119 303.435,202.619 302.5,205C 300.697,205.637 299.364,206.803 298.5,208.5C 294.947,209.966 291.614,209.632 288.5,207.5C 286.684,209.817 284.684,211.984 282.5,214C 286.114,216.833 287.781,216 287.5,211.5C 295.128,213.763 295.128,215.763 287.5,217.5C 290.827,219 294.161,220.5 297.5,222C 298.823,222.816 299.489,223.983 299.5,225.5C 298.833,225.5 298.167,225.5 297.5,225.5C 295.847,225.34 294.514,224.674 293.5,223.5C 293.027,222.094 292.027,221.427 290.5,221.5C 288.847,221.34 287.514,220.674 286.5,219.5C 285.656,217.241 283.989,216.241 281.5,216.5C 276.5,214.336 271.833,211.669 267.5,208.5C 267.027,207.094 266.027,206.427 264.5,206.5C 263.508,206.672 262.842,206.338 262.5,205.5C 262.027,204.094 261.027,203.427 259.5,203.5C 257.847,203.34 256.514,202.674 255.5,201.5C 255.027,200.094 254.027,199.427 252.5,199.5C 250.847,199.34 249.514,198.674 248.5,197.5C 251.216,197.678 253.883,198.178 256.5,199C 259.538,203.514 262.538,203.514 265.5,199C 266.448,198.517 267.448,198.351 268.5,198.5C 268.439,201.05 267.106,202.55 264.5,203C 266.377,203.576 268.211,203.409 270,202.5C 270.5,202.833 271,203.167 271.5,203.5C 270.335,204.584 269.002,205.417 267.5,206C 271.433,208.006 275.433,209.839 279.5,211.5C 280.833,210.5 282.167,209.5 283.5,208.5C 282.408,207.169 281.074,206.336 279.5,206C 281.061,205.059 282.395,203.892 283.5,202.5C 292.862,197.256 301.862,191.59 310.5,185.5C 312.275,181.772 315.275,179.772 319.5,179.5C 319.34,177.801 319.506,176.134 320,174.5C 321.297,175.784 322.464,175.617 323.5,174C 322.289,172.887 322.289,171.72 323.5,170.5C 322.198,168.799 320.531,167.632 318.5,167C 318.986,164.973 318.986,162.807 318.5,160.5C 316.567,160.271 314.9,159.438 313.5,158C 314.056,157.617 314.389,157.117 314.5,156.5 Z"/></g>
<g><path style="opacity:0.412" fill="#99c1e2" d="M 207.5,173.5 C 208.167,173.5 208.833,173.5 209.5,173.5C 209.833,174.167 210.167,174.833 210.5,175.5C 208.973,175.573 207.973,174.906 207.5,173.5 Z"/></g>
<g><path style="opacity:0.376" fill="#a6cae6" d="M 401.5,176.5 C 403.027,176.427 404.027,177.094 404.5,178.5C 402.973,178.573 401.973,177.906 401.5,176.5 Z"/></g>
<g><path style="opacity:0.463" fill="#91bdde" d="M 214.5,177.5 C 216.027,177.427 217.027,178.094 217.5,179.5C 215.973,179.573 214.973,178.906 214.5,177.5 Z"/></g>
<g><path style="opacity:1" fill="#598dbc" d="M 440.5,174.5 C 436.836,177.335 432.836,179.668 428.5,181.5C 428.5,180.5 428.5,179.5 428.5,178.5C 431.711,178.014 434.711,177.014 437.5,175.5C 437.19,170.548 438.19,170.214 440.5,174.5 Z"/></g>
<g><path style="opacity:1" fill="#096eb8" d="M 341.5,174.5 C 348.049,178.583 355.049,181.916 362.5,184.5C 362.5,185.5 362.5,186.5 362.5,187.5C 359.979,187.56 357.646,186.894 355.5,185.5C 352.157,187.486 350.824,190.486 351.5,194.5C 345.709,196.616 339.709,197.95 333.5,198.5C 331.668,199.248 330.001,200.248 328.5,201.5C 326.869,204.111 325.869,206.611 325.5,209C 323.527,209.495 321.527,209.662 319.5,209.5C 319.5,211.5 319.5,213.5 319.5,215.5C 314.706,216.986 309.706,217.819 304.5,218C 303.065,220.267 303.398,222.267 305.5,224C 303.655,225.128 301.655,225.628 299.5,225.5C 299.489,223.983 298.823,222.816 297.5,222C 294.161,220.5 290.827,219 287.5,217.5C 295.128,215.763 295.128,213.763 287.5,211.5C 287.781,216 286.114,216.833 282.5,214C 284.684,211.984 286.684,209.817 288.5,207.5C 291.614,209.632 294.947,209.966 298.5,208.5C 299.364,206.803 300.697,205.637 302.5,205C 303.435,202.619 303.768,200.119 303.5,197.5C 307.514,197.666 311.514,197.499 315.5,197C 318.426,196.313 319.759,194.48 319.5,191.5C 324.1,189.877 328.767,188.211 333.5,186.5C 336.46,190.727 338.46,190.394 339.5,185.5C 338.167,185.5 336.833,185.5 335.5,185.5C 335.5,184.167 335.5,182.833 335.5,181.5C 338.206,181.575 340.873,181.908 343.5,182.5C 343.5,180.833 343.5,179.167 343.5,177.5C 341.436,177.313 339.436,176.813 337.5,176C 338.566,173.988 339.9,173.488 341.5,174.5 Z"/></g>
<g><path style="opacity:1" fill="#6194c0" d="M 339.5,170.5 C 347.369,174.93 355.036,179.597 362.5,184.5C 355.049,181.916 348.049,178.583 341.5,174.5C 340.833,173.167 340.167,171.833 339.5,170.5 Z"/></g>
<g><path style="opacity:0.427" fill="#97c6e4" d="M 408.5,180.5 C 410.027,180.427 411.027,181.094 411.5,182.5C 409.973,182.573 408.973,181.906 408.5,180.5 Z"/></g>
<g><path style="opacity:1" fill="#6391bf" d="M 222.5,182.5 C 225.89,182.115 228.223,183.448 229.5,186.5C 226.996,185.416 224.663,184.083 222.5,182.5 Z"/></g>
<g><path style="opacity:1" fill="#6e9abf" d="M 426.5,182.5 C 424.324,184.515 421.824,186.182 419,187.5C 417.482,186.837 416.315,185.837 415.5,184.5C 420.083,184.692 423.749,184.025 426.5,182.5 Z"/></g>
<g><path style="opacity:1" fill="#4076af" d="M 229.5,186.5 C 232.157,186.162 234.49,186.829 236.5,188.5C 237.736,187.754 239.07,187.421 240.5,187.5C 240.5,188.833 240.5,190.167 240.5,191.5C 240.833,192.167 241.167,192.833 241.5,193.5C 237.164,191.668 233.164,189.335 229.5,186.5 Z"/></g>
<g><path style="opacity:1" fill="#0d74bc" d="M 362.5,184.5 C 364.674,184.75 366.341,185.75 367.5,187.5C 367.511,189.017 368.177,190.184 369.5,191C 373.897,193.638 378.564,195.804 383.5,197.5C 383.5,198.833 383.5,200.167 383.5,201.5C 380.77,201.473 378.27,202.14 376,203.5C 372.849,202.894 369.849,201.894 367,200.5C 366.517,201.448 366.351,202.448 366.5,203.5C 371.831,204.63 377.164,205.797 382.5,207C 377.962,208.162 373.296,208.996 368.5,209.5C 367.534,211.396 367.201,213.396 367.5,215.5C 359.536,216.149 352.869,219.482 347.5,225.5C 346.264,226.246 344.93,226.579 343.5,226.5C 343.719,227.675 343.386,228.675 342.5,229.5C 340.131,230.901 337.964,232.568 336,234.5C 335.586,234.043 335.086,233.709 334.5,233.5C 331.827,234.501 329.493,236.001 327.5,238C 328.793,238.49 330.127,238.657 331.5,238.5C 331.5,239.5 331.5,240.5 331.5,241.5C 332.675,241.281 333.675,241.614 334.5,242.5C 333.311,243.429 331.978,243.762 330.5,243.5C 329.432,242.566 328.099,242.232 326.5,242.5C 326.027,241.094 325.027,240.427 323.5,240.5C 321.847,240.34 320.514,239.674 319.5,238.5C 319.027,237.094 318.027,236.427 316.5,236.5C 314.847,236.34 313.514,235.674 312.5,234.5C 311.656,232.241 309.989,231.241 307.5,231.5C 306.656,229.241 304.989,228.241 302.5,228.5C 301.508,228.672 300.842,228.338 300.5,227.5C 300.167,226.833 299.833,226.167 299.5,225.5C 301.655,225.628 303.655,225.128 305.5,224C 303.398,222.267 303.065,220.267 304.5,218C 309.706,217.819 314.706,216.986 319.5,215.5C 319.5,213.5 319.5,211.5 319.5,209.5C 321.527,209.662 323.527,209.495 325.5,209C 325.869,206.611 326.869,204.111 328.5,201.5C 330.001,200.248 331.668,199.248 333.5,198.5C 339.709,197.95 345.709,196.616 351.5,194.5C 350.824,190.486 352.157,187.486 355.5,185.5C 357.646,186.894 359.979,187.56 362.5,187.5C 362.5,186.5 362.5,185.5 362.5,184.5 Z"/></g>
<g><path style="opacity:0.388" fill="#a6c8e4" d="M 245.5,195.5 C 247.027,195.427 248.027,196.094 248.5,197.5C 246.973,197.573 245.973,196.906 245.5,195.5 Z"/></g>
<g><path style="opacity:0.412" fill="#9bc8e6" d="M 252.5,199.5 C 254.027,199.427 255.027,200.094 255.5,201.5C 253.973,201.573 252.973,200.906 252.5,199.5 Z"/></g>
<g><path style="opacity:0.455" fill="#8fc0de" d="M 259.5,203.5 C 261.027,203.427 262.027,204.094 262.5,205.5C 260.973,205.573 259.973,204.906 259.5,203.5 Z"/></g>
<g><path style="opacity:1" fill="#5a94c3" d="M 367.5,187.5 C 381.354,194.375 394.688,202.042 407.5,210.5C 406.883,210.611 406.383,210.944 406,211.5C 398.148,207.263 390.648,202.596 383.5,197.5C 378.564,195.804 373.897,193.638 369.5,191C 368.177,190.184 367.511,189.017 367.5,187.5 Z"/></g>
<g><path style="opacity:0.357" fill="#abcfef" d="M 264.5,206.5 C 266.027,206.427 267.027,207.094 267.5,208.5C 265.973,208.573 264.973,207.906 264.5,206.5 Z"/></g>
<g><path style="opacity:1" fill="#0e7bc3" d="M 383.5,197.5 C 390.648,202.596 398.148,207.263 406,211.5C 406.383,210.944 406.883,210.611 407.5,210.5C 407.833,210.5 408.167,210.5 408.5,210.5C 409.446,213.313 411.446,214.646 414.5,214.5C 414.833,214.5 415.167,214.5 415.5,214.5C 415.5,215.167 415.5,215.833 415.5,216.5C 414.022,216.238 412.689,216.571 411.5,217.5C 412.32,219.111 413.654,219.778 415.5,219.5C 415.714,221.144 415.38,222.644 414.5,224C 409.236,224.294 405.236,226.628 402.5,231C 399.336,233.083 396.003,234.916 392.5,236.5C 391.614,237.325 391.281,238.325 391.5,239.5C 389.801,239.34 388.134,239.506 386.5,240C 384.766,241.734 382.766,243.068 380.5,244C 379.663,245.011 379.33,246.178 379.5,247.5C 375.101,248.867 371.101,251.034 367.5,254C 367.759,255.261 368.426,256.261 369.5,257C 367.833,257.333 366.167,257.667 364.5,258C 365.756,258.417 366.423,259.25 366.5,260.5C 363.5,260.5 360.5,260.5 357.5,260.5C 356.058,259.18 355.392,257.514 355.5,255.5C 353.5,255.5 351.5,255.5 349.5,255.5C 345.345,254.258 341.678,252.258 338.5,249.5C 338.027,248.094 337.027,247.427 335.5,247.5C 333.847,247.34 332.514,246.674 331.5,245.5C 331.167,244.833 330.833,244.167 330.5,243.5C 331.978,243.762 333.311,243.429 334.5,242.5C 333.675,241.614 332.675,241.281 331.5,241.5C 331.5,240.5 331.5,239.5 331.5,238.5C 330.127,238.657 328.793,238.49 327.5,238C 329.493,236.001 331.827,234.501 334.5,233.5C 335.086,233.709 335.586,234.043 336,234.5C 337.964,232.568 340.131,230.901 342.5,229.5C 343.386,228.675 343.719,227.675 343.5,226.5C 344.93,226.579 346.264,226.246 347.5,225.5C 352.869,219.482 359.536,216.149 367.5,215.5C 367.201,213.396 367.534,211.396 368.5,209.5C 373.296,208.996 377.962,208.162 382.5,207C 377.164,205.797 371.831,204.63 366.5,203.5C 366.351,202.448 366.517,201.448 367,200.5C 369.849,201.894 372.849,202.894 376,203.5C 378.27,202.14 380.77,201.473 383.5,201.5C 383.5,200.167 383.5,198.833 383.5,197.5 Z"/></g>
<g><path style="opacity:1" fill="#77aad0" d="M 408.5,210.5 C 410.882,211.351 412.882,212.684 414.5,214.5C 411.446,214.646 409.446,213.313 408.5,210.5 Z"/></g>
<g><path style="opacity:1" fill="#6d9ec9" d="M 281.5,216.5 C 283.989,216.241 285.656,217.241 286.5,219.5C 284.566,218.89 282.899,217.89 281.5,216.5 Z"/></g>
<g><path style="opacity:1" fill="#0d81ca" d="M 415.5,216.5 C 421.073,219.317 426.24,222.65 431,226.5C 431.333,226.167 431.667,225.833 432,225.5C 432.72,227.112 432.554,228.612 431.5,230C 435.131,229.263 438.797,229.429 442.5,230.5C 443.64,233.722 445.974,235.389 449.5,235.5C 449.25,236.922 448.417,237.922 447,238.5C 446.653,236.82 445.653,235.82 444,235.5C 439.909,236.643 436.076,238.31 432.5,240.5C 431.548,242.045 431.215,243.712 431.5,245.5C 423.386,244.868 418.053,248.201 415.5,255.5C 410.085,257.459 404.918,260.126 400,263.5C 399.503,265.81 399.337,268.143 399.5,270.5C 397.396,270.201 395.396,270.534 393.5,271.5C 393.863,272.183 394.196,272.85 394.5,273.5C 393.374,274.714 392.041,275.714 390.5,276.5C 389.833,276.167 389.167,275.833 388.5,275.5C 389.326,274.549 389.492,273.549 389,272.5C 387.275,273.464 385.441,274.131 383.5,274.5C 382.609,273.89 381.609,273.557 380.5,273.5C 379.826,271.976 378.826,270.642 377.5,269.5C 374.13,267.815 370.797,266.148 367.5,264.5C 367.768,262.901 367.434,261.568 366.5,260.5C 366.423,259.25 365.756,258.417 364.5,258C 366.167,257.667 367.833,257.333 369.5,257C 368.426,256.261 367.759,255.261 367.5,254C 371.101,251.034 375.101,248.867 379.5,247.5C 379.33,246.178 379.663,245.011 380.5,244C 382.766,243.068 384.766,241.734 386.5,240C 388.134,239.506 389.801,239.34 391.5,239.5C 391.281,238.325 391.614,237.325 392.5,236.5C 396.003,234.916 399.336,233.083 402.5,231C 405.236,226.628 409.236,224.294 414.5,224C 415.38,222.644 415.714,221.144 415.5,219.5C 413.654,219.778 412.32,219.111 411.5,217.5C 412.689,216.571 414.022,216.238 415.5,216.5 Z"/></g>
<g><path style="opacity:0.365" fill="#a6ceea" d="M 290.5,221.5 C 292.027,221.427 293.027,222.094 293.5,223.5C 291.973,223.573 290.973,222.906 290.5,221.5 Z"/></g>
<g><path style="opacity:1" fill="#4f94ca" d="M 415.5,214.5 C 424.701,219.596 433.701,224.93 442.5,230.5C 438.797,229.429 435.131,229.263 431.5,230C 432.554,228.612 432.72,227.112 432,225.5C 431.667,225.833 431.333,226.167 431,226.5C 426.24,222.65 421.073,219.317 415.5,216.5C 415.5,215.833 415.5,215.167 415.5,214.5 Z"/></g>
<g><path style="opacity:0.412" fill="#9ec7e6" d="M 297.5,225.5 C 298.167,225.5 298.833,225.5 299.5,225.5C 299.833,226.167 300.167,226.833 300.5,227.5C 298.973,227.573 297.973,226.906 297.5,225.5 Z"/></g>
<g><path style="opacity:1" fill="#6597c1" d="M 302.5,228.5 C 304.989,228.241 306.656,229.241 307.5,231.5C 305.566,230.89 303.899,229.89 302.5,228.5 Z"/></g>
<g><path style="opacity:1" fill="#70a1cc" d="M 307.5,231.5 C 309.989,231.241 311.656,232.241 312.5,234.5C 310.566,233.89 308.899,232.89 307.5,231.5 Z"/></g>
<g><path style="opacity:1" fill="#71afd8" d="M 442.5,230.5 C 446.173,232 449.506,234 452.5,236.5C 451.391,236.443 450.391,236.11 449.5,235.5C 445.974,235.389 443.64,233.722 442.5,230.5 Z"/></g>
<g><path style="opacity:0.392" fill="#9ed0ea" d="M 316.5,236.5 C 318.027,236.427 319.027,237.094 319.5,238.5C 317.973,238.573 316.973,237.906 316.5,236.5 Z"/></g>
<g><path style="opacity:1" fill="#0e87d0" d="M 449.5,235.5 C 450.391,236.11 451.391,236.443 452.5,236.5C 452.833,236.5 453.167,236.5 453.5,236.5C 455.628,238.431 457.628,240.598 459.5,243C 463.736,243.743 465.403,246.243 464.5,250.5C 463.596,249.791 463.263,248.791 463.5,247.5C 459.052,247.849 455.552,246.183 453,242.5C 450.07,243.905 449.903,245.738 452.5,248C 455.919,250.041 459.586,251.541 463.5,252.5C 458.099,253.356 452.766,254.356 447.5,255.5C 447.5,256.833 447.5,258.167 447.5,259.5C 442.119,260.563 437.786,263.23 434.5,267.5C 430.663,268.595 426.996,269.928 423.5,271.5C 423.5,272.833 423.5,274.167 423.5,275.5C 418.128,275.442 415.628,278.108 416,283.5C 411.587,285.562 411.421,287.895 415.5,290.5C 409.407,294.194 407.407,292.861 409.5,286.5C 404.716,285.548 400.382,283.548 396.5,280.5C 397.628,279.738 398.795,279.071 400,278.5C 403.729,280.249 407.563,281.916 411.5,283.5C 412.244,282.009 412.91,280.509 413.5,279C 413.167,278.667 412.833,278.333 412.5,278C 413.448,277.517 414.448,277.351 415.5,277.5C 415.5,276.167 415.5,274.833 415.5,273.5C 412.079,275.189 408.412,276.523 404.5,277.5C 401.394,277.897 399.061,276.731 397.5,274C 396.552,273.517 395.552,273.351 394.5,273.5C 394.196,272.85 393.863,272.183 393.5,271.5C 395.396,270.534 397.396,270.201 399.5,270.5C 399.337,268.143 399.503,265.81 400,263.5C 404.918,260.126 410.085,257.459 415.5,255.5C 418.053,248.201 423.386,244.868 431.5,245.5C 431.215,243.712 431.548,242.045 432.5,240.5C 436.076,238.31 439.909,236.643 444,235.5C 445.653,235.82 446.653,236.82 447,238.5C 448.417,237.922 449.25,236.922 449.5,235.5 Z"/></g>
<g><path style="opacity:0.431" fill="#9bc9e7" d="M 323.5,240.5 C 325.027,240.427 326.027,241.094 326.5,242.5C 324.973,242.573 323.973,241.906 323.5,240.5 Z"/></g>
<g><path style="opacity:1" fill="#74a6d1" d="M 326.5,242.5 C 328.099,242.232 329.432,242.566 330.5,243.5C 330.833,244.167 331.167,244.833 331.5,245.5C 329.566,244.89 327.899,243.89 326.5,242.5 Z"/></g>
<g><path style="opacity:0.357" fill="#9ad2ed" d="M 335.5,247.5 C 337.027,247.427 338.027,248.094 338.5,249.5C 336.973,249.573 335.973,248.906 335.5,247.5 Z"/></g>
<g><path style="opacity:1" fill="#5fa3d2" d="M 453.5,236.5 C 457.483,238.806 461.483,241.139 465.5,243.5C 466.829,271.33 466.829,298.997 465.5,326.5C 465.167,326.5 464.833,326.5 464.5,326.5C 464.5,309.833 464.5,293.167 464.5,276.5C 464.5,267.833 464.5,259.167 464.5,250.5C 465.403,246.243 463.736,243.743 459.5,243C 457.628,240.598 455.628,238.431 453.5,236.5 Z"/></g>
<g><path style="opacity:1" fill="#63a1cd" d="M 349.5,255.5 C 351.5,255.5 353.5,255.5 355.5,255.5C 355.392,257.514 356.058,259.18 357.5,260.5C 354.489,259.331 351.822,257.664 349.5,255.5 Z"/></g>
<g><path style="opacity:1" fill="#408bc6" d="M 357.5,260.5 C 360.5,260.5 363.5,260.5 366.5,260.5C 367.434,261.568 367.768,262.901 367.5,264.5C 370.797,266.148 374.13,267.815 377.5,269.5C 378.826,270.642 379.826,271.976 380.5,273.5C 378.847,273.34 377.514,272.674 376.5,271.5C 376.027,270.094 375.027,269.427 373.5,269.5C 367.835,267.003 362.502,264.003 357.5,260.5 Z"/></g>
<g><path style="opacity:1" fill="#158cd5" d="M 464.5,250.5 C 464.5,259.167 464.5,267.833 464.5,276.5C 463.766,277.878 463.099,279.378 462.5,281C 459.083,282.19 456.083,284.023 453.5,286.5C 455.423,287.308 457.423,287.808 459.5,288C 459.167,288.333 458.833,288.667 458.5,289C 454.848,289.499 451.182,289.665 447.5,289.5C 447.945,292.365 447.278,294.865 445.5,297C 440.683,297.218 436.016,298.051 431.5,299.5C 431.5,300.833 431.5,302.167 431.5,303.5C 428.296,304.83 424.962,305.996 421.5,307C 417.744,311.241 413.077,314.075 407.5,315.5C 407.5,316.833 407.5,318.167 407.5,319.5C 408.873,319.343 410.207,319.51 411.5,320C 407.97,321.158 404.303,321.992 400.5,322.5C 399.382,324.867 398.716,327.034 398.5,329C 393.348,329.179 388.348,330.012 383.5,331.5C 383.813,334.247 383.48,336.914 382.5,339.5C 378.639,340.933 374.639,341.933 370.5,342.5C 368.833,343.5 367.5,344.833 366.5,346.5C 357.057,351.206 348.391,356.872 340.5,363.5C 339.571,364.689 339.238,366.022 339.5,367.5C 338.167,367.5 336.833,367.5 335.5,367.5C 335.739,369.467 335.406,371.301 334.5,373C 325.716,372.7 318.716,376.033 313.5,383C 315.024,385.358 317.024,387.191 319.5,388.5C 318.424,389.656 317.424,389.489 316.5,388C 311.098,387.19 306.431,388.69 302.5,392.5C 301.692,390.577 301.192,388.577 301,386.5C 299.974,389.693 297.808,391.026 294.5,390.5C 294.027,389.094 293.027,388.427 291.5,388.5C 288.24,387.226 285.24,385.56 282.5,383.5C 282.027,382.094 281.027,381.427 279.5,381.5C 273.835,379.003 268.502,376.003 263.5,372.5C 265.401,372.433 267.234,372.767 269,373.5C 270.092,372.704 271.259,372.037 272.5,371.5C 274.13,372.421 275.797,373.255 277.5,374C 276.377,375.044 275.044,375.71 273.5,376C 274.609,376.638 275.775,377.138 277,377.5C 280.39,375.775 283.89,374.275 287.5,373C 286.572,372.612 285.905,371.945 285.5,371C 287.172,366.326 290.506,363.826 295.5,363.5C 295.5,362.167 295.5,360.833 295.5,359.5C 298.996,357.928 302.663,356.595 306.5,355.5C 310.489,349.834 315.822,347.5 322.5,348.5C 322.5,347.5 322.5,346.5 322.5,345.5C 317.792,345.992 317.292,344.659 321,341.5C 323.716,344.231 326.216,344.064 328.5,341C 326.5,340.167 324.5,339.333 322.5,338.5C 321.388,337.735 320.721,336.735 320.5,335.5C 321.915,336.289 323.415,336.956 325,337.5C 330.126,334.687 335.293,332.021 340.5,329.5C 342.848,329.408 344.514,328.408 345.5,326.5C 360.002,317.079 375.002,308.412 390.5,300.5C 392.391,299.464 394.224,299.464 396,300.5C 397.484,296.512 400.317,294.846 404.5,295.5C 404.5,294.5 404.5,293.5 404.5,292.5C 405.058,291.21 406.058,290.377 407.5,290C 399.329,285.303 391.329,280.47 383.5,275.5C 383.5,275.167 383.5,274.833 383.5,274.5C 385.441,274.131 387.275,273.464 389,272.5C 389.492,273.549 389.326,274.549 388.5,275.5C 389.167,275.833 389.833,276.167 390.5,276.5C 392.041,275.714 393.374,274.714 394.5,273.5C 395.552,273.351 396.552,273.517 397.5,274C 399.061,276.731 401.394,277.897 404.5,277.5C 408.412,276.523 412.079,275.189 415.5,273.5C 415.5,274.833 415.5,276.167 415.5,277.5C 414.448,277.351 413.448,277.517 412.5,278C 412.833,278.333 413.167,278.667 413.5,279C 412.91,280.509 412.244,282.009 411.5,283.5C 407.563,281.916 403.729,280.249 400,278.5C 398.795,279.071 397.628,279.738 396.5,280.5C 400.382,283.548 404.716,285.548 409.5,286.5C 407.407,292.861 409.407,294.194 415.5,290.5C 411.421,287.895 411.587,285.562 416,283.5C 415.628,278.108 418.128,275.442 423.5,275.5C 423.5,274.167 423.5,272.833 423.5,271.5C 426.996,269.928 430.663,268.595 434.5,267.5C 437.786,263.23 442.119,260.563 447.5,259.5C 447.5,258.167 447.5,256.833 447.5,255.5C 452.766,254.356 458.099,253.356 463.5,252.5C 459.586,251.541 455.919,250.041 452.5,248C 449.903,245.738 450.07,243.905 453,242.5C 455.552,246.183 459.052,247.849 463.5,247.5C 463.263,248.791 463.596,249.791 464.5,250.5 Z"/></g>
<g><path style="opacity:1" fill="#598dbd" d="M 191.5,261.5 C 199.836,265.665 207.836,270.332 215.5,275.5C 208.19,272.852 201.19,269.518 194.5,265.5C 193.667,266.5 192.833,267.5 192,268.5C 192.064,266.044 191.898,263.711 191.5,261.5 Z"/></g>
<g><path style="opacity:0.325" fill="#b1d8f3" d="M 373.5,269.5 C 375.027,269.427 376.027,270.094 376.5,271.5C 374.973,271.573 373.973,270.906 373.5,269.5 Z"/></g>
<g><path style="opacity:0.373" fill="#a9d4ed" d="M 380.5,273.5 C 381.609,273.557 382.609,273.89 383.5,274.5C 383.5,274.833 383.5,275.167 383.5,275.5C 381.973,275.573 380.973,274.906 380.5,273.5 Z"/></g>
<g><path style="opacity:1" fill="#6297c6" d="M 219.5,277.5 C 223.173,279 226.506,281 229.5,283.5C 226.432,282.978 223.432,282.145 220.5,281C 219.663,279.989 219.33,278.822 219.5,277.5 Z"/></g>
<g><path style="opacity:0.078" fill="#dcfcfe" d="M 184.5,257.5 C 183.502,280.327 183.169,303.327 183.5,326.5C 182.171,303.33 182.171,279.997 183.5,256.5C 184.107,256.624 184.44,256.957 184.5,257.5 Z"/></g>
<g><path style="opacity:0.941" fill="#387eb2" d="M 184.5,257.5 C 185.492,257.328 186.158,257.662 186.5,258.5C 185.168,269.313 184.501,280.479 184.5,292C 184.667,303.167 184.833,314.333 185,325.5C 186.417,326.078 187.25,327.078 187.5,328.5C 185.847,328.34 184.514,327.674 183.5,326.5C 183.169,303.327 183.502,280.327 184.5,257.5 Z"/></g>
<g><path style="opacity:1" fill="#0c72bb" d="M 186.5,258.5 C 188.434,259.11 190.101,260.11 191.5,261.5C 191.898,263.711 192.064,266.044 192,268.5C 192.833,267.5 193.667,266.5 194.5,265.5C 201.19,269.518 208.19,272.852 215.5,275.5C 217.153,275.66 218.486,276.326 219.5,277.5C 219.33,278.822 219.663,279.989 220.5,281C 223.432,282.145 226.432,282.978 229.5,283.5C 231.784,283.975 233.784,284.975 235.5,286.5C 236.502,288.011 237.169,289.678 237.5,291.5C 239.5,291.5 241.5,291.5 243.5,291.5C 244.492,291.328 245.158,291.662 245.5,292.5C 244.972,293.847 244.805,295.181 245,296.5C 247.027,296.014 249.193,296.014 251.5,296.5C 251.148,299.114 249.648,300.781 247,301.5C 244.743,300.289 242.576,298.956 240.5,297.5C 239.713,298.242 239.047,299.075 238.5,300C 240.623,300.815 242.623,301.815 244.5,303C 241.5,303.667 238.5,303.667 235.5,303C 236.711,302.107 236.711,301.274 235.5,300.5C 234.264,301.246 232.93,301.579 231.5,301.5C 230.833,306.167 228.167,308.833 223.5,309.5C 223.5,310.833 223.5,312.167 223.5,313.5C 216.689,314.16 210.355,316.326 204.5,320C 207.426,320.687 208.759,322.52 208.5,325.5C 206.723,325.214 205.056,324.547 203.5,323.5C 199.727,325.133 196.227,327.133 193,329.5C 191.234,328.767 189.401,328.433 187.5,328.5C 187.25,327.078 186.417,326.078 185,325.5C 184.833,314.333 184.667,303.167 184.5,292C 184.501,280.479 185.168,269.313 186.5,258.5 Z"/></g>
<g><path style="opacity:1" fill="#5e97c4" d="M 235.5,286.5 C 238.54,287.68 241.206,289.347 243.5,291.5C 241.5,291.5 239.5,291.5 237.5,291.5C 237.169,289.678 236.502,288.011 235.5,286.5 Z"/></g>
<g><path style="opacity:1" fill="#1293dc" d="M 464.5,276.5 C 464.5,293.167 464.5,309.833 464.5,326.5C 461.979,326.44 459.646,327.106 457.5,328.5C 454.809,326.748 454.142,327.248 455.5,330C 452.833,331 450.167,332 447.5,333C 447.957,333.414 448.291,333.914 448.5,334.5C 446.604,335.466 444.604,335.799 442.5,335.5C 442.5,336.5 442.5,337.5 442.5,338.5C 440.5,338.5 438.5,338.5 436.5,338.5C 436.371,340.216 436.038,341.883 435.5,343.5C 427.221,346.41 419.221,349.743 411.5,353.5C 410.708,354.7 410.708,356.033 411.5,357.5C 407.899,358.463 404.233,359.13 400.5,359.5C 400.5,360.833 400.5,362.167 400.5,363.5C 398.801,363.34 397.134,363.506 395.5,364C 394.692,365.706 393.359,366.539 391.5,366.5C 391.5,367.5 391.5,368.5 391.5,369.5C 391.167,369.5 390.833,369.5 390.5,369.5C 388.208,369.756 386.041,369.423 384,368.5C 382.312,369.325 382.145,370.325 383.5,371.5C 381.242,372.799 378.908,373.799 376.5,374.5C 376.567,375.959 376.234,377.292 375.5,378.5C 371.072,379.42 366.739,380.753 362.5,382.5C 362.567,383.959 362.234,385.292 361.5,386.5C 360.849,385.909 360.182,385.243 359.5,384.5C 358.304,384.846 358.304,385.346 359.5,386C 357.348,387.413 355.014,388.246 352.5,388.5C 352.5,389.5 352.5,390.5 352.5,391.5C 350.011,391.241 348.344,392.241 347.5,394.5C 341.421,395.537 335.755,397.704 330.5,401C 331.684,402.145 331.684,403.312 330.5,404.5C 330.158,405.338 329.492,405.672 328.5,405.5C 323.999,405.095 319.666,404.095 315.5,402.5C 312.996,401.416 310.663,400.083 308.5,398.5C 308.027,397.094 307.027,396.427 305.5,396.5C 303.847,396.34 302.514,395.674 301.5,394.5C 301.027,393.094 300.027,392.427 298.5,392.5C 296.847,392.34 295.514,391.674 294.5,390.5C 297.808,391.026 299.974,389.693 301,386.5C 301.192,388.577 301.692,390.577 302.5,392.5C 306.431,388.69 311.098,387.19 316.5,388C 317.424,389.489 318.424,389.656 319.5,388.5C 317.024,387.191 315.024,385.358 313.5,383C 318.716,376.033 325.716,372.7 334.5,373C 335.406,371.301 335.739,369.467 335.5,367.5C 336.833,367.5 338.167,367.5 339.5,367.5C 339.238,366.022 339.571,364.689 340.5,363.5C 348.391,356.872 357.057,351.206 366.5,346.5C 367.5,344.833 368.833,343.5 370.5,342.5C 374.639,341.933 378.639,340.933 382.5,339.5C 383.48,336.914 383.813,334.247 383.5,331.5C 388.348,330.012 393.348,329.179 398.5,329C 398.716,327.034 399.382,324.867 400.5,322.5C 404.303,321.992 407.97,321.158 411.5,320C 410.207,319.51 408.873,319.343 407.5,319.5C 407.5,318.167 407.5,316.833 407.5,315.5C 413.077,314.075 417.744,311.241 421.5,307C 424.962,305.996 428.296,304.83 431.5,303.5C 431.5,302.167 431.5,300.833 431.5,299.5C 436.016,298.051 440.683,297.218 445.5,297C 447.278,294.865 447.945,292.365 447.5,289.5C 451.182,289.665 454.848,289.499 458.5,289C 458.833,288.667 459.167,288.333 459.5,288C 457.423,287.808 455.423,287.308 453.5,286.5C 456.083,284.023 459.083,282.19 462.5,281C 463.099,279.378 463.766,277.878 464.5,276.5 Z"/></g>
<g><path style="opacity:1" fill="#57a0d4" d="M 404.5,292.5 C 404.5,293.5 404.5,294.5 404.5,295.5C 400.317,294.846 397.484,296.512 396,300.5C 394.224,299.464 392.391,299.464 390.5,300.5C 394.833,297.331 399.5,294.664 404.5,292.5 Z"/></g>
<g><path style="opacity:1" fill="#117ac2" d="M 245.5,292.5 C 250.833,295.5 256.167,298.5 261.5,301.5C 262.252,303.1 263.252,304.6 264.5,306C 267.775,306.74 270.442,308.407 272.5,311C 274.473,311.495 276.473,311.662 278.5,311.5C 279.502,313.011 280.169,314.678 280.5,316.5C 278.738,316.357 277.071,316.691 275.5,317.5C 270.453,313.343 264.787,312.177 258.5,314C 256.397,310.693 255.731,310.859 256.5,314.5C 258.54,316.177 260.54,317.844 262.5,319.5C 259.772,320.94 257.605,320.274 256,317.5C 252.086,321.879 247.252,324.879 241.5,326.5C 240.248,328.001 239.248,329.668 238.5,331.5C 235.827,332.501 233.493,334.001 231.5,336C 231.833,336.333 232.167,336.667 232.5,337C 231.056,337.781 229.723,337.614 228.5,336.5C 229.894,335.313 229.727,334.646 228,334.5C 225.587,335.024 223.42,336.024 221.5,337.5C 223.122,339.439 224.956,339.772 227,338.5C 228.188,339.563 228.688,340.897 228.5,342.5C 233.201,342.527 236.868,344.527 239.5,348.5C 234.416,349.954 230.582,348.287 228,343.5C 226.87,344.114 225.537,344.114 224,343.5C 221.488,342.493 219.155,341.159 217,339.5C 215.72,339.613 214.887,340.28 214.5,341.5C 218.01,342.418 221.01,344.084 223.5,346.5C 220.381,344.949 217.048,343.949 213.5,343.5C 212.508,343.672 211.842,343.338 211.5,342.5C 211.027,341.094 210.027,340.427 208.5,340.5C 201.004,337.255 194.004,333.255 187.5,328.5C 189.401,328.433 191.234,328.767 193,329.5C 196.227,327.133 199.727,325.133 203.5,323.5C 205.056,324.547 206.723,325.214 208.5,325.5C 208.759,322.52 207.426,320.687 204.5,320C 210.355,316.326 216.689,314.16 223.5,313.5C 223.5,312.167 223.5,310.833 223.5,309.5C 228.167,308.833 230.833,306.167 231.5,301.5C 232.93,301.579 234.264,301.246 235.5,300.5C 236.711,301.274 236.711,302.107 235.5,303C 238.5,303.667 241.5,303.667 244.5,303C 242.623,301.815 240.623,300.815 238.5,300C 239.047,299.075 239.713,298.242 240.5,297.5C 242.576,298.956 244.743,300.289 247,301.5C 249.648,300.781 251.148,299.114 251.5,296.5C 249.193,296.014 247.027,296.014 245,296.5C 244.805,295.181 244.972,293.847 245.5,292.5 Z"/></g>
<g><path style="opacity:1" fill="#5596c8" d="M 261.5,301.5 C 267.367,304.596 273.033,307.929 278.5,311.5C 276.473,311.662 274.473,311.495 272.5,311C 270.442,308.407 267.775,306.74 264.5,306C 263.252,304.6 262.252,303.1 261.5,301.5 Z"/></g>
<g><path style="opacity:1" fill="#0d80c9" d="M 280.5,316.5 C 285.041,316.331 285.374,316.998 281.5,318.5C 282,318.833 282.5,319.167 283,319.5C 284.44,318.852 285.94,318.519 287.5,318.5C 287.5,320.167 287.5,321.833 287.5,323.5C 288.978,323.238 290.311,323.571 291.5,324.5C 292.167,325.833 293.167,326.833 294.5,327.5C 297.881,324.657 300.881,324.991 303.5,328.5C 299.86,330.657 295.86,332.323 291.5,333.5C 290.228,333.43 289.062,333.097 288,332.5C 287.782,335.426 287.282,338.26 286.5,341C 281.563,341.06 276.896,342.06 272.5,344C 270.393,346.561 267.726,348.394 264.5,349.5C 263.232,352.649 260.898,354.649 257.5,355.5C 256.253,357.006 256.253,358.506 257.5,360C 256.197,360.21 254.864,360.043 253.5,359.5C 251.962,359.453 250.962,360.12 250.5,361.5C 247.579,361.854 245.246,360.854 243.5,358.5C 246.167,357.5 246.167,356.5 243.5,355.5C 242.554,355.987 241.554,356.32 240.5,356.5C 237.978,355.238 235.311,354.571 232.5,354.5C 230.634,352.189 228.634,349.855 226.5,347.5C 225.583,346.873 224.583,346.539 223.5,346.5C 221.01,344.084 218.01,342.418 214.5,341.5C 214.887,340.28 215.72,339.613 217,339.5C 219.155,341.159 221.488,342.493 224,343.5C 225.537,344.114 226.87,344.114 228,343.5C 230.582,348.287 234.416,349.954 239.5,348.5C 236.868,344.527 233.201,342.527 228.5,342.5C 228.688,340.897 228.188,339.563 227,338.5C 224.956,339.772 223.122,339.439 221.5,337.5C 223.42,336.024 225.587,335.024 228,334.5C 229.727,334.646 229.894,335.313 228.5,336.5C 229.723,337.614 231.056,337.781 232.5,337C 232.167,336.667 231.833,336.333 231.5,336C 233.493,334.001 235.827,332.501 238.5,331.5C 239.248,329.668 240.248,328.001 241.5,326.5C 247.252,324.879 252.086,321.879 256,317.5C 257.605,320.274 259.772,320.94 262.5,319.5C 260.54,317.844 258.54,316.177 256.5,314.5C 255.731,310.859 256.397,310.693 258.5,314C 264.787,312.177 270.453,313.343 275.5,317.5C 277.071,316.691 278.738,316.357 280.5,316.5 Z"/></g>
<g><path style="opacity:1" fill="#398bc6" d="M 278.5,311.5 C 289.033,317.263 299.366,323.263 309.5,329.5C 307.856,329.286 306.356,329.62 305,330.5C 304.722,329.584 304.222,328.918 303.5,328.5C 300.881,324.991 297.881,324.657 294.5,327.5C 293.167,326.833 292.167,325.833 291.5,324.5C 290.311,323.571 288.978,323.238 287.5,323.5C 287.5,321.833 287.5,320.167 287.5,318.5C 285.94,318.519 284.44,318.852 283,319.5C 282.5,319.167 282,318.833 281.5,318.5C 285.374,316.998 285.041,316.331 280.5,316.5C 280.169,314.678 279.502,313.011 278.5,311.5 Z"/></g>
<g><path style="opacity:1" fill="#58a9dc" d="M 464.5,326.5 C 464.833,326.5 465.167,326.5 465.5,326.5C 455.833,332.669 445.833,338.336 435.5,343.5C 436.038,341.883 436.371,340.216 436.5,338.5C 438.5,338.5 440.5,338.5 442.5,338.5C 442.5,337.5 442.5,336.5 442.5,335.5C 444.604,335.799 446.604,335.466 448.5,334.5C 448.291,333.914 447.957,333.414 447.5,333C 450.167,332 452.833,331 455.5,330C 454.142,327.248 454.809,326.748 457.5,328.5C 459.646,327.106 461.979,326.44 464.5,326.5 Z"/></g>
<g><path style="opacity:0.851" fill="#6eb3dd" d="M 345.5,326.5 C 344.514,328.408 342.848,329.408 340.5,329.5C 341.659,327.75 343.326,326.75 345.5,326.5 Z"/></g>
<g><path style="opacity:1" fill="#1086cf" d="M 303.5,328.5 C 304.222,328.918 304.722,329.584 305,330.5C 306.356,329.62 307.856,329.286 309.5,329.5C 309.833,329.5 310.167,329.5 310.5,329.5C 310.5,330.5 310.5,331.5 310.5,332.5C 313.163,334.323 316.163,335.323 319.5,335.5C 319.833,335.5 320.167,335.5 320.5,335.5C 320.721,336.735 321.388,337.735 322.5,338.5C 324.5,339.333 326.5,340.167 328.5,341C 326.216,344.064 323.716,344.231 321,341.5C 317.292,344.659 317.792,345.992 322.5,345.5C 322.5,346.5 322.5,347.5 322.5,348.5C 315.822,347.5 310.489,349.834 306.5,355.5C 302.663,356.595 298.996,357.928 295.5,359.5C 295.5,360.833 295.5,362.167 295.5,363.5C 290.506,363.826 287.172,366.326 285.5,371C 285.905,371.945 286.572,372.612 287.5,373C 283.89,374.275 280.39,375.775 277,377.5C 275.775,377.138 274.609,376.638 273.5,376C 275.044,375.71 276.377,375.044 277.5,374C 275.797,373.255 274.13,372.421 272.5,371.5C 271.259,372.037 270.092,372.704 269,373.5C 267.234,372.767 265.401,372.433 263.5,372.5C 263.027,371.094 262.027,370.427 260.5,370.5C 258.847,370.34 257.514,369.674 256.5,368.5C 256.027,367.094 255.027,366.427 253.5,366.5C 253.179,364.952 252.179,364.285 250.5,364.5C 250.5,363.5 250.5,362.5 250.5,361.5C 250.962,360.12 251.962,359.453 253.5,359.5C 254.864,360.043 256.197,360.21 257.5,360C 256.253,358.506 256.253,357.006 257.5,355.5C 260.898,354.649 263.232,352.649 264.5,349.5C 267.726,348.394 270.393,346.561 272.5,344C 276.896,342.06 281.563,341.06 286.5,341C 287.282,338.26 287.782,335.426 288,332.5C 289.062,333.097 290.228,333.43 291.5,333.5C 295.86,332.323 299.86,330.657 303.5,328.5 Z"/></g>
<g><path style="opacity:1" fill="#64a2ce" d="M 310.5,329.5 C 313.709,331.265 316.709,333.265 319.5,335.5C 316.163,335.323 313.163,334.323 310.5,332.5C 310.5,331.5 310.5,330.5 310.5,329.5 Z"/></g>
<g><path style="opacity:0.384" fill="#9fd0ec" d="M 208.5,340.5 C 210.027,340.427 211.027,341.094 211.5,342.5C 209.973,342.573 208.973,341.906 208.5,340.5 Z"/></g>
<g><path style="opacity:1" fill="#5091c1" d="M 213.5,343.5 C 217.048,343.949 220.381,344.949 223.5,346.5C 224.583,346.539 225.583,346.873 226.5,347.5C 228.634,349.855 230.634,352.189 232.5,354.5C 225.903,351.225 219.57,347.558 213.5,343.5 Z"/></g>
<g><path style="opacity:1" fill="#5ba9db" d="M 435.5,343.5 C 427.836,348.668 419.836,353.335 411.5,357.5C 410.708,356.033 410.708,354.7 411.5,353.5C 419.221,349.743 427.221,346.41 435.5,343.5 Z"/></g>
<g><path style="opacity:1" fill="#4b93c9" d="M 232.5,354.5 C 235.311,354.571 237.978,355.238 240.5,356.5C 241.554,356.32 242.554,355.987 243.5,355.5C 246.167,356.5 246.167,357.5 243.5,358.5C 245.246,360.854 247.579,361.854 250.5,361.5C 250.5,362.5 250.5,363.5 250.5,364.5C 252.179,364.285 253.179,364.952 253.5,366.5C 246.004,363.255 239.004,359.255 232.5,354.5 Z"/></g>
<g><path style="opacity:1" fill="#63add9" d="M 411.5,357.5 C 405.201,361.988 398.534,365.988 391.5,369.5C 391.5,368.5 391.5,367.5 391.5,366.5C 393.359,366.539 394.692,365.706 395.5,364C 397.134,363.506 398.801,363.34 400.5,363.5C 400.5,362.167 400.5,360.833 400.5,359.5C 404.233,359.13 407.899,358.463 411.5,357.5 Z"/></g>
<g><path style="opacity:0.384" fill="#aad4ef" d="M 253.5,366.5 C 255.027,366.427 256.027,367.094 256.5,368.5C 254.973,368.573 253.973,367.906 253.5,366.5 Z"/></g>
<g><path style="opacity:0.412" fill="#a1d2f0" d="M 260.5,370.5 C 262.027,370.427 263.027,371.094 263.5,372.5C 261.973,372.573 260.973,371.906 260.5,370.5 Z"/></g>
<g><path style="opacity:1" fill="#5eacdd" d="M 390.5,369.5 C 386.005,373.251 381.005,376.251 375.5,378.5C 376.234,377.292 376.567,375.959 376.5,374.5C 378.908,373.799 381.242,372.799 383.5,371.5C 382.145,370.325 382.312,369.325 384,368.5C 386.041,369.423 388.208,369.756 390.5,369.5 Z"/></g>
<g><path style="opacity:0.396" fill="#9ed8f6" d="M 279.5,381.5 C 281.027,381.427 282.027,382.094 282.5,383.5C 280.973,383.573 279.973,382.906 279.5,381.5 Z"/></g>
<g><path style="opacity:1" fill="#66afdc" d="M 375.5,378.5 C 371.167,381.669 366.5,384.336 361.5,386.5C 362.234,385.292 362.567,383.959 362.5,382.5C 366.739,380.753 371.072,379.42 375.5,378.5 Z"/></g>
<g><path style="opacity:1" fill="#66b1e0" d="M 361.5,386.5 C 358.992,388.924 355.992,390.59 352.5,391.5C 352.5,390.5 352.5,389.5 352.5,388.5C 355.014,388.246 357.348,387.413 359.5,386C 358.304,385.346 358.304,384.846 359.5,384.5C 360.182,385.243 360.849,385.909 361.5,386.5 Z"/></g>
<g><path style="opacity:0.345" fill="#afdcf7" d="M 291.5,388.5 C 293.027,388.427 294.027,389.094 294.5,390.5C 292.973,390.573 291.973,389.906 291.5,388.5 Z"/></g>
<g><path style="opacity:1" fill="#80bee4" d="M 352.5,391.5 C 351.341,393.25 349.674,394.25 347.5,394.5C 348.344,392.241 350.011,391.241 352.5,391.5 Z"/></g>
<g><path style="opacity:0.373" fill="#afdcf6" d="M 298.5,392.5 C 300.027,392.427 301.027,393.094 301.5,394.5C 299.973,394.573 298.973,393.906 298.5,392.5 Z"/></g>
<g><path style="opacity:1" fill="#5faadc" d="M 347.5,394.5 C 342.006,398.082 336.339,401.415 330.5,404.5C 331.684,403.312 331.684,402.145 330.5,401C 335.755,397.704 341.421,395.537 347.5,394.5 Z"/></g>
<g><path style="opacity:0.416" fill="#9ed9f5" d="M 305.5,396.5 C 307.027,396.427 308.027,397.094 308.5,398.5C 306.973,398.573 305.973,397.906 305.5,396.5 Z"/></g>
<g><path style="opacity:1" fill="#64b1dc" d="M 315.5,402.5 C 319.666,404.095 323.999,405.095 328.5,405.5C 327.833,406.167 327.167,406.833 326.5,407.5C 325.167,407.5 323.833,407.5 322.5,407.5C 319.991,406.079 317.657,404.412 315.5,402.5 Z"/></g>
</svg>
