<?xml version="1.0" encoding="UTF-8"?>
<!DOCTYPE svg PUBLIC "-//W3C//DTD SVG 1.1//EN" "http://www.w3.org/Graphics/SVG/1.1/DTD/svg11.dtd">
<svg xmlns="http://www.w3.org/2000/svg" version="1.1" width="853px" height="565px" style="shape-rendering:geometricPrecision; text-rendering:geometricPrecision; image-rendering:optimizeQuality; fill-rule:evenodd; clip-rule:evenodd" xmlns:xlink="http://www.w3.org/1999/xlink">
<g><path style="opacity:1" fill="#3900ac" d="M 24.5,-0.5 C 232.167,-0.5 439.833,-0.5 647.5,-0.5C 647.5,-0.166667 647.5,0.166667 647.5,0.5C 647.5,1.16667 647.5,1.83333 647.5,2.5C 439.837,1.16774 232.171,1.16774 24.5,2.5C 24.5,1.83333 24.5,1.16667 24.5,0.5C 24.5,0.166667 24.5,-0.166667 24.5,-0.5 Z"/></g>
<g><path style="opacity:1" fill="#e63295" d="M 647.5,2.5 C 660.114,6.78125 667.781,15.4479 670.5,28.5C 670.831,55.3386 670.498,82.0052 669.5,108.5C 446.833,108.5 224.167,108.5 1.5,108.5C 1.5,81.5 1.5,54.5 1.5,27.5C 4.66562,15.0019 12.3323,6.6686 24.5,2.5C 232.171,1.16774 439.837,1.16774 647.5,2.5 Z"/></g>
<g><path style="opacity:1" fill="#5cffcc" d="M 24.5,0.5 C 24.5,1.16667 24.5,1.83333 24.5,2.5C 12.3323,6.6686 4.66562,15.0019 1.5,27.5C 1.73731,26.209 1.40397,25.209 0.5,24.5C 3.48608,11.5139 11.4861,3.51391 24.5,0.5 Z"/></g>
<g><path style="opacity:1" fill="#53ffc9" d="M 647.5,0.5 C 660.408,3.57392 668.575,11.5739 672,24.5C 672.5,52.498 672.667,80.498 672.5,108.5C 671.859,79.9721 671.193,53.3054 670.5,28.5C 667.781,15.4479 660.114,6.78125 647.5,2.5C 647.5,1.83333 647.5,1.16667 647.5,0.5 Z"/></g>
<g><path style="opacity:0.981" fill="#3600a5" d="M -0.5,24.5 C -0.166667,24.5 0.166667,24.5 0.5,24.5C 1.40397,25.209 1.73731,26.209 1.5,27.5C 1.5,54.5 1.5,81.5 1.5,108.5C 1.33333,227.834 1.5,347.167 2,466.5C 4.16667,484.667 14.3333,494.833 32.5,497C 173.833,497.5 315.166,497.667 456.5,497.5C 457.833,498.167 457.833,498.833 456.5,499.5C 312.5,499.667 168.5,499.5 24.5,499C 11.6514,495.317 3.31807,487.15 -0.5,474.5C -0.5,324.5 -0.5,174.5 -0.5,24.5 Z"/></g>
<g><path style="opacity:0.949" fill="#51ffb2" d="M 672.5,108.5 C 672.5,123.833 672.5,139.167 672.5,154.5C 672.5,160.833 672.5,167.167 672.5,173.5C 672.5,175.833 672.5,178.167 672.5,180.5C 672.5,201.833 672.5,223.167 672.5,244.5C 672.5,245.5 672.5,246.5 672.5,247.5C 672.5,269.167 672.5,290.833 672.5,312.5C 672.5,313.833 672.5,315.167 672.5,316.5C 672.5,330.5 672.5,344.5 672.5,358.5C 672.5,359.5 672.5,360.5 672.5,361.5C 672.5,376.5 672.5,391.5 672.5,406.5C 672.667,429.169 672.5,451.836 672,474.5C 668.5,487.333 660.333,495.5 647.5,499C 607.835,499.5 568.168,499.667 528.5,499.5C 527.167,498.833 527.167,498.167 528.5,497.5C 567.861,497.951 607.194,497.451 646.5,496C 658,492.5 665.5,485 669,473.5C 669.5,351.834 669.667,230.167 669.5,108.5C 670.498,82.0052 670.831,55.3386 670.5,28.5C 671.193,53.3054 671.859,79.9721 672.5,108.5 Z"/></g>
<g><path style="opacity:1" fill="#feb20c" d="M 128.5,34.5 C 141.194,32.0559 150.027,36.7226 155,48.5C 156.798,58.7358 153.298,66.5691 144.5,72C 131.056,76.6927 121.556,72.526 116,59.5C 114.191,48.1508 118.358,39.8175 128.5,34.5 Z"/></g>
<g><path style="opacity:1" fill="#feb10c" d="M 529.5,34.5 C 547.945,32.7808 556.779,41.1141 556,59.5C 549.623,73.1832 539.456,77.0165 525.5,71C 517.131,64.2255 514.631,55.7255 518,45.5C 521.07,40.9273 524.904,37.2607 529.5,34.5 Z"/></g>
<g><path style="opacity:0.98" fill="#fdc369" d="M 672.5,154.5 C 675.518,154.704 678.518,155.037 681.5,155.5C 679.029,161.776 676.029,167.776 672.5,173.5C 672.5,167.167 672.5,160.833 672.5,154.5 Z"/></g>
<g><path style="opacity:0.961" fill="#ffb516" d="M 681.5,155.5 C 683.179,155.285 684.179,155.952 684.5,157.5C 680.739,165.359 676.739,173.025 672.5,180.5C 672.5,178.167 672.5,175.833 672.5,173.5C 676.029,167.776 679.029,161.776 681.5,155.5 Z"/></g>
<g><path style="opacity:0.995" fill="#fdc369" d="M 684.5,157.5 C 699.246,164.44 707.746,176.106 710,192.5C 710.5,198.825 710.666,205.158 710.5,211.5C 709.325,211.281 708.325,211.614 707.5,212.5C 698.97,226.701 687.303,237.368 672.5,244.5C 672.5,223.167 672.5,201.833 672.5,180.5C 676.739,173.025 680.739,165.359 684.5,157.5 Z"/></g>
<g><path style="opacity:0.985" fill="#280076" d="M 501.5,181.5 C 504.933,193.094 502.266,202.927 493.5,211C 492.099,211.41 490.766,211.91 489.5,212.5C 489.389,211.883 489.056,211.383 488.5,211C 481.798,209.46 475.131,207.793 468.5,206C 467.941,205.275 467.608,204.442 467.5,203.5C 468.942,200.972 469.442,198.305 469,195.5C 462.367,194.033 458.201,190.033 456.5,183.5C 455.14,184.18 453.807,184.847 452.5,185.5C 444.153,184.495 440.986,179.828 443,171.5C 446.128,165.434 451.128,162.434 458,162.5C 460.667,163.167 463.333,163.833 466,164.5C 483.009,158.919 494.843,164.585 501.5,181.5 Z"/></g>
<g><path style="opacity:0.99" fill="#ffb413" d="M 816.5,179.5 C 807.179,190.813 802.345,203.813 802,218.5C 816.316,209.6 830.482,200.6 844.5,191.5C 845.906,191.973 846.573,192.973 846.5,194.5C 816.084,211.932 786.751,230.932 758.5,251.5C 784.087,265.434 810.087,266.101 836.5,253.5C 837.584,253.685 838.584,254.018 839.5,254.5C 838.833,255.833 837.833,256.833 836.5,257.5C 836.565,257.062 836.399,256.728 836,256.5C 809.097,269.226 782.597,268.393 756.5,254C 755.5,253.333 754.5,253.333 753.5,254C 726.053,274.283 699.053,295.117 672.5,316.5C 672.5,315.167 672.5,313.833 672.5,312.5C 712.587,279.531 754.421,248.864 798,220.5C 799.181,205.451 804.015,191.785 812.5,179.5C 814.002,176.978 815.335,176.978 816.5,179.5 Z"/></g>
<g><path style="opacity:0.996" fill="#fdc369" d="M 812.5,179.5 C 804.015,191.785 799.181,205.451 798,220.5C 754.421,248.864 712.587,279.531 672.5,312.5C 672.5,290.833 672.5,269.167 672.5,247.5C 688.254,240.081 700.921,229.081 710.5,214.5C 709.327,222.193 707.993,229.86 706.5,237.5C 705.833,237.5 705.5,237.833 705.5,238.5C 702.106,248.514 698.606,258.514 695,268.5C 694.418,275.852 694.585,283.185 695.5,290.5C 696.5,290.5 697.5,290.5 698.5,290.5C 695.528,272.667 698.694,256 708,240.5C 711.69,235.32 715.523,230.32 719.5,225.5C 745.998,201.419 776.998,186.085 812.5,179.5 Z"/></g>
<g><path style="opacity:0.992" fill="#fdc369" d="M 816.5,179.5 C 827.671,179.439 837.004,183.439 844.5,191.5C 830.482,200.6 816.316,209.6 802,218.5C 802.345,203.813 807.179,190.813 816.5,179.5 Z"/></g>
<g><path style="opacity:0.997" fill="#fcc269" d="M 501.5,181.5 C 535.502,181.333 569.502,181.5 603.5,182C 610.237,183.736 614.737,187.903 617,194.5C 618.61,216.124 618.944,237.791 618,259.5C 616.805,268.412 611.971,274.245 603.5,277C 581.169,277.5 558.836,277.667 536.5,277.5C 536.5,277.167 536.5,276.833 536.5,276.5C 540.049,275.043 541.216,272.377 540,268.5C 533.291,258.247 526.457,248.08 519.5,238C 513.542,235.905 507.876,233.239 502.5,230C 486.806,224.137 472.139,225.97 458.5,235.5C 458.5,226.5 458.5,217.5 458.5,208.5C 467.986,216.061 478.32,217.394 489.5,212.5C 490.766,211.91 492.099,211.41 493.5,211C 502.266,202.927 504.933,193.094 501.5,181.5 Z"/></g>
<g><path style="opacity:0.988" fill="#e73394" d="M 68.5,182.5 C 111.835,182.333 155.168,182.5 198.5,183C 205.667,184.833 210.167,189.333 212,196.5C 212.667,218.833 212.667,241.167 212,263.5C 209.725,270.775 204.892,275.275 197.5,277C 154.833,277.667 112.167,277.667 69.5,277C 61.5557,274.723 56.7224,269.556 55,261.5C 54.3333,240.5 54.3333,219.5 55,198.5C 56.8495,190.826 61.3495,185.492 68.5,182.5 Z"/></g>
<g><path style="opacity:0.988" fill="#e73394" d="M 414.5,262.5 C 403.377,254.551 392.377,246.384 381.5,238C 380.34,230.341 376.007,225.841 368.5,224.5C 362.314,202.511 347.98,194.011 325.5,199C 305.865,208.78 300.032,223.947 308,244.5C 320.175,262.735 336.009,266.568 355.5,256C 358.777,253.234 361.443,250.067 363.5,246.5C 366.079,247.228 368.746,247.728 371.5,248C 381.403,257.4 390.736,267.233 399.5,277.5C 357.165,277.667 314.832,277.5 272.5,277C 264.78,275.614 259.947,271.114 258,263.5C 257.333,240.833 257.333,218.167 258,195.5C 260.263,188.903 264.763,184.736 271.5,183C 314.833,182.333 358.167,182.333 401.5,183C 409.329,185.825 413.829,191.325 415,199.5C 415.81,220.543 415.644,241.543 414.5,262.5 Z"/></g>
<g><path style="opacity:0.978" fill="#7600f0" d="M 489.5,212.5 C 478.32,217.394 467.986,216.061 458.5,208.5C 453.252,201.744 451.252,194.077 452.5,185.5C 453.807,184.847 455.14,184.18 456.5,183.5C 458.201,190.033 462.367,194.033 469,195.5C 469.442,198.305 468.942,200.972 467.5,203.5C 467.608,204.442 467.941,205.275 468.5,206C 475.131,207.793 481.798,209.46 488.5,211C 489.056,211.383 489.389,211.883 489.5,212.5 Z"/></g>
<g><path style="opacity:0.997" fill="#fdc369" d="M 846.5,194.5 C 849.093,199.009 851.093,203.675 852.5,208.5C 852.5,214.833 852.5,221.167 852.5,227.5C 849.897,237.295 845.564,246.295 839.5,254.5C 838.584,254.018 837.584,253.685 836.5,253.5C 810.087,266.101 784.087,265.434 758.5,251.5C 786.751,230.932 816.084,211.932 846.5,194.5 Z"/></g>
<g><path style="opacity:1" fill="#feb10e" d="M 368.5,224.5 C 359.251,225.987 355.751,231.32 358,240.5C 359.36,243.023 361.193,245.023 363.5,246.5C 361.443,250.067 358.777,253.234 355.5,256C 336.009,266.568 320.175,262.735 308,244.5C 300.032,223.947 305.865,208.78 325.5,199C 347.98,194.011 362.314,202.511 368.5,224.5 Z"/></g>
<g><path style="opacity:1" fill="#feb10e" d="M 126.5,197.5 C 154.328,197.159 167.161,210.826 165,238.5C 158.809,255.517 146.642,263.351 128.5,262C 108.82,256.146 99.9865,242.979 102,222.5C 106.352,210.316 114.518,201.983 126.5,197.5 Z"/></g>
<g><path style="opacity:0.982" fill="#ffb412" d="M 710.5,211.5 C 711.625,212.348 711.625,213.348 710.5,214.5C 700.921,229.081 688.254,240.081 672.5,247.5C 672.5,246.5 672.5,245.5 672.5,244.5C 687.303,237.368 698.97,226.701 707.5,212.5C 708.325,211.614 709.325,211.281 710.5,211.5 Z"/></g>
<g><path style="opacity:1" fill="#e8398f" d="M 345.5,217.5 C 349.677,216.842 351.177,218.508 350,222.5C 345.167,228.667 340.333,234.833 335.5,241C 334.167,241.667 332.833,241.667 331.5,241C 328.667,238.833 325.833,236.667 323,234.5C 321.836,231.433 322.836,229.767 326,229.5C 328.574,230.8 331.074,231.967 333.5,233C 337.333,227.672 341.333,222.505 345.5,217.5 Z"/></g>
<g><path style="opacity:1" fill="#e83a8d" d="M 142.5,217.5 C 146,217.495 147.5,219.162 147,222.5C 142.532,229.268 137.699,235.768 132.5,242C 130.711,242.52 129.044,242.187 127.5,241C 125.093,238.715 122.593,236.549 120,234.5C 119.277,231.875 120.277,230.208 123,229.5C 125.433,231.138 127.933,232.304 130.5,233C 134.63,227.894 138.63,222.727 142.5,217.5 Z"/></g>
<g><path style="opacity:0.99" fill="#7800f1" d="M 368.5,224.5 C 376.007,225.841 380.34,230.341 381.5,238C 392.377,246.384 403.377,254.551 414.5,262.5C 417.234,264.619 420.067,266.619 423,268.5C 424.728,268.101 426.228,267.434 427.5,266.5C 432.542,272.208 437.209,278.208 441.5,284.5C 434.566,288.215 427.399,291.549 420,294.5C 417.755,293.863 415.588,293.03 413.5,292C 408.933,286.996 404.266,282.162 399.5,277.5C 390.736,267.233 381.403,257.4 371.5,248C 368.746,247.728 366.079,247.228 363.5,246.5C 361.193,245.023 359.36,243.023 358,240.5C 355.751,231.32 359.251,225.987 368.5,224.5 Z"/></g>
<g><path style="opacity:0.995" fill="#3700a5" d="M 536.5,276.5 C 532.781,277.331 530.448,279.497 529.5,283C 528.183,304.15 527.183,325.316 526.5,346.5C 526.094,368.508 525.427,390.508 524.5,412.5C 523.674,408.018 523.174,403.351 523,398.5C 499.043,407.587 474.543,408.92 449.5,402.5C 448.542,402.047 447.708,401.381 447,400.5C 446.912,390.168 447.245,379.835 448,369.5C 448.667,350.167 448.667,330.833 448,311.5C 447.374,303.785 446.374,296.118 445,288.5C 443.624,287.295 442.458,285.962 441.5,284.5C 437.209,278.208 432.542,272.208 427.5,266.5C 427.892,264.821 428.392,263.154 429,261.5C 433.916,257.957 439.083,254.79 444.5,252C 448.686,245.99 453.352,240.49 458.5,235.5C 472.139,225.97 486.806,224.137 502.5,230C 507.876,233.239 513.542,235.905 519.5,238C 526.457,248.08 533.291,258.247 540,268.5C 541.216,272.377 540.049,275.043 536.5,276.5 Z"/></g>
<g><path style="opacity:0.998" fill="#fdc369" d="M 836.5,257.5 C 818.605,277.888 797.605,294.388 773.5,307C 785.489,308.164 797.155,310.664 808.5,314.5C 795.973,321.689 785.64,331.356 777.5,343.5C 742.477,347.921 707.477,352.921 672.5,358.5C 672.5,344.5 672.5,330.5 672.5,316.5C 699.053,295.117 726.053,274.283 753.5,254C 754.5,253.333 755.5,253.333 756.5,254C 782.597,268.393 809.097,269.226 836,256.5C 836.399,256.728 836.565,257.062 836.5,257.5 Z"/></g>
<g><path style="opacity:1" fill="#ffb515" d="M 719.5,225.5 C 715.523,230.32 711.69,235.32 708,240.5C 698.694,256 695.528,272.667 698.5,290.5C 697.5,290.5 696.5,290.5 695.5,290.5C 694.585,283.185 694.418,275.852 695,268.5C 698.606,258.514 702.106,248.514 705.5,238.5C 706.167,238.5 706.5,238.167 706.5,237.5C 710.833,233.5 715.167,229.5 719.5,225.5 Z"/></g>
<g><path style="opacity:0.991" fill="#7a00f0" d="M 536.5,276.5 C 536.5,276.833 536.5,277.167 536.5,277.5C 539.884,293.756 542.884,310.089 545.5,326.5C 547.952,339.488 550.452,352.488 553,365.5C 558.813,371.156 558.98,376.989 553.5,383C 545.212,387.439 539.379,385.273 536,376.5C 536.186,372.516 536.186,368.516 536,364.5C 533.333,354.5 530.667,344.5 528,334.5C 527.824,338.688 527.324,342.688 526.5,346.5C 527.183,325.316 528.183,304.15 529.5,283C 530.448,279.497 532.781,277.331 536.5,276.5 Z"/></g>
<g><path style="opacity:0.985" fill="#ffb513" d="M 808.5,314.5 C 809.833,314.5 811.167,314.5 812.5,314.5C 812.5,315.5 812.5,316.5 812.5,317.5C 799.027,322.794 788.36,331.627 780.5,344C 797.329,343.345 813.995,342.179 830.5,340.5C 832.519,341.538 832.853,342.872 831.5,344.5C 796.721,345.732 762.054,348.398 727.5,352.5C 730.689,360.214 735.689,366.714 742.5,372C 758.222,384.577 776.222,391.243 796.5,392C 797.056,392.383 797.389,392.883 797.5,393.5C 796.791,394.404 795.791,394.737 794.5,394.5C 763.537,392.695 739.537,379.028 722.5,353.5C 705.808,356.075 689.142,358.741 672.5,361.5C 672.5,360.5 672.5,359.5 672.5,358.5C 707.477,352.921 742.477,347.921 777.5,343.5C 785.64,331.356 795.973,321.689 808.5,314.5 Z"/></g>
<g><path style="opacity:0.994" fill="#fdc369" d="M 812.5,317.5 C 822.243,322.242 828.243,329.909 830.5,340.5C 813.995,342.179 797.329,343.345 780.5,344C 788.36,331.627 799.027,322.794 812.5,317.5 Z"/></g>
<g><path style="opacity:0.995" fill="#fdc369" d="M 68.5,326.5 C 111.835,326.333 155.168,326.5 198.5,327C 205.333,329.167 209.833,333.667 212,340.5C 212.667,363.5 212.667,386.5 212,409.5C 209.737,416.097 205.237,420.264 198.5,422C 155.167,422.667 111.833,422.667 68.5,422C 60.1137,419.614 55.2804,414.114 54,405.5C 53.3333,384.833 53.3333,364.167 54,343.5C 55.5003,334.843 60.3337,329.177 68.5,326.5 Z"/></g>
<g><path style="opacity:0.994" fill="#fdc369" d="M 271.5,326.5 C 314.501,326.333 357.501,326.5 400.5,327C 407.573,329.072 412.406,333.572 415,340.5C 415.97,364.23 415.636,387.897 414,411.5C 411.031,416.473 406.864,419.973 401.5,422C 357.833,422.667 314.167,422.667 270.5,422C 263.572,419.406 259.072,414.573 257,407.5C 256.333,385.833 256.333,364.167 257,342.5C 258.91,334.427 263.744,329.094 271.5,326.5 Z"/></g>
<g><path style="opacity:0.996" fill="#fcc269" d="M 545.5,326.5 C 564.836,326.333 584.17,326.5 603.5,327C 611.971,329.755 616.805,335.588 618,344.5C 618.944,366.209 618.61,387.876 617,409.5C 614.737,416.097 610.237,420.264 603.5,422C 577.502,422.5 551.502,422.667 525.5,422.5C 524.521,419.375 524.187,416.042 524.5,412.5C 525.427,390.508 526.094,368.508 526.5,346.5C 527.324,342.688 527.824,338.688 528,334.5C 530.667,344.5 533.333,354.5 536,364.5C 536.186,368.516 536.186,372.516 536,376.5C 539.379,385.273 545.212,387.439 553.5,383C 558.98,376.989 558.813,371.156 553,365.5C 550.452,352.488 547.952,339.488 545.5,326.5 Z"/></g>
<g><path style="opacity:0.998" fill="#fdc369" d="M 831.5,344.5 C 830.834,368.145 819.501,384.479 797.5,393.5C 797.389,392.883 797.056,392.383 796.5,392C 776.222,391.243 758.222,384.577 742.5,372C 735.689,366.714 730.689,360.214 727.5,352.5C 762.054,348.398 796.721,345.732 831.5,344.5 Z"/></g>
<g><path style="opacity:0.994" fill="#fdc369" d="M 794.5,394.5 C 775.067,402.558 754.734,407.391 733.5,409C 713.065,410.173 692.731,409.339 672.5,406.5C 672.5,391.5 672.5,376.5 672.5,361.5C 689.142,358.741 705.808,356.075 722.5,353.5C 739.537,379.028 763.537,392.695 794.5,394.5 Z"/></g>
<g><path style="opacity:0.982" fill="#270075" d="M 524.5,412.5 C 524.187,416.042 524.521,419.375 525.5,422.5C 526.154,447.522 527.154,472.522 528.5,497.5C 527.167,498.167 527.167,498.833 528.5,499.5C 529.205,514.163 529.372,528.83 529,543.5C 528.184,544.823 527.017,545.489 525.5,545.5C 520.833,544.167 516.167,544.167 511.5,545.5C 509.278,545.822 507.444,545.155 506,543.5C 503.497,529.151 500.997,514.817 498.5,500.5C 494.217,499.508 489.884,499.174 485.5,499.5C 485.667,513.171 485.5,526.837 485,540.5C 484.693,543.876 482.86,545.21 479.5,544.5C 474.637,544.181 469.97,544.514 465.5,545.5C 463.007,545.671 461.174,544.671 460,542.5C 458.756,528.164 457.59,513.831 456.5,499.5C 457.833,498.833 457.833,498.167 456.5,497.5C 454.025,465.845 451.691,434.179 449.5,402.5C 474.543,408.92 499.043,407.587 523,398.5C 523.174,403.351 523.674,408.018 524.5,412.5 Z M 485.5,422.5 C 490.03,447.008 494.363,471.674 498.5,496.5C 494.217,497.492 489.884,497.826 485.5,497.5C 485.5,472.5 485.5,447.5 485.5,422.5 Z"/></g>
<g><path style="opacity:0.996" fill="#6d00f4" d="M 479.5,544.5 C 479.5,545.5 479.5,546.5 479.5,547.5C 474.934,548.797 470.267,548.797 465.5,547.5C 465.5,546.833 465.5,546.167 465.5,545.5C 469.97,544.514 474.637,544.181 479.5,544.5 Z"/></g>
<g><path style="opacity:0.971" fill="#6500e7" d="M 525.5,545.5 C 525.5,546.167 525.5,546.833 525.5,547.5C 520.934,548.797 516.267,548.797 511.5,547.5C 511.5,546.833 511.5,546.167 511.5,545.5C 516.167,544.167 520.833,544.167 525.5,545.5 Z"/></g>
<g><path style="opacity:0.967" fill="#270075" d="M 465.5,547.5 C 470.267,548.797 474.934,548.797 479.5,547.5C 480.833,547.5 482.167,547.5 483.5,547.5C 483.5,552.167 483.5,556.833 483.5,561.5C 469.735,562.822 456.069,562.822 442.5,561.5C 446.07,550.532 453.737,545.865 465.5,547.5 Z"/></g>
<g><path style="opacity:0.965" fill="#270075" d="M 511.5,547.5 C 516.267,548.797 520.934,548.797 525.5,547.5C 526.833,547.5 528.167,547.5 529.5,547.5C 529.5,552.167 529.5,556.833 529.5,561.5C 515.735,562.822 502.069,562.822 488.5,561.5C 492.07,550.532 499.737,545.865 511.5,547.5 Z"/></g>
<g><path style="opacity:0.716" fill="#3500a4" d="M 442.5,561.5 C 456.069,562.822 469.735,562.822 483.5,561.5C 485.167,561.5 486.833,561.5 488.5,561.5C 502.069,562.822 515.735,562.822 529.5,561.5C 577.501,561.333 625.501,561.5 673.5,562C 674.252,562.671 674.586,563.504 674.5,564.5C 546.5,564.5 418.5,564.5 290.5,564.5C 290.414,563.504 290.748,562.671 291.5,562C 341.832,561.5 392.166,561.333 442.5,561.5 Z"/></g>
</svg>
