<?xml version="1.0" encoding="UTF-8"?>
<!DOCTYPE svg PUBLIC "-//W3C//DTD SVG 1.1//EN" "http://www.w3.org/Graphics/SVG/1.1/DTD/svg11.dtd">
<svg xmlns="http://www.w3.org/2000/svg" version="1.1" width="770px" height="728px" style="shape-rendering:geometricPrecision; text-rendering:geometricPrecision; image-rendering:optimizeQuality; fill-rule:evenodd; clip-rule:evenodd" xmlns:xlink="http://www.w3.org/1999/xlink">
<g><path style="opacity:0.995" fill="#403e57" d="M 51.5,-0.5 C 136.5,-0.5 221.5,-0.5 306.5,-0.5C 334.152,6.31934 351.319,23.6527 358,51.5C 358.5,91.832 358.667,132.165 358.5,172.5C 359.833,172.5 361.167,172.5 362.5,172.5C 362.5,198.5 362.5,224.5 362.5,250.5C 361.167,250.5 359.833,250.5 358.5,250.5C 358.667,392.167 358.5,533.834 358,675.5C 351.319,703.347 334.152,720.681 306.5,727.5C 221.5,727.5 136.5,727.5 51.5,727.5C 23.8295,720.496 6.49615,703.163 -0.5,675.5C -0.5,467.5 -0.5,259.5 -0.5,51.5C 6.49615,23.8372 23.8295,6.50385 51.5,-0.5 Z"/></g>
<g><path style="opacity:1" fill="#fefefe" d="M 53.5,16.5 C 66.5043,16.3334 79.5043,16.5001 92.5,17C 89.1113,30.5559 93.778,40.2226 106.5,46C 155.167,46.6667 203.833,46.6667 252.5,46C 265.958,40.7509 270.958,31.0842 267.5,17C 280.833,16.3333 294.167,16.3333 307.5,17C 326.566,21.7328 338.733,33.5661 344,52.5C 344.667,259.5 344.667,466.5 344,673.5C 339.447,691.121 328.614,702.955 311.5,709C 225.544,710.656 139.544,710.989 53.5,710C 32.9544,704.09 20.7877,690.59 17,669.5C 16.3333,465.5 16.3333,261.5 17,57.5C 20.947,36.3927 33.1136,22.726 53.5,16.5 Z"/></g>
<g><path style="opacity:1" fill="#e5e5e5" d="M 57.5,109.5 C 139.833,109.5 222.167,109.5 304.5,109.5C 304.5,179.833 304.5,250.167 304.5,320.5C 222.167,320.5 139.833,320.5 57.5,320.5C 57.5,250.167 57.5,179.833 57.5,109.5 Z"/></g>
<g><path style="opacity:1" fill="#f3b707" d="M 190.5,149.5 C 183.5,149.5 176.5,149.5 169.5,149.5C 168.515,145.366 168.182,141.032 168.5,136.5C 176.5,136.5 184.5,136.5 192.5,136.5C 193.097,141.294 192.43,145.627 190.5,149.5 Z"/></g>
<g><path style="opacity:1" fill="#413e56" d="M 169.5,149.5 C 176.5,149.5 183.5,149.5 190.5,149.5C 191.002,173.834 197.835,196.168 211,216.5C 211.19,241.502 210.857,266.502 210,291.5C 209.097,292.701 207.931,293.535 206.5,294C 189.5,294.667 172.5,294.667 155.5,294C 154.299,293.097 153.465,291.931 153,290.5C 151.445,265.853 150.778,241.186 151,216.5C 156.664,208.172 160.997,199.172 164,189.5C 166.475,176.142 168.309,162.809 169.5,149.5 Z"/></g>
<g><path style="opacity:0.99" fill="#2f2e41" d="M 635.5,291.5 C 634.861,292.097 634.528,292.93 634.5,294C 635.455,300.185 636.455,306.352 637.5,312.5C 638.537,323.003 640.203,333.337 642.5,343.5C 642.5,344.5 642.5,345.5 642.5,346.5C 632.167,346.5 621.833,346.5 611.5,346.5C 602.348,345.506 593.015,345.173 583.5,345.5C 574.833,345.5 566.167,345.5 557.5,345.5C 556.325,345.719 555.325,345.386 554.5,344.5C 556.242,340.275 557.576,335.941 558.5,331.5C 560.589,327.499 561.922,323.165 562.5,318.5C 568.648,301.151 571.648,283.151 571.5,264.5C 571.593,258.137 571.26,251.804 570.5,245.5C 569.602,230.14 564.935,216.14 556.5,203.5C 552.652,198.15 552.819,192.817 557,187.5C 570.419,173.081 585.919,170.581 603.5,180C 612.838,184.668 619.338,191.835 623,201.5C 627.034,231.567 631.2,261.567 635.5,291.5 Z"/></g>
<g><path style="opacity:0.968" fill="#9e6069" d="M 556.5,203.5 C 564.935,216.14 569.602,230.14 570.5,245.5C 556.505,238.512 550.671,227.179 553,211.5C 553.705,208.524 554.871,205.858 556.5,203.5 Z"/></g>
<g><path style="opacity:1" fill="#fcbd02" d="M 178.5,224.5 C 188.169,223.983 194.169,228.316 196.5,237.5C 199.187,237.336 201.854,237.503 204.5,238C 205.944,239.126 206.61,240.626 206.5,242.5C 203.778,255.441 201.445,268.441 199.5,281.5C 187.5,281.5 175.5,281.5 163.5,281.5C 161.874,268.451 159.874,255.451 157.5,242.5C 157.39,240.626 158.056,239.126 159.5,238C 162.146,237.503 164.813,237.336 167.5,237.5C 168.686,230.987 172.352,226.654 178.5,224.5 Z"/></g>
<g><path style="opacity:0.97" fill="#fdbd01" d="M 571.5,264.5 C 571.648,283.151 568.648,301.151 562.5,318.5C 561.206,319.29 560.039,320.29 559,321.5C 558.502,324.817 558.335,328.15 558.5,331.5C 557.576,335.941 556.242,340.275 554.5,344.5C 555.325,345.386 556.325,345.719 557.5,345.5C 557.666,353.507 557.5,361.507 557,369.5C 556.79,371.058 556.29,372.391 555.5,373.5C 553.833,373.5 552.167,373.5 550.5,373.5C 542.745,353.554 539.578,332.888 541,311.5C 542.871,298.759 548.205,287.759 557,278.5C 557.78,269.552 562.613,264.886 571.5,264.5 Z"/></g>
<g><path style="opacity:0.892" fill="#f5b709" d="M 635.5,291.5 C 639.573,297.747 644.24,303.581 649.5,309C 648.756,310.039 647.756,310.539 646.5,310.5C 643.402,310.756 640.402,311.422 637.5,312.5C 636.455,306.352 635.455,300.185 634.5,294C 634.528,292.93 634.861,292.097 635.5,291.5 Z"/></g>
<g><path style="opacity:0.974" fill="#a06069" d="M 646.5,310.5 C 655.832,321.335 664.999,332.335 674,343.5C 676.474,349.209 675.641,354.375 671.5,359C 655.345,369.663 639.345,380.497 623.5,391.5C 620.35,387.881 617.684,383.881 615.5,379.5C 626.434,370.069 636.934,360.069 647,349.5C 646.573,346.879 645.073,344.879 642.5,343.5C 640.203,333.337 638.537,323.003 637.5,312.5C 640.402,311.422 643.402,310.756 646.5,310.5 Z"/></g>
<g><path style="opacity:1" fill="#9d6068" d="M 562.5,318.5 C 561.922,323.165 560.589,327.499 558.5,331.5C 558.335,328.15 558.502,324.817 559,321.5C 560.039,320.29 561.206,319.29 562.5,318.5 Z"/></g>
<g><path style="opacity:1" fill="#ffc00f" d="M 126.5,328.5 C 144.555,329.049 151.388,338.049 147,355.5C 140.887,364.374 132.72,366.874 122.5,363C 112.728,356.02 110.561,347.186 116,336.5C 118.94,332.963 122.44,330.297 126.5,328.5 Z"/></g>
<g><path style="opacity:1" fill="#ffc00e" d="M 221.5,328.5 C 239.555,329.049 246.388,338.049 242,355.5C 235.887,364.374 227.72,366.874 217.5,363C 207.728,356.02 205.561,347.186 211,336.5C 213.94,332.963 217.44,330.297 221.5,328.5 Z"/></g>
<g><path style="opacity:1" fill="#fffcf3" d="M 129.5,337.5 C 130.5,337.5 131.5,337.5 132.5,337.5C 132.5,340.167 132.5,342.833 132.5,345.5C 134.833,345.5 137.167,345.5 139.5,345.5C 139.5,346.5 139.5,347.5 139.5,348.5C 137.167,348.5 134.833,348.5 132.5,348.5C 132.5,350.833 132.5,353.167 132.5,355.5C 131.5,355.5 130.5,355.5 129.5,355.5C 129.5,353.167 129.5,350.833 129.5,348.5C 126.833,348.5 124.167,348.5 121.5,348.5C 121.5,347.5 121.5,346.5 121.5,345.5C 124.167,345.5 126.833,345.5 129.5,345.5C 129.5,342.833 129.5,340.167 129.5,337.5 Z"/></g>
<g><path style="opacity:1" fill="#fffbf1" d="M 216.5,345.5 C 222.5,345.5 228.5,345.5 234.5,345.5C 234.5,346.5 234.5,347.5 234.5,348.5C 228.5,348.5 222.5,348.5 216.5,348.5C 216.5,347.5 216.5,346.5 216.5,345.5 Z"/></g>
<g><path style="opacity:0.993" fill="#9f6069" d="M 557.5,345.5 C 566.167,345.5 574.833,345.5 583.5,345.5C 583.5,353.833 583.5,362.167 583.5,370.5C 583.662,372.527 583.495,374.527 583,376.5C 572,403.5 561,430.5 550,457.5C 548.917,469.492 547.917,481.492 547,493.5C 544.487,497.212 540.987,498.378 536.5,497C 534.951,495.786 533.785,494.286 533,492.5C 532.502,489.183 532.335,485.85 532.5,482.5C 532.46,473.472 532.96,464.472 534,455.5C 538.686,437.089 543.519,418.756 548.5,400.5C 551.277,391.731 553.61,382.731 555.5,373.5C 556.29,372.391 556.79,371.058 557,369.5C 557.5,361.507 557.666,353.507 557.5,345.5 Z"/></g>
<g><path style="opacity:0.983" fill="#fabb04" d="M 583.5,345.5 C 593.015,345.173 602.348,345.506 611.5,346.5C 610.175,354.424 609.508,362.424 609.5,370.5C 600.833,370.5 592.167,370.5 583.5,370.5C 583.5,362.167 583.5,353.833 583.5,345.5 Z"/></g>
<g><path style="opacity:0.993" fill="#2f2e41" d="M 583.5,370.5 C 592.167,370.5 600.833,370.5 609.5,370.5C 612.231,372.946 614.231,375.946 615.5,379.5C 617.684,383.881 620.35,387.881 623.5,391.5C 634.52,412.216 643.353,433.883 650,456.5C 658.091,493.881 665.591,531.381 672.5,569C 672.355,569.772 672.022,570.439 671.5,571C 663.177,574.273 654.844,577.44 646.5,580.5C 646.44,579.957 646.107,579.624 645.5,579.5C 634.51,582.995 623.51,585.995 612.5,588.5C 594.221,591.365 575.888,592.031 557.5,590.5C 546.481,589.286 535.481,587.953 524.5,586.5C 518.225,584.912 511.892,583.578 505.5,582.5C 513.899,548.894 522.899,515.561 532.5,482.5C 532.335,485.85 532.502,489.183 533,492.5C 533.785,494.286 534.951,495.786 536.5,497C 540.987,498.378 544.487,497.212 547,493.5C 547.917,481.492 548.917,469.492 550,457.5C 561,430.5 572,403.5 583,376.5C 583.495,374.527 583.662,372.527 583.5,370.5 Z"/></g>
<g><path style="opacity:0.888" fill="#353043" d="M 550.5,373.5 C 552.167,373.5 553.833,373.5 555.5,373.5C 553.61,382.731 551.277,391.731 548.5,400.5C 549.37,391.519 550.037,382.519 550.5,373.5 Z"/></g>
<g><path style="opacity:1" fill="#e6e6e6" d="M 57.5,406.5 C 139.833,406.5 222.167,406.5 304.5,406.5C 304.5,476.833 304.5,547.167 304.5,617.5C 222.167,617.5 139.833,617.5 57.5,617.5C 57.5,547.167 57.5,476.833 57.5,406.5 Z"/></g>
<g><path style="opacity:1" fill="#fefefe" d="M 167.5,439.5 C 207.44,436.009 235.606,452.342 252,488.5C 258.291,506.636 257.957,524.636 251,542.5C 244.369,554.393 234.202,559.226 220.5,557C 201.698,560.067 185.698,568.4 172.5,582C 161.686,587.022 151.352,586.022 141.5,579C 115.13,561.279 103.297,536.446 106,504.5C 112.692,469.645 133.192,447.978 167.5,439.5 Z"/></g>
<g><path style="opacity:1" fill="#f9a827" d="M 183.5,484.5 C 198.764,482.28 209.264,488.28 215,502.5C 216.917,521.239 208.583,531.572 190,533.5C 174.998,531.997 166.831,523.664 165.5,508.5C 166.677,496.788 172.677,488.788 183.5,484.5 Z"/></g>
<g><path style="opacity:0.978" fill="#9f6069" d="M 646.5,580.5 C 642.987,615.266 638.987,649.933 634.5,684.5C 629.731,685.889 624.731,686.556 619.5,686.5C 617.45,653.806 615.117,621.139 612.5,588.5C 623.51,585.995 634.51,582.995 645.5,579.5C 646.107,579.624 646.44,579.957 646.5,580.5 Z"/></g>
<g><path style="opacity:0.976" fill="#9f6069" d="M 524.5,586.5 C 535.481,587.953 546.481,589.286 557.5,590.5C 554.167,622.167 550.833,653.833 547.5,685.5C 542.518,686.053 537.518,686.387 532.5,686.5C 529.926,653.131 527.26,619.797 524.5,586.5 Z"/></g>
<g><path style="opacity:1" fill="#ffc00f" d="M 127.5,625.5 C 145.039,626.538 151.539,635.538 147,652.5C 140.9,661.374 132.734,663.874 122.5,660C 110.18,650.415 109.513,640.082 120.5,629C 122.925,627.787 125.259,626.621 127.5,625.5 Z"/></g>
<g><path style="opacity:1" fill="#ffc00e" d="M 222.5,625.5 C 240.039,626.538 246.539,635.538 242,652.5C 235.9,661.374 227.734,663.874 217.5,660C 205.18,650.415 204.513,640.082 215.5,629C 217.925,627.787 220.259,626.621 222.5,625.5 Z"/></g>
<g><path style="opacity:1" fill="#fffcf4" d="M 129.5,634.5 C 130.5,634.5 131.5,634.5 132.5,634.5C 132.5,637.167 132.5,639.833 132.5,642.5C 134.833,642.5 137.167,642.5 139.5,642.5C 139.5,643.5 139.5,644.5 139.5,645.5C 137.167,645.5 134.833,645.5 132.5,645.5C 132.5,647.833 132.5,650.167 132.5,652.5C 131.5,652.5 130.5,652.5 129.5,652.5C 129.5,650.167 129.5,647.833 129.5,645.5C 126.833,645.5 124.167,645.5 121.5,645.5C 121.5,644.5 121.5,643.5 121.5,642.5C 124.167,642.5 126.833,642.5 129.5,642.5C 129.5,639.833 129.5,637.167 129.5,634.5 Z"/></g>
<g><path style="opacity:1" fill="#fffbf3" d="M 216.5,642.5 C 222.5,642.5 228.5,642.5 234.5,642.5C 234.5,643.5 234.5,644.5 234.5,645.5C 228.5,645.5 222.5,645.5 216.5,645.5C 216.5,644.5 216.5,643.5 216.5,642.5 Z"/></g>
<g><path style="opacity:0.957" fill="#2f2d40" d="M 634.5,684.5 C 637.537,687.06 639.371,690.393 640,694.5C 642.725,704.92 641.725,714.92 637,724.5C 635.186,725.76 633.353,725.76 631.5,724.5C 630.079,721.991 628.412,719.657 626.5,717.5C 616.139,725.693 604.806,727.526 592.5,723C 593.167,722.667 593.833,722.333 594.5,722C 593.398,719.599 593.231,717.099 594,714.5C 598.217,712.907 602.383,711.24 606.5,709.5C 610.592,701.644 614.925,693.977 619.5,686.5C 624.731,686.556 629.731,685.889 634.5,684.5 Z"/></g>
<g><path style="opacity:0.953" fill="#2f2e41" d="M 547.5,685.5 C 555.603,697.664 556.436,710.331 550,723.5C 548.534,725.325 546.701,725.825 544.5,725C 542.66,722.331 540.66,719.831 538.5,717.5C 528.466,725.597 517.466,727.431 505.5,723C 505.579,720.695 505.746,718.195 506,715.5C 506.833,714.667 507.667,713.833 508.5,713C 512.209,712.367 515.709,711.2 519,709.5C 523.022,701.441 527.522,693.775 532.5,686.5C 537.518,686.387 542.518,686.053 547.5,685.5 Z"/></g>
</svg>
